<svg width="100" height="31" viewBox="0 0 100 31" fill="none" xmlns="http://www.w3.org/2000/svg">
<path d="M20.2852 30.4951H12.1406V18.3662H8.25391V30.4951H0.109375V0.338867H8.25391V11.0029H12.1406V0.338867H20.2852V30.4951ZM24.5234 30.4951V0.338867H39.6602V7.42871H32.668V11.8232H38.9375V18.6396H32.668V23.249H39.6602V30.4951H24.5234ZM74.1914 30.4951H65.6758L65.0703 16.7451L64.8164 11.2568C64.7253 12.3115 64.6211 13.3206 64.5039 14.2842C64.3867 15.2347 64.2435 16.1592 64.0742 17.0576L61.5156 30.4951H54.875L52.6875 17.0381C52.5573 16.2568 52.3815 14.9157 52.1602 13.0146C52.1341 12.7282 52.0755 12.1423 51.9844 11.2568L51.7891 16.8232L51.0664 30.4951H42.3945L45.9102 0.338867H56.0469L57.7461 10.4951C57.8893 11.3285 58.013 12.2334 58.1172 13.21C58.2344 14.1865 58.3385 15.2477 58.4297 16.3936C58.599 14.4795 58.8333 12.7673 59.1328 11.2568L61.2031 0.338867H71.2617L74.1914 30.4951ZM99.5234 30.4951H91.1055L90.5 26.667H85.0117L84.3477 30.4951H75.9297L83.1758 0.338867H93.1367L99.5234 30.4951ZM89.543 20.2021L89.0156 16.6865C89.0026 16.6735 88.9766 16.4977 88.9375 16.1592C88.9115 15.8727 88.7747 14.7399 88.5273 12.7607C88.5013 12.5394 88.4688 12.2399 88.4297 11.8623C88.3906 11.4717 88.3385 10.9834 88.2734 10.3975L88.0195 7.5459C87.9935 7.81934 87.9544 8.12533 87.9023 8.46387C87.8633 8.80241 87.8177 9.1735 87.7656 9.57715C87.6745 10.3844 87.6094 10.9443 87.5703 11.2568C87.5312 11.5693 87.5052 11.7581 87.4922 11.8232L86.9258 15.4756L86.1055 20.2021H89.543Z" fill="white"/>
</svg>
