<svg width="28" height="28" viewBox="0 0 28 28" fill="none" xmlns="http://www.w3.org/2000/svg">
<path d="M28 26.5861L20.448 19.0341C22.2628 16.8554 23.1678 14.061 22.9747 11.232C22.7816 8.40309 21.5052 5.75751 19.4112 3.84563C17.3172 1.93376 14.5667 0.90279 11.732 0.967202C8.89717 1.03161 6.19635 2.18644 4.19133 4.19146C2.18632 6.19647 1.03149 8.89729 0.96708 11.7321C0.902668 14.5669 1.93363 17.3173 3.84551 19.4114C5.75738 21.5054 8.40296 22.7817 11.2319 22.9748C14.0608 23.1679 16.8553 22.2629 19.034 20.4481L26.586 28.0001L28 26.5861ZM2.99999 12.0001C2.99999 10.2201 3.52783 8.48003 4.51677 6.99998C5.5057 5.51994 6.91131 4.36639 8.55584 3.6852C10.2004 3.00401 12.01 2.82578 13.7558 3.17305C15.5016 3.52032 17.1053 4.37748 18.364 5.63615C19.6226 6.89483 20.4798 8.49847 20.8271 10.2443C21.1743 11.9901 20.9961 13.7997 20.3149 15.4443C19.6337 17.0888 18.4802 18.4944 17.0001 19.4833C15.5201 20.4723 13.78 21.0001 12 21.0001C9.61386 20.9975 7.32621 20.0484 5.63896 18.3612C3.9517 16.6739 3.00264 14.3863 2.99999 12.0001Z" fill="black"/>
</svg>
