<svg width="152" height="32" viewBox="0 0 152 32" fill="none" xmlns="http://www.w3.org/2000/svg">
<path d="M18.0625 21.7227L17.5938 30.4336C15.7839 31.1628 14.1628 31.5273 12.7305 31.5273C9.35807 31.5273 6.51953 30.2904 4.21484 27.8164C1.63672 25.043 0.347656 21.1172 0.347656 16.0391C0.347656 11.2865 1.55859 7.47135 3.98047 4.59375C6.40234 1.72917 9.63802 0.296875 13.6875 0.296875C15.0026 0.296875 16.3438 0.544271 17.7109 1.03906V9.65234C16.5 8.44141 15.2565 7.83594 13.9805 7.83594C12.3138 7.83594 11.0117 8.54557 10.0742 9.96484C9.13672 11.3971 8.66797 13.3763 8.66797 15.9023C8.66797 17.1263 8.78516 18.2201 9.01953 19.1836C9.25391 20.1471 9.58594 20.9609 10.0156 21.625C10.4583 22.2891 10.9987 22.7969 11.6367 23.1484C12.2747 23.5 13.0039 23.6758 13.8242 23.6758C15.2305 23.6758 16.6432 23.0247 18.0625 21.7227ZM43.4336 16.0195C43.4336 20.6159 42.3854 24.3529 40.2891 27.2305C38.2057 30.0951 35.4909 31.5273 32.1445 31.5273C29.1758 31.5273 26.6302 30.4271 24.5078 28.2266C21.8385 25.4401 20.5039 21.2604 20.5039 15.6875C20.5039 10.349 21.8971 6.26693 24.6836 3.44141C26.7539 1.34505 29.2083 0.296875 32.0469 0.296875C35.5234 0.296875 38.2904 1.71615 40.3477 4.55469C42.4049 7.39323 43.4336 11.2148 43.4336 16.0195ZM34.9766 16.0781C34.9766 10.6224 34.013 7.89453 32.0859 7.89453C31.1224 7.89453 30.3542 8.61068 29.7812 10.043C29.2214 11.3711 28.9414 13.3242 28.9414 15.9023C28.9414 18.4414 29.2018 20.4141 29.7227 21.8203C30.2565 23.2135 30.9922 23.9102 31.9297 23.9102C32.8932 23.9102 33.6354 23.2201 34.1562 21.8398C34.7031 20.4596 34.9766 18.5391 34.9766 16.0781ZM46.9297 31V0.84375H54.7031L58.7852 11.4297C59.0065 12.0547 59.2539 12.7708 59.5273 13.5781C59.8138 14.3854 60.1263 15.3164 60.4648 16.3711L61.3047 19.0273C61.0052 16.4102 60.7773 14.1706 60.6211 12.3086C60.4648 10.4466 60.3867 8.88411 60.3867 7.62109V0.84375H68.1602V31H60.3867L56.2852 19.9062C55.8555 18.7214 55.4648 17.6146 55.1133 16.5859C54.7747 15.5443 54.4753 14.5547 54.2148 13.6172C54.3841 15.7396 54.5078 17.5885 54.5859 19.1641C54.6641 20.7396 54.7031 22.1198 54.7031 23.3047V31H46.9297ZM72.3984 31V0.84375H80.1719L84.2539 11.4297C84.4753 12.0547 84.7227 12.7708 84.9961 13.5781C85.2826 14.3854 85.5951 15.3164 85.9336 16.3711L86.7734 19.0273C86.474 16.4102 86.2461 14.1706 86.0898 12.3086C85.9336 10.4466 85.8555 8.88411 85.8555 7.62109V0.84375H93.6289V31H85.8555L81.7539 19.9062C81.3242 18.7214 80.9336 17.6146 80.582 16.5859C80.2435 15.5443 79.944 14.5547 79.6836 13.6172C79.8529 15.7396 79.9766 17.5885 80.0547 19.1641C80.1328 20.7396 80.1719 22.1198 80.1719 23.3047V31H72.3984ZM97.8672 31V0.84375H113.004V7.93359H106.012V12.3281H112.281V19.1445H106.012V23.7539H113.004V31H97.8672ZM133.453 21.7227L132.984 30.4336C131.174 31.1628 129.553 31.5273 128.121 31.5273C124.749 31.5273 121.91 30.2904 119.605 27.8164C117.027 25.043 115.738 21.1172 115.738 16.0391C115.738 11.2865 116.949 7.47135 119.371 4.59375C121.793 1.72917 125.029 0.296875 129.078 0.296875C130.393 0.296875 131.734 0.544271 133.102 1.03906V9.65234C131.891 8.44141 130.647 7.83594 129.371 7.83594C127.704 7.83594 126.402 8.54557 125.465 9.96484C124.527 11.3971 124.059 13.3763 124.059 15.9023C124.059 17.1263 124.176 18.2201 124.41 19.1836C124.645 20.1471 124.977 20.9609 125.406 21.625C125.849 22.2891 126.389 22.7969 127.027 23.1484C127.665 23.5 128.395 23.6758 129.215 23.6758C130.621 23.6758 132.034 23.0247 133.453 21.7227ZM147.184 31H139.039V8.07031H134.547V0.84375H151.852V8.07031H147.184V31Z" fill="#42B040"/>
</svg>
