<svg width="1363" height="163" viewBox="0 0 1363 163" fill="none" xmlns="http://www.w3.org/2000/svg">
<path d="M0 15C0 6.71573 6.71573 0 15 0H37V163H15C6.71573 163 0 156.284 0 148V15Z" fill="#424242"/>
<rect width="1097" height="163" transform="translate(37)" fill="#F0F0F0"/>
<path d="M101.906 53.9219L94.3945 51.2383V48.0859L104.602 52.375V54.6367L101.906 53.9219ZM94.3945 56.1719L101.918 53.4297L104.602 52.7852V55.0352L94.3945 59.3242V56.1719ZM124.277 50.8867V53.6289H115.371V50.8867H124.277ZM116.414 43.9375V61H112.898V43.9375H116.414ZM126.785 43.9375V61H123.281V43.9375H126.785ZM135.469 61.2344C134.484 61.2344 133.602 61.0781 132.82 60.7656C132.039 60.4453 131.375 60.0039 130.828 59.4414C130.289 58.8789 129.875 58.2266 129.586 57.4844C129.297 56.7344 129.152 55.9375 129.152 55.0938V54.625C129.152 53.6641 129.289 52.7852 129.562 51.9883C129.836 51.1914 130.227 50.5 130.734 49.9141C131.25 49.3281 131.875 48.8789 132.609 48.5664C133.344 48.2461 134.172 48.0859 135.094 48.0859C135.992 48.0859 136.789 48.2344 137.484 48.5312C138.18 48.8281 138.762 49.25 139.23 49.7969C139.707 50.3438 140.066 51 140.309 51.7656C140.551 52.5234 140.672 53.3672 140.672 54.2969V55.7031H130.594V53.4531H137.355V53.1953C137.355 52.7266 137.27 52.3086 137.098 51.9414C136.934 51.5664 136.684 51.2695 136.348 51.0508C136.012 50.832 135.582 50.7227 135.059 50.7227C134.613 50.7227 134.23 50.8203 133.91 51.0156C133.59 51.2109 133.328 51.4844 133.125 51.8359C132.93 52.1875 132.781 52.6016 132.68 53.0781C132.586 53.5469 132.539 54.0625 132.539 54.625V55.0938C132.539 55.6016 132.609 56.0703 132.75 56.5C132.898 56.9297 133.105 57.3008 133.371 57.6133C133.645 57.9258 133.973 58.168 134.355 58.3398C134.746 58.5117 135.188 58.5977 135.68 58.5977C136.289 58.5977 136.855 58.4805 137.379 58.2461C137.91 58.0039 138.367 57.6406 138.75 57.1562L140.391 58.9375C140.125 59.3203 139.762 59.6875 139.301 60.0391C138.848 60.3906 138.301 60.6797 137.66 60.9062C137.02 61.125 136.289 61.2344 135.469 61.2344ZM145.969 50.9453V61H142.582V48.3203H145.758L145.969 50.9453ZM145.5 54.2148H144.562C144.562 53.332 144.668 52.5195 144.879 51.7773C145.098 51.0273 145.414 50.3789 145.828 49.832C146.25 49.2773 146.77 48.8477 147.387 48.543C148.004 48.2383 148.719 48.0859 149.531 48.0859C150.094 48.0859 150.609 48.1719 151.078 48.3438C151.547 48.5078 151.949 48.7695 152.285 49.1289C152.629 49.4805 152.895 49.9414 153.082 50.5117C153.27 51.0742 153.363 51.75 153.363 52.5391V61H149.988V52.9141C149.988 52.3359 149.91 51.8906 149.754 51.5781C149.598 51.2656 149.375 51.0469 149.086 50.9219C148.805 50.7969 148.465 50.7344 148.066 50.7344C147.629 50.7344 147.246 50.8242 146.918 51.0039C146.598 51.1836 146.332 51.4336 146.121 51.7539C145.91 52.0664 145.754 52.4336 145.652 52.8555C145.551 53.2773 145.5 53.7305 145.5 54.2148ZM153.047 53.8281L151.84 53.9805C151.84 53.1523 151.941 52.3828 152.145 51.6719C152.355 50.9609 152.664 50.3359 153.07 49.7969C153.484 49.2578 153.996 48.8398 154.605 48.543C155.215 48.2383 155.918 48.0859 156.715 48.0859C157.324 48.0859 157.879 48.1758 158.379 48.3555C158.879 48.5273 159.305 48.8047 159.656 49.1875C160.016 49.5625 160.289 50.0547 160.477 50.6641C160.672 51.2734 160.77 52.0195 160.77 52.9023V61H157.383V52.9023C157.383 52.3164 157.305 51.8711 157.148 51.5664C157 51.2539 156.781 51.0391 156.492 50.9219C156.211 50.7969 155.875 50.7344 155.484 50.7344C155.078 50.7344 154.723 50.8164 154.418 50.9805C154.113 51.1367 153.859 51.3555 153.656 51.6367C153.453 51.918 153.301 52.2461 153.199 52.6211C153.098 52.9883 153.047 53.3906 153.047 53.8281ZM170.227 58.1406V52.4922C170.227 52.0859 170.16 51.7383 170.027 51.4492C169.895 51.1523 169.688 50.9219 169.406 50.7578C169.133 50.5938 168.777 50.5117 168.34 50.5117C167.965 50.5117 167.641 50.5781 167.367 50.7109C167.094 50.8359 166.883 51.0195 166.734 51.2617C166.586 51.4961 166.512 51.7734 166.512 52.0938H163.137C163.137 51.5547 163.262 51.043 163.512 50.5586C163.762 50.0742 164.125 49.6484 164.602 49.2812C165.078 48.9062 165.645 48.6133 166.301 48.4023C166.965 48.1914 167.707 48.0859 168.527 48.0859C169.512 48.0859 170.387 48.25 171.152 48.5781C171.918 48.9062 172.52 49.3984 172.957 50.0547C173.402 50.7109 173.625 51.5312 173.625 52.5156V57.9414C173.625 58.6367 173.668 59.207 173.754 59.6523C173.84 60.0898 173.965 60.4727 174.129 60.8008V61H170.719C170.555 60.6562 170.43 60.2266 170.344 59.7109C170.266 59.1875 170.227 58.6641 170.227 58.1406ZM170.672 53.2773L170.695 55.1875H168.809C168.363 55.1875 167.977 55.2383 167.648 55.3398C167.32 55.4414 167.051 55.5859 166.84 55.7734C166.629 55.9531 166.473 56.1641 166.371 56.4062C166.277 56.6484 166.23 56.9141 166.23 57.2031C166.23 57.4922 166.297 57.7539 166.43 57.9883C166.562 58.2148 166.754 58.3945 167.004 58.5273C167.254 58.6523 167.547 58.7148 167.883 58.7148C168.391 58.7148 168.832 58.6133 169.207 58.4102C169.582 58.207 169.871 57.957 170.074 57.6602C170.285 57.3633 170.395 57.082 170.402 56.8164L171.293 58.2461C171.168 58.5664 170.996 58.8984 170.777 59.2422C170.566 59.5859 170.297 59.9102 169.969 60.2148C169.641 60.5117 169.246 60.7578 168.785 60.9531C168.324 61.1406 167.777 61.2344 167.145 61.2344C166.34 61.2344 165.609 61.0742 164.953 60.7539C164.305 60.4258 163.789 59.9766 163.406 59.4062C163.031 58.8281 162.844 58.1719 162.844 57.4375C162.844 56.7734 162.969 56.1836 163.219 55.668C163.469 55.1523 163.836 54.7188 164.32 54.3672C164.812 54.0078 165.426 53.7383 166.16 53.5586C166.895 53.3711 167.746 53.2773 168.715 53.2773H170.672ZM186.328 55.3398H189.832C189.762 56.4883 189.445 57.5078 188.883 58.3984C188.328 59.2891 187.551 59.9844 186.551 60.4844C185.559 60.9844 184.363 61.2344 182.965 61.2344C181.871 61.2344 180.891 61.0469 180.023 60.6719C179.156 60.2891 178.414 59.7422 177.797 59.0312C177.188 58.3203 176.723 57.4609 176.402 56.4531C176.082 55.4453 175.922 54.3164 175.922 53.0664V51.8828C175.922 50.6328 176.086 49.5039 176.414 48.4961C176.75 47.4805 177.227 46.6172 177.844 45.9062C178.469 45.1953 179.215 44.6484 180.082 44.2656C180.949 43.8828 181.918 43.6914 182.988 43.6914C184.41 43.6914 185.609 43.9492 186.586 44.4648C187.57 44.9805 188.332 45.6914 188.871 46.5977C189.418 47.5039 189.746 48.5352 189.855 49.6914H186.34C186.301 49.0039 186.164 48.4219 185.93 47.9453C185.695 47.4609 185.34 47.0977 184.863 46.8555C184.395 46.6055 183.77 46.4805 182.988 46.4805C182.402 46.4805 181.891 46.5898 181.453 46.8086C181.016 47.0273 180.648 47.3594 180.352 47.8047C180.055 48.25 179.832 48.8125 179.684 49.4922C179.543 50.1641 179.473 50.9531 179.473 51.8594V53.0664C179.473 53.9492 179.539 54.7266 179.672 55.3984C179.805 56.0625 180.008 56.625 180.281 57.0859C180.562 57.5391 180.922 57.8828 181.359 58.1172C181.805 58.3438 182.34 58.457 182.965 58.457C183.699 58.457 184.305 58.3398 184.781 58.1055C185.258 57.8711 185.621 57.5234 185.871 57.0625C186.129 56.6016 186.281 56.0273 186.328 55.3398ZM191.391 54.7891V54.543C191.391 53.6133 191.523 52.7578 191.789 51.9766C192.055 51.1875 192.441 50.5039 192.949 49.9258C193.457 49.3477 194.082 48.8984 194.824 48.5781C195.566 48.25 196.418 48.0859 197.379 48.0859C198.34 48.0859 199.195 48.25 199.945 48.5781C200.695 48.8984 201.324 49.3477 201.832 49.9258C202.348 50.5039 202.738 51.1875 203.004 51.9766C203.27 52.7578 203.402 53.6133 203.402 54.543V54.7891C203.402 55.7109 203.27 56.5664 203.004 57.3555C202.738 58.1367 202.348 58.8203 201.832 59.4062C201.324 59.9844 200.699 60.4336 199.957 60.7539C199.215 61.0742 198.363 61.2344 197.402 61.2344C196.441 61.2344 195.586 61.0742 194.836 60.7539C194.094 60.4336 193.465 59.9844 192.949 59.4062C192.441 58.8203 192.055 58.1367 191.789 57.3555C191.523 56.5664 191.391 55.7109 191.391 54.7891ZM194.766 54.543V54.7891C194.766 55.3203 194.812 55.8164 194.906 56.2773C195 56.7383 195.148 57.1445 195.352 57.4961C195.562 57.8398 195.836 58.1094 196.172 58.3047C196.508 58.5 196.918 58.5977 197.402 58.5977C197.871 58.5977 198.273 58.5 198.609 58.3047C198.945 58.1094 199.215 57.8398 199.418 57.4961C199.621 57.1445 199.77 56.7383 199.863 56.2773C199.965 55.8164 200.016 55.3203 200.016 54.7891V54.543C200.016 54.0273 199.965 53.543 199.863 53.0898C199.77 52.6289 199.617 52.2227 199.406 51.8711C199.203 51.5117 198.934 51.2305 198.598 51.0273C198.262 50.8242 197.855 50.7227 197.379 50.7227C196.902 50.7227 196.496 50.8242 196.16 51.0273C195.832 51.2305 195.562 51.5117 195.352 51.8711C195.148 52.2227 195 52.6289 194.906 53.0898C194.812 53.543 194.766 54.0273 194.766 54.543ZM208.781 51.0273V61H205.406V48.3203H208.57L208.781 51.0273ZM208.289 54.2148H207.375C207.375 53.2773 207.496 52.4336 207.738 51.6836C207.98 50.9258 208.32 50.2812 208.758 49.75C209.195 49.2109 209.715 48.8008 210.316 48.5195C210.926 48.2305 211.605 48.0859 212.355 48.0859C212.949 48.0859 213.492 48.1719 213.984 48.3438C214.477 48.5156 214.898 48.7891 215.25 49.1641C215.609 49.5391 215.883 50.0352 216.07 50.6523C216.266 51.2695 216.363 52.0234 216.363 52.9141V61H212.965V52.9023C212.965 52.3398 212.887 51.9023 212.73 51.5898C212.574 51.2773 212.344 51.0586 212.039 50.9336C211.742 50.8008 211.375 50.7344 210.938 50.7344C210.484 50.7344 210.09 50.8242 209.754 51.0039C209.426 51.1836 209.152 51.4336 208.934 51.7539C208.723 52.0664 208.562 52.4336 208.453 52.8555C208.344 53.2773 208.289 53.7305 208.289 54.2148ZM222.234 51.0273V61H218.859V48.3203H222.023L222.234 51.0273ZM221.742 54.2148H220.828C220.828 53.2773 220.949 52.4336 221.191 51.6836C221.434 50.9258 221.773 50.2812 222.211 49.75C222.648 49.2109 223.168 48.8008 223.77 48.5195C224.379 48.2305 225.059 48.0859 225.809 48.0859C226.402 48.0859 226.945 48.1719 227.438 48.3438C227.93 48.5156 228.352 48.7891 228.703 49.1641C229.062 49.5391 229.336 50.0352 229.523 50.6523C229.719 51.2695 229.816 52.0234 229.816 52.9141V61H226.418V52.9023C226.418 52.3398 226.34 51.9023 226.184 51.5898C226.027 51.2773 225.797 51.0586 225.492 50.9336C225.195 50.8008 224.828 50.7344 224.391 50.7344C223.938 50.7344 223.543 50.8242 223.207 51.0039C222.879 51.1836 222.605 51.4336 222.387 51.7539C222.176 52.0664 222.016 52.4336 221.906 52.8555C221.797 53.2773 221.742 53.7305 221.742 54.2148ZM238.219 61.2344C237.234 61.2344 236.352 61.0781 235.57 60.7656C234.789 60.4453 234.125 60.0039 233.578 59.4414C233.039 58.8789 232.625 58.2266 232.336 57.4844C232.047 56.7344 231.902 55.9375 231.902 55.0938V54.625C231.902 53.6641 232.039 52.7852 232.312 51.9883C232.586 51.1914 232.977 50.5 233.484 49.9141C234 49.3281 234.625 48.8789 235.359 48.5664C236.094 48.2461 236.922 48.0859 237.844 48.0859C238.742 48.0859 239.539 48.2344 240.234 48.5312C240.93 48.8281 241.512 49.25 241.98 49.7969C242.457 50.3438 242.816 51 243.059 51.7656C243.301 52.5234 243.422 53.3672 243.422 54.2969V55.7031H233.344V53.4531H240.105V53.1953C240.105 52.7266 240.02 52.3086 239.848 51.9414C239.684 51.5664 239.434 51.2695 239.098 51.0508C238.762 50.832 238.332 50.7227 237.809 50.7227C237.363 50.7227 236.98 50.8203 236.66 51.0156C236.34 51.2109 236.078 51.4844 235.875 51.8359C235.68 52.1875 235.531 52.6016 235.43 53.0781C235.336 53.5469 235.289 54.0625 235.289 54.625V55.0938C235.289 55.6016 235.359 56.0703 235.5 56.5C235.648 56.9297 235.855 57.3008 236.121 57.6133C236.395 57.9258 236.723 58.168 237.105 58.3398C237.496 58.5117 237.938 58.5977 238.43 58.5977C239.039 58.5977 239.605 58.4805 240.129 58.2461C240.66 58.0039 241.117 57.6406 241.5 57.1562L243.141 58.9375C242.875 59.3203 242.512 59.6875 242.051 60.0391C241.598 60.3906 241.051 60.6797 240.41 60.9062C239.77 61.125 239.039 61.2344 238.219 61.2344ZM250.582 58.5977C250.996 58.5977 251.363 58.5195 251.684 58.3633C252.004 58.1992 252.254 57.9727 252.434 57.6836C252.621 57.3867 252.719 57.0391 252.727 56.6406H255.902C255.895 57.5312 255.656 58.3242 255.188 59.0195C254.719 59.707 254.09 60.25 253.301 60.6484C252.512 61.0391 251.629 61.2344 250.652 61.2344C249.668 61.2344 248.809 61.0703 248.074 60.7422C247.348 60.4141 246.742 59.9609 246.258 59.3828C245.773 58.7969 245.41 58.1172 245.168 57.3438C244.926 56.5625 244.805 55.7266 244.805 54.8359V54.4961C244.805 53.5977 244.926 52.7617 245.168 51.9883C245.41 51.207 245.773 50.5273 246.258 49.9492C246.742 49.3633 247.348 48.9062 248.074 48.5781C248.801 48.25 249.652 48.0859 250.629 48.0859C251.668 48.0859 252.578 48.2852 253.359 48.6836C254.148 49.082 254.766 49.6523 255.211 50.3945C255.664 51.1289 255.895 52 255.902 53.0078H252.727C252.719 52.5859 252.629 52.2031 252.457 51.8594C252.293 51.5156 252.051 51.2422 251.73 51.0391C251.418 50.8281 251.031 50.7227 250.57 50.7227C250.078 50.7227 249.676 50.8281 249.363 51.0391C249.051 51.2422 248.809 51.5234 248.637 51.8828C248.465 52.2344 248.344 52.6367 248.273 53.0898C248.211 53.5352 248.18 54.0039 248.18 54.4961V54.8359C248.18 55.3281 248.211 55.8008 248.273 56.2539C248.336 56.707 248.453 57.1094 248.625 57.4609C248.805 57.8125 249.051 58.0898 249.363 58.293C249.676 58.4961 250.082 58.5977 250.582 58.5977ZM264.07 48.3203V50.7109H256.688V48.3203H264.07ZM258.516 45.1914H261.891V57.1797C261.891 57.5469 261.938 57.8281 262.031 58.0234C262.133 58.2188 262.281 58.3555 262.477 58.4336C262.672 58.5039 262.918 58.5391 263.215 58.5391C263.426 58.5391 263.613 58.5312 263.777 58.5156C263.949 58.4922 264.094 58.4688 264.211 58.4453L264.223 60.9297C263.934 61.0234 263.621 61.0977 263.285 61.1523C262.949 61.207 262.578 61.2344 262.172 61.2344C261.43 61.2344 260.781 61.1133 260.227 60.8711C259.68 60.6211 259.258 60.2227 258.961 59.6758C258.664 59.1289 258.516 58.4102 258.516 57.5195V45.1914Z" fill="#888888"/>
<path d="M109.219 107.422H100.734V101.07H109.219C110.375 101.07 111.312 100.875 112.031 100.484C112.75 100.094 113.273 99.5547 113.602 98.8672C113.945 98.1641 114.117 97.375 114.117 96.5C114.117 95.5625 113.945 94.6953 113.602 93.8984C113.273 93.1016 112.75 92.4609 112.031 91.9766C111.312 91.4766 110.375 91.2266 109.219 91.2266H103.828V119H95.6016V84.875H109.219C111.953 84.875 114.305 85.375 116.273 86.375C118.258 87.375 119.781 88.75 120.844 90.5C121.906 92.2344 122.438 94.2188 122.438 96.4531C122.438 98.6562 121.906 100.578 120.844 102.219C119.781 103.859 118.258 105.141 116.273 106.062C114.305 106.969 111.953 107.422 109.219 107.422ZM134.461 99.9219V119H126.562V93.6406H133.945L134.461 99.9219ZM141.961 93.4531L141.82 100.789C141.508 100.758 141.086 100.719 140.555 100.672C140.023 100.625 139.578 100.602 139.219 100.602C138.297 100.602 137.5 100.711 136.828 100.93C136.172 101.133 135.625 101.445 135.188 101.867C134.766 102.273 134.453 102.789 134.25 103.414C134.062 104.039 133.977 104.766 133.992 105.594L132.562 104.656C132.562 102.953 132.727 101.406 133.055 100.016C133.398 98.6094 133.883 97.3984 134.508 96.3828C135.133 95.3516 135.891 94.5625 136.781 94.0156C137.672 93.4531 138.672 93.1719 139.781 93.1719C140.172 93.1719 140.555 93.1953 140.93 93.2422C141.32 93.2891 141.664 93.3594 141.961 93.4531ZM142.852 106.578V106.086C142.852 104.227 143.117 102.516 143.648 100.953C144.18 99.375 144.961 98.0078 145.992 96.8516C147.023 95.6953 148.297 94.7969 149.812 94.1562C151.328 93.5 153.078 93.1719 155.062 93.1719C157.062 93.1719 158.82 93.5 160.336 94.1562C161.867 94.7969 163.148 95.6953 164.18 96.8516C165.211 98.0078 165.992 99.375 166.523 100.953C167.055 102.516 167.32 104.227 167.32 106.086V106.578C167.32 108.422 167.055 110.133 166.523 111.711C165.992 113.273 165.211 114.641 164.18 115.812C163.148 116.969 161.875 117.867 160.359 118.508C158.844 119.148 157.094 119.469 155.109 119.469C153.125 119.469 151.367 119.148 149.836 118.508C148.305 117.867 147.023 116.969 145.992 115.812C144.961 114.641 144.18 113.273 143.648 111.711C143.117 110.133 142.852 108.422 142.852 106.578ZM150.75 106.086V106.578C150.75 107.531 150.82 108.422 150.961 109.25C151.102 110.078 151.336 110.805 151.664 111.43C151.992 112.039 152.438 112.516 153 112.859C153.562 113.203 154.266 113.375 155.109 113.375C155.938 113.375 156.625 113.203 157.172 112.859C157.734 112.516 158.18 112.039 158.508 111.43C158.836 110.805 159.07 110.078 159.211 109.25C159.352 108.422 159.422 107.531 159.422 106.578V106.086C159.422 105.164 159.352 104.297 159.211 103.484C159.07 102.656 158.836 101.93 158.508 101.305C158.18 100.664 157.734 100.164 157.172 99.8047C156.609 99.4453 155.906 99.2656 155.062 99.2656C154.234 99.2656 153.539 99.4453 152.977 99.8047C152.43 100.164 151.992 100.664 151.664 101.305C151.336 101.93 151.102 102.656 150.961 103.484C150.82 104.297 150.75 105.164 150.75 106.086ZM184.195 93.6406V99.125H168.914V93.6406H184.195ZM172.125 87.3359H180.023V110.727C180.023 111.398 180.102 111.922 180.258 112.297C180.414 112.656 180.68 112.914 181.055 113.07C181.445 113.211 181.961 113.281 182.602 113.281C183.055 113.281 183.43 113.273 183.727 113.258C184.023 113.227 184.305 113.188 184.57 113.141V118.789C183.898 119.008 183.195 119.172 182.461 119.281C181.727 119.406 180.945 119.469 180.117 119.469C178.43 119.469 176.984 119.203 175.781 118.672C174.594 118.141 173.688 117.305 173.062 116.164C172.438 115.023 172.125 113.539 172.125 111.711V87.3359ZM185.648 106.578V106.086C185.648 104.227 185.914 102.516 186.445 100.953C186.977 99.375 187.758 98.0078 188.789 96.8516C189.82 95.6953 191.094 94.7969 192.609 94.1562C194.125 93.5 195.875 93.1719 197.859 93.1719C199.859 93.1719 201.617 93.5 203.133 94.1562C204.664 94.7969 205.945 95.6953 206.977 96.8516C208.008 98.0078 208.789 99.375 209.32 100.953C209.852 102.516 210.117 104.227 210.117 106.086V106.578C210.117 108.422 209.852 110.133 209.32 111.711C208.789 113.273 208.008 114.641 206.977 115.812C205.945 116.969 204.672 117.867 203.156 118.508C201.641 119.148 199.891 119.469 197.906 119.469C195.922 119.469 194.164 119.148 192.633 118.508C191.102 117.867 189.82 116.969 188.789 115.812C187.758 114.641 186.977 113.273 186.445 111.711C185.914 110.133 185.648 108.422 185.648 106.578ZM193.547 106.086V106.578C193.547 107.531 193.617 108.422 193.758 109.25C193.898 110.078 194.133 110.805 194.461 111.43C194.789 112.039 195.234 112.516 195.797 112.859C196.359 113.203 197.062 113.375 197.906 113.375C198.734 113.375 199.422 113.203 199.969 112.859C200.531 112.516 200.977 112.039 201.305 111.43C201.633 110.805 201.867 110.078 202.008 109.25C202.148 108.422 202.219 107.531 202.219 106.578V106.086C202.219 105.164 202.148 104.297 202.008 103.484C201.867 102.656 201.633 101.93 201.305 101.305C200.977 100.664 200.531 100.164 199.969 99.8047C199.406 99.4453 198.703 99.2656 197.859 99.2656C197.031 99.2656 196.336 99.4453 195.773 99.8047C195.227 100.164 194.789 100.664 194.461 101.305C194.133 101.93 193.898 102.656 193.758 103.484C193.617 104.297 193.547 105.164 193.547 106.086ZM226.992 93.6406V99.125H211.711V93.6406H226.992ZM214.922 87.3359H222.82V110.727C222.82 111.398 222.898 111.922 223.055 112.297C223.211 112.656 223.477 112.914 223.852 113.07C224.242 113.211 224.758 113.281 225.398 113.281C225.852 113.281 226.227 113.273 226.523 113.258C226.82 113.227 227.102 113.188 227.367 113.141V118.789C226.695 119.008 225.992 119.172 225.258 119.281C224.523 119.406 223.742 119.469 222.914 119.469C221.227 119.469 219.781 119.203 218.578 118.672C217.391 118.141 216.484 117.305 215.859 116.164C215.234 115.023 214.922 113.539 214.922 111.711V87.3359ZM237.914 116.023L244.477 93.6406H252.961L242.766 122.773C242.547 123.414 242.258 124.102 241.898 124.836C241.539 125.586 241.047 126.297 240.422 126.969C239.797 127.641 238.992 128.188 238.008 128.609C237.039 129.031 235.836 129.242 234.398 129.242C233.633 129.242 233.07 129.203 232.711 129.125C232.367 129.062 231.836 128.945 231.117 128.773V123.125C231.32 123.125 231.492 123.125 231.633 123.125C231.789 123.125 231.961 123.125 232.148 123.125C232.992 123.125 233.664 123.039 234.164 122.867C234.68 122.695 235.07 122.445 235.336 122.117C235.617 121.789 235.836 121.391 235.992 120.922L237.914 116.023ZM236.25 93.6406L241.242 111.383L242.109 119.75H236.812L227.789 93.6406H236.25ZM262.992 98.5156V128.75H255.094V93.6406H262.453L262.992 98.5156ZM278.555 106.016V106.508C278.555 108.352 278.344 110.062 277.922 111.641C277.5 113.219 276.875 114.594 276.047 115.766C275.219 116.938 274.188 117.852 272.953 118.508C271.734 119.148 270.32 119.469 268.711 119.469C267.195 119.469 265.891 119.133 264.797 118.461C263.703 117.789 262.789 116.859 262.055 115.672C261.32 114.484 260.727 113.125 260.273 111.594C259.82 110.062 259.461 108.445 259.195 106.742V106.109C259.461 104.281 259.82 102.586 260.273 101.023C260.727 99.4453 261.32 98.0703 262.055 96.8984C262.789 95.7266 263.695 94.8125 264.773 94.1562C265.867 93.5 267.172 93.1719 268.688 93.1719C270.297 93.1719 271.711 93.4766 272.93 94.0859C274.164 94.6953 275.195 95.5703 276.023 96.7109C276.867 97.8359 277.5 99.1875 277.922 100.766C278.344 102.344 278.555 104.094 278.555 106.016ZM270.656 106.508V106.016C270.656 105.031 270.586 104.133 270.445 103.32C270.305 102.492 270.078 101.773 269.766 101.164C269.469 100.555 269.07 100.086 268.57 99.7578C268.07 99.4297 267.453 99.2656 266.719 99.2656C265.875 99.2656 265.164 99.3984 264.586 99.6641C264.023 99.9141 263.57 100.305 263.227 100.836C262.898 101.352 262.664 102 262.523 102.781C262.398 103.547 262.344 104.445 262.359 105.477V107.398C262.328 108.586 262.445 109.633 262.711 110.539C262.977 111.43 263.438 112.125 264.094 112.625C264.75 113.125 265.641 113.375 266.766 113.375C267.516 113.375 268.141 113.203 268.641 112.859C269.141 112.5 269.539 112.008 269.836 111.383C270.133 110.742 270.344 110.008 270.469 109.18C270.594 108.352 270.656 107.461 270.656 106.508ZM290.414 93.6406V119H282.492V93.6406H290.414ZM282.023 87.1016C282.023 85.9766 282.43 85.0547 283.242 84.3359C284.055 83.6172 285.109 83.2578 286.406 83.2578C287.703 83.2578 288.758 83.6172 289.57 84.3359C290.383 85.0547 290.789 85.9766 290.789 87.1016C290.789 88.2266 290.383 89.1484 289.57 89.8672C288.758 90.5859 287.703 90.9453 286.406 90.9453C285.109 90.9453 284.055 90.5859 283.242 89.8672C282.43 89.1484 282.023 88.2266 282.023 87.1016ZM303.047 99.0547V119H295.148V93.6406H302.555L303.047 99.0547ZM302.109 105.453L300.258 105.5C300.258 103.562 300.492 101.836 300.961 100.32C301.43 98.7891 302.094 97.4922 302.953 96.4297C303.812 95.3672 304.836 94.5625 306.023 94.0156C307.227 93.4531 308.562 93.1719 310.031 93.1719C311.203 93.1719 312.273 93.3438 313.242 93.6875C314.227 94.0312 315.07 94.5859 315.773 95.3516C316.492 96.1172 317.039 97.1328 317.414 98.3984C317.805 99.6484 318 101.195 318 103.039V119H310.055V103.016C310.055 102 309.914 101.227 309.633 100.695C309.352 100.148 308.945 99.7734 308.414 99.5703C307.883 99.3672 307.234 99.2656 306.469 99.2656C305.656 99.2656 304.969 99.4219 304.406 99.7344C303.844 100.047 303.391 100.484 303.047 101.047C302.719 101.594 302.477 102.242 302.32 102.992C302.18 103.742 302.109 104.562 302.109 105.453ZM338.32 93.6406H345.492V118.016C345.492 120.359 344.953 122.344 343.875 123.969C342.797 125.609 341.289 126.852 339.352 127.695C337.43 128.555 335.18 128.984 332.602 128.984C331.461 128.984 330.297 128.836 329.109 128.539C327.922 128.258 326.812 127.836 325.781 127.273C324.75 126.711 323.883 126.016 323.18 125.188L326.484 120.547C327.125 121.266 327.93 121.875 328.898 122.375C329.867 122.891 331.008 123.148 332.32 123.148C333.461 123.148 334.414 122.945 335.18 122.539C335.961 122.133 336.555 121.539 336.961 120.758C337.367 119.992 337.57 119.062 337.57 117.969V99.6406L338.32 93.6406ZM321.469 106.625V106.133C321.469 104.211 321.703 102.461 322.172 100.883C322.656 99.2891 323.344 97.9219 324.234 96.7812C325.141 95.625 326.234 94.7344 327.516 94.1094C328.797 93.4844 330.242 93.1719 331.852 93.1719C333.586 93.1719 335.008 93.5078 336.117 94.1797C337.242 94.8359 338.141 95.7578 338.812 96.9453C339.5 98.1328 340.031 99.5234 340.406 101.117C340.797 102.695 341.125 104.398 341.391 106.227V106.812C341.125 108.531 340.758 110.156 340.289 111.688C339.836 113.203 339.242 114.547 338.508 115.719C337.773 116.891 336.852 117.812 335.742 118.484C334.648 119.141 333.336 119.469 331.805 119.469C330.211 119.469 328.773 119.148 327.492 118.508C326.227 117.867 325.141 116.969 324.234 115.812C323.344 114.656 322.656 113.297 322.172 111.734C321.703 110.172 321.469 108.469 321.469 106.625ZM329.367 106.133V106.625C329.367 107.578 329.453 108.461 329.625 109.273C329.812 110.086 330.094 110.805 330.469 111.43C330.844 112.039 331.305 112.516 331.852 112.859C332.414 113.203 333.07 113.375 333.82 113.375C334.961 113.375 335.883 113.133 336.586 112.648C337.289 112.164 337.797 111.477 338.109 110.586C338.422 109.695 338.555 108.648 338.508 107.445V105.594C338.539 104.562 338.469 103.656 338.297 102.875C338.125 102.078 337.852 101.414 337.477 100.883C337.117 100.352 336.633 99.9531 336.023 99.6875C335.43 99.4062 334.711 99.2656 333.867 99.2656C333.133 99.2656 332.484 99.4375 331.922 99.7812C331.359 100.125 330.891 100.609 330.516 101.234C330.141 101.844 329.852 102.57 329.648 103.414C329.461 104.242 329.367 105.148 329.367 106.133Z" fill="black"/>
<path d="M1134 0H1348C1356.28 0 1363 6.71573 1363 15V148C1363 156.284 1356.28 163 1348 163H1134V0Z" fill="#DE374B"/>
<path fill-rule="evenodd" clip-rule="evenodd" d="M1202.75 46.5018C1202.75 45.3973 1203.65 44.5018 1204.75 44.5018H1292.25C1293.35 44.5018 1294.25 45.3973 1294.25 46.5018V116.498C1294.25 117.603 1293.35 118.498 1292.25 118.498H1204.75C1203.65 118.498 1202.75 117.603 1202.75 116.498V46.5018ZM1206.75 48.5018V52.9963H1290.25V48.5018H1206.75ZM1290.25 56.9963H1235.19V114.498H1290.25V56.9963ZM1231.19 114.498V56.9963H1206.75V114.498H1231.19Z" fill="white"/>
<path fill-rule="evenodd" clip-rule="evenodd" d="M1209.72 62.3022C1209.72 61.1976 1210.62 60.3022 1211.72 60.3022H1225.72C1226.83 60.3022 1227.72 61.1976 1227.72 62.3022V81.6974C1227.72 82.802 1226.83 83.6974 1225.72 83.6974H1211.72C1210.62 83.6974 1209.72 82.802 1209.72 81.6974V62.3022ZM1213.72 64.3022V79.6974H1223.72V64.3022H1213.72ZM1239.33 63.1982C1239.33 62.0936 1240.22 61.1982 1241.33 61.1982H1284.25C1285.36 61.1982 1286.25 62.0936 1286.25 63.1982V109.407C1286.25 110.511 1285.36 111.407 1284.25 111.407H1241.33C1240.22 111.407 1239.33 110.511 1239.33 109.407V63.1982ZM1243.33 65.1982V107.407H1282.25V65.1982H1243.33ZM1209.56 93.4381C1209.56 92.3336 1210.46 91.4381 1211.56 91.4381H1220.48C1221.59 91.4381 1222.48 92.3336 1222.48 93.4381C1222.48 94.5427 1221.59 95.4381 1220.48 95.4381H1211.56C1210.46 95.4381 1209.56 94.5427 1209.56 93.4381ZM1209.56 100.438C1209.56 99.3335 1210.46 98.4381 1211.56 98.4381H1226.1C1227.21 98.4381 1228.1 99.3335 1228.1 100.438C1228.1 101.543 1227.21 102.438 1226.1 102.438H1211.56C1210.46 102.438 1209.56 101.543 1209.56 100.438ZM1209.56 107.438C1209.56 106.334 1210.46 105.438 1211.56 105.438H1220.48C1221.59 105.438 1222.48 106.334 1222.48 107.438C1222.48 108.543 1221.59 109.438 1220.48 109.438H1211.56C1210.46 109.438 1209.56 108.543 1209.56 107.438Z" fill="white"/>
</svg>
