<svg width="1363" height="163" viewBox="0 0 1363 163" fill="none" xmlns="http://www.w3.org/2000/svg">
<path d="M0 15C0 6.71573 6.71573 0 15 0H37V163H15C6.71573 163 0 156.284 0 148V15Z" fill="#DE374B"/>
<rect width="1097" height="163" transform="translate(37)" fill="#F0F0F0"/>
<path d="M101.906 53.9219L94.3945 51.2383V48.0859L104.602 52.375V54.6367L101.906 53.9219ZM94.3945 56.1719L101.918 53.4297L104.602 52.7852V55.0352L94.3945 59.3242V56.1719ZM124.277 50.8867V53.6289H115.371V50.8867H124.277ZM116.414 43.9375V61H112.898V43.9375H116.414ZM126.785 43.9375V61H123.281V43.9375H126.785ZM135.469 61.2344C134.484 61.2344 133.602 61.0781 132.82 60.7656C132.039 60.4453 131.375 60.0039 130.828 59.4414C130.289 58.8789 129.875 58.2266 129.586 57.4844C129.297 56.7344 129.152 55.9375 129.152 55.0938V54.625C129.152 53.6641 129.289 52.7852 129.562 51.9883C129.836 51.1914 130.227 50.5 130.734 49.9141C131.25 49.3281 131.875 48.8789 132.609 48.5664C133.344 48.2461 134.172 48.0859 135.094 48.0859C135.992 48.0859 136.789 48.2344 137.484 48.5312C138.18 48.8281 138.762 49.25 139.23 49.7969C139.707 50.3438 140.066 51 140.309 51.7656C140.551 52.5234 140.672 53.3672 140.672 54.2969V55.7031H130.594V53.4531H137.355V53.1953C137.355 52.7266 137.27 52.3086 137.098 51.9414C136.934 51.5664 136.684 51.2695 136.348 51.0508C136.012 50.832 135.582 50.7227 135.059 50.7227C134.613 50.7227 134.23 50.8203 133.91 51.0156C133.59 51.2109 133.328 51.4844 133.125 51.8359C132.93 52.1875 132.781 52.6016 132.68 53.0781C132.586 53.5469 132.539 54.0625 132.539 54.625V55.0938C132.539 55.6016 132.609 56.0703 132.75 56.5C132.898 56.9297 133.105 57.3008 133.371 57.6133C133.645 57.9258 133.973 58.168 134.355 58.3398C134.746 58.5117 135.188 58.5977 135.68 58.5977C136.289 58.5977 136.855 58.4805 137.379 58.2461C137.91 58.0039 138.367 57.6406 138.75 57.1562L140.391 58.9375C140.125 59.3203 139.762 59.6875 139.301 60.0391C138.848 60.3906 138.301 60.6797 137.66 60.9062C137.02 61.125 136.289 61.2344 135.469 61.2344ZM145.969 50.9453V61H142.582V48.3203H145.758L145.969 50.9453ZM145.5 54.2148H144.562C144.562 53.332 144.668 52.5195 144.879 51.7773C145.098 51.0273 145.414 50.3789 145.828 49.832C146.25 49.2773 146.77 48.8477 147.387 48.543C148.004 48.2383 148.719 48.0859 149.531 48.0859C150.094 48.0859 150.609 48.1719 151.078 48.3438C151.547 48.5078 151.949 48.7695 152.285 49.1289C152.629 49.4805 152.895 49.9414 153.082 50.5117C153.27 51.0742 153.363 51.75 153.363 52.5391V61H149.988V52.9141C149.988 52.3359 149.91 51.8906 149.754 51.5781C149.598 51.2656 149.375 51.0469 149.086 50.9219C148.805 50.7969 148.465 50.7344 148.066 50.7344C147.629 50.7344 147.246 50.8242 146.918 51.0039C146.598 51.1836 146.332 51.4336 146.121 51.7539C145.91 52.0664 145.754 52.4336 145.652 52.8555C145.551 53.2773 145.5 53.7305 145.5 54.2148ZM153.047 53.8281L151.84 53.9805C151.84 53.1523 151.941 52.3828 152.145 51.6719C152.355 50.9609 152.664 50.3359 153.07 49.7969C153.484 49.2578 153.996 48.8398 154.605 48.543C155.215 48.2383 155.918 48.0859 156.715 48.0859C157.324 48.0859 157.879 48.1758 158.379 48.3555C158.879 48.5273 159.305 48.8047 159.656 49.1875C160.016 49.5625 160.289 50.0547 160.477 50.6641C160.672 51.2734 160.77 52.0195 160.77 52.9023V61H157.383V52.9023C157.383 52.3164 157.305 51.8711 157.148 51.5664C157 51.2539 156.781 51.0391 156.492 50.9219C156.211 50.7969 155.875 50.7344 155.484 50.7344C155.078 50.7344 154.723 50.8164 154.418 50.9805C154.113 51.1367 153.859 51.3555 153.656 51.6367C153.453 51.918 153.301 52.2461 153.199 52.6211C153.098 52.9883 153.047 53.3906 153.047 53.8281ZM170.227 58.1406V52.4922C170.227 52.0859 170.16 51.7383 170.027 51.4492C169.895 51.1523 169.688 50.9219 169.406 50.7578C169.133 50.5938 168.777 50.5117 168.34 50.5117C167.965 50.5117 167.641 50.5781 167.367 50.7109C167.094 50.8359 166.883 51.0195 166.734 51.2617C166.586 51.4961 166.512 51.7734 166.512 52.0938H163.137C163.137 51.5547 163.262 51.043 163.512 50.5586C163.762 50.0742 164.125 49.6484 164.602 49.2812C165.078 48.9062 165.645 48.6133 166.301 48.4023C166.965 48.1914 167.707 48.0859 168.527 48.0859C169.512 48.0859 170.387 48.25 171.152 48.5781C171.918 48.9062 172.52 49.3984 172.957 50.0547C173.402 50.7109 173.625 51.5312 173.625 52.5156V57.9414C173.625 58.6367 173.668 59.207 173.754 59.6523C173.84 60.0898 173.965 60.4727 174.129 60.8008V61H170.719C170.555 60.6562 170.43 60.2266 170.344 59.7109C170.266 59.1875 170.227 58.6641 170.227 58.1406ZM170.672 53.2773L170.695 55.1875H168.809C168.363 55.1875 167.977 55.2383 167.648 55.3398C167.32 55.4414 167.051 55.5859 166.84 55.7734C166.629 55.9531 166.473 56.1641 166.371 56.4062C166.277 56.6484 166.23 56.9141 166.23 57.2031C166.23 57.4922 166.297 57.7539 166.43 57.9883C166.562 58.2148 166.754 58.3945 167.004 58.5273C167.254 58.6523 167.547 58.7148 167.883 58.7148C168.391 58.7148 168.832 58.6133 169.207 58.4102C169.582 58.207 169.871 57.957 170.074 57.6602C170.285 57.3633 170.395 57.082 170.402 56.8164L171.293 58.2461C171.168 58.5664 170.996 58.8984 170.777 59.2422C170.566 59.5859 170.297 59.9102 169.969 60.2148C169.641 60.5117 169.246 60.7578 168.785 60.9531C168.324 61.1406 167.777 61.2344 167.145 61.2344C166.34 61.2344 165.609 61.0742 164.953 60.7539C164.305 60.4258 163.789 59.9766 163.406 59.4062C163.031 58.8281 162.844 58.1719 162.844 57.4375C162.844 56.7734 162.969 56.1836 163.219 55.668C163.469 55.1523 163.836 54.7188 164.32 54.3672C164.812 54.0078 165.426 53.7383 166.16 53.5586C166.895 53.3711 167.746 53.2773 168.715 53.2773H170.672ZM186.328 55.3398H189.832C189.762 56.4883 189.445 57.5078 188.883 58.3984C188.328 59.2891 187.551 59.9844 186.551 60.4844C185.559 60.9844 184.363 61.2344 182.965 61.2344C181.871 61.2344 180.891 61.0469 180.023 60.6719C179.156 60.2891 178.414 59.7422 177.797 59.0312C177.188 58.3203 176.723 57.4609 176.402 56.4531C176.082 55.4453 175.922 54.3164 175.922 53.0664V51.8828C175.922 50.6328 176.086 49.5039 176.414 48.4961C176.75 47.4805 177.227 46.6172 177.844 45.9062C178.469 45.1953 179.215 44.6484 180.082 44.2656C180.949 43.8828 181.918 43.6914 182.988 43.6914C184.41 43.6914 185.609 43.9492 186.586 44.4648C187.57 44.9805 188.332 45.6914 188.871 46.5977C189.418 47.5039 189.746 48.5352 189.855 49.6914H186.34C186.301 49.0039 186.164 48.4219 185.93 47.9453C185.695 47.4609 185.34 47.0977 184.863 46.8555C184.395 46.6055 183.77 46.4805 182.988 46.4805C182.402 46.4805 181.891 46.5898 181.453 46.8086C181.016 47.0273 180.648 47.3594 180.352 47.8047C180.055 48.25 179.832 48.8125 179.684 49.4922C179.543 50.1641 179.473 50.9531 179.473 51.8594V53.0664C179.473 53.9492 179.539 54.7266 179.672 55.3984C179.805 56.0625 180.008 56.625 180.281 57.0859C180.562 57.5391 180.922 57.8828 181.359 58.1172C181.805 58.3438 182.34 58.457 182.965 58.457C183.699 58.457 184.305 58.3398 184.781 58.1055C185.258 57.8711 185.621 57.5234 185.871 57.0625C186.129 56.6016 186.281 56.0273 186.328 55.3398ZM191.391 54.7891V54.543C191.391 53.6133 191.523 52.7578 191.789 51.9766C192.055 51.1875 192.441 50.5039 192.949 49.9258C193.457 49.3477 194.082 48.8984 194.824 48.5781C195.566 48.25 196.418 48.0859 197.379 48.0859C198.34 48.0859 199.195 48.25 199.945 48.5781C200.695 48.8984 201.324 49.3477 201.832 49.9258C202.348 50.5039 202.738 51.1875 203.004 51.9766C203.27 52.7578 203.402 53.6133 203.402 54.543V54.7891C203.402 55.7109 203.27 56.5664 203.004 57.3555C202.738 58.1367 202.348 58.8203 201.832 59.4062C201.324 59.9844 200.699 60.4336 199.957 60.7539C199.215 61.0742 198.363 61.2344 197.402 61.2344C196.441 61.2344 195.586 61.0742 194.836 60.7539C194.094 60.4336 193.465 59.9844 192.949 59.4062C192.441 58.8203 192.055 58.1367 191.789 57.3555C191.523 56.5664 191.391 55.7109 191.391 54.7891ZM194.766 54.543V54.7891C194.766 55.3203 194.812 55.8164 194.906 56.2773C195 56.7383 195.148 57.1445 195.352 57.4961C195.562 57.8398 195.836 58.1094 196.172 58.3047C196.508 58.5 196.918 58.5977 197.402 58.5977C197.871 58.5977 198.273 58.5 198.609 58.3047C198.945 58.1094 199.215 57.8398 199.418 57.4961C199.621 57.1445 199.77 56.7383 199.863 56.2773C199.965 55.8164 200.016 55.3203 200.016 54.7891V54.543C200.016 54.0273 199.965 53.543 199.863 53.0898C199.77 52.6289 199.617 52.2227 199.406 51.8711C199.203 51.5117 198.934 51.2305 198.598 51.0273C198.262 50.8242 197.855 50.7227 197.379 50.7227C196.902 50.7227 196.496 50.8242 196.16 51.0273C195.832 51.2305 195.562 51.5117 195.352 51.8711C195.148 52.2227 195 52.6289 194.906 53.0898C194.812 53.543 194.766 54.0273 194.766 54.543ZM208.781 51.0273V61H205.406V48.3203H208.57L208.781 51.0273ZM208.289 54.2148H207.375C207.375 53.2773 207.496 52.4336 207.738 51.6836C207.98 50.9258 208.32 50.2812 208.758 49.75C209.195 49.2109 209.715 48.8008 210.316 48.5195C210.926 48.2305 211.605 48.0859 212.355 48.0859C212.949 48.0859 213.492 48.1719 213.984 48.3438C214.477 48.5156 214.898 48.7891 215.25 49.1641C215.609 49.5391 215.883 50.0352 216.07 50.6523C216.266 51.2695 216.363 52.0234 216.363 52.9141V61H212.965V52.9023C212.965 52.3398 212.887 51.9023 212.73 51.5898C212.574 51.2773 212.344 51.0586 212.039 50.9336C211.742 50.8008 211.375 50.7344 210.938 50.7344C210.484 50.7344 210.09 50.8242 209.754 51.0039C209.426 51.1836 209.152 51.4336 208.934 51.7539C208.723 52.0664 208.562 52.4336 208.453 52.8555C208.344 53.2773 208.289 53.7305 208.289 54.2148ZM222.234 51.0273V61H218.859V48.3203H222.023L222.234 51.0273ZM221.742 54.2148H220.828C220.828 53.2773 220.949 52.4336 221.191 51.6836C221.434 50.9258 221.773 50.2812 222.211 49.75C222.648 49.2109 223.168 48.8008 223.77 48.5195C224.379 48.2305 225.059 48.0859 225.809 48.0859C226.402 48.0859 226.945 48.1719 227.438 48.3438C227.93 48.5156 228.352 48.7891 228.703 49.1641C229.062 49.5391 229.336 50.0352 229.523 50.6523C229.719 51.2695 229.816 52.0234 229.816 52.9141V61H226.418V52.9023C226.418 52.3398 226.34 51.9023 226.184 51.5898C226.027 51.2773 225.797 51.0586 225.492 50.9336C225.195 50.8008 224.828 50.7344 224.391 50.7344C223.938 50.7344 223.543 50.8242 223.207 51.0039C222.879 51.1836 222.605 51.4336 222.387 51.7539C222.176 52.0664 222.016 52.4336 221.906 52.8555C221.797 53.2773 221.742 53.7305 221.742 54.2148ZM238.219 61.2344C237.234 61.2344 236.352 61.0781 235.57 60.7656C234.789 60.4453 234.125 60.0039 233.578 59.4414C233.039 58.8789 232.625 58.2266 232.336 57.4844C232.047 56.7344 231.902 55.9375 231.902 55.0938V54.625C231.902 53.6641 232.039 52.7852 232.312 51.9883C232.586 51.1914 232.977 50.5 233.484 49.9141C234 49.3281 234.625 48.8789 235.359 48.5664C236.094 48.2461 236.922 48.0859 237.844 48.0859C238.742 48.0859 239.539 48.2344 240.234 48.5312C240.93 48.8281 241.512 49.25 241.98 49.7969C242.457 50.3438 242.816 51 243.059 51.7656C243.301 52.5234 243.422 53.3672 243.422 54.2969V55.7031H233.344V53.4531H240.105V53.1953C240.105 52.7266 240.02 52.3086 239.848 51.9414C239.684 51.5664 239.434 51.2695 239.098 51.0508C238.762 50.832 238.332 50.7227 237.809 50.7227C237.363 50.7227 236.98 50.8203 236.66 51.0156C236.34 51.2109 236.078 51.4844 235.875 51.8359C235.68 52.1875 235.531 52.6016 235.43 53.0781C235.336 53.5469 235.289 54.0625 235.289 54.625V55.0938C235.289 55.6016 235.359 56.0703 235.5 56.5C235.648 56.9297 235.855 57.3008 236.121 57.6133C236.395 57.9258 236.723 58.168 237.105 58.3398C237.496 58.5117 237.938 58.5977 238.43 58.5977C239.039 58.5977 239.605 58.4805 240.129 58.2461C240.66 58.0039 241.117 57.6406 241.5 57.1562L243.141 58.9375C242.875 59.3203 242.512 59.6875 242.051 60.0391C241.598 60.3906 241.051 60.6797 240.41 60.9062C239.77 61.125 239.039 61.2344 238.219 61.2344ZM250.582 58.5977C250.996 58.5977 251.363 58.5195 251.684 58.3633C252.004 58.1992 252.254 57.9727 252.434 57.6836C252.621 57.3867 252.719 57.0391 252.727 56.6406H255.902C255.895 57.5312 255.656 58.3242 255.188 59.0195C254.719 59.707 254.09 60.25 253.301 60.6484C252.512 61.0391 251.629 61.2344 250.652 61.2344C249.668 61.2344 248.809 61.0703 248.074 60.7422C247.348 60.4141 246.742 59.9609 246.258 59.3828C245.773 58.7969 245.41 58.1172 245.168 57.3438C244.926 56.5625 244.805 55.7266 244.805 54.8359V54.4961C244.805 53.5977 244.926 52.7617 245.168 51.9883C245.41 51.207 245.773 50.5273 246.258 49.9492C246.742 49.3633 247.348 48.9062 248.074 48.5781C248.801 48.25 249.652 48.0859 250.629 48.0859C251.668 48.0859 252.578 48.2852 253.359 48.6836C254.148 49.082 254.766 49.6523 255.211 50.3945C255.664 51.1289 255.895 52 255.902 53.0078H252.727C252.719 52.5859 252.629 52.2031 252.457 51.8594C252.293 51.5156 252.051 51.2422 251.73 51.0391C251.418 50.8281 251.031 50.7227 250.57 50.7227C250.078 50.7227 249.676 50.8281 249.363 51.0391C249.051 51.2422 248.809 51.5234 248.637 51.8828C248.465 52.2344 248.344 52.6367 248.273 53.0898C248.211 53.5352 248.18 54.0039 248.18 54.4961V54.8359C248.18 55.3281 248.211 55.8008 248.273 56.2539C248.336 56.707 248.453 57.1094 248.625 57.4609C248.805 57.8125 249.051 58.0898 249.363 58.293C249.676 58.4961 250.082 58.5977 250.582 58.5977ZM264.07 48.3203V50.7109H256.688V48.3203H264.07ZM258.516 45.1914H261.891V57.1797C261.891 57.5469 261.938 57.8281 262.031 58.0234C262.133 58.2188 262.281 58.3555 262.477 58.4336C262.672 58.5039 262.918 58.5391 263.215 58.5391C263.426 58.5391 263.613 58.5312 263.777 58.5156C263.949 58.4922 264.094 58.4688 264.211 58.4453L264.223 60.9297C263.934 61.0234 263.621 61.0977 263.285 61.1523C262.949 61.207 262.578 61.2344 262.172 61.2344C261.43 61.2344 260.781 61.1133 260.227 60.8711C259.68 60.6211 259.258 60.2227 258.961 59.6758C258.664 59.1289 258.516 58.4102 258.516 57.5195V45.1914Z" fill="#888888"/>
<path d="M112.125 84.875V119H103.898V84.875H112.125ZM122.391 84.875V91.2266H93.8672V84.875H122.391ZM135.68 119.469C133.617 119.469 131.773 119.148 130.148 118.508C128.523 117.852 127.148 116.953 126.023 115.812C124.914 114.672 124.062 113.359 123.469 111.875C122.891 110.391 122.602 108.82 122.602 107.164V106.273C122.602 104.414 122.859 102.695 123.375 101.117C123.891 99.5234 124.656 98.1328 125.672 96.9453C126.688 95.7578 127.961 94.8359 129.492 94.1797C131.023 93.5078 132.805 93.1719 134.836 93.1719C136.633 93.1719 138.242 93.4609 139.664 94.0391C141.086 94.6172 142.289 95.4453 143.273 96.5234C144.273 97.6016 145.031 98.9062 145.547 100.438C146.078 101.969 146.344 103.688 146.344 105.594V108.805H125.625V103.859H138.633V103.25C138.648 102.406 138.5 101.688 138.188 101.094C137.891 100.5 137.453 100.047 136.875 99.7344C136.297 99.4219 135.594 99.2656 134.766 99.2656C133.906 99.2656 133.195 99.4531 132.633 99.8281C132.086 100.203 131.656 100.719 131.344 101.375C131.047 102.016 130.836 102.758 130.711 103.602C130.586 104.445 130.523 105.336 130.523 106.273V107.164C130.523 108.102 130.648 108.953 130.898 109.719C131.164 110.484 131.539 111.141 132.023 111.688C132.523 112.219 133.117 112.633 133.805 112.93C134.508 113.227 135.305 113.375 136.195 113.375C137.273 113.375 138.336 113.172 139.383 112.766C140.43 112.359 141.328 111.688 142.078 110.75L145.664 115.016C145.148 115.75 144.414 116.461 143.461 117.148C142.523 117.836 141.398 118.398 140.086 118.836C138.773 119.258 137.305 119.469 135.68 119.469ZM160.266 113.375C161 113.375 161.625 113.242 162.141 112.977C162.672 112.695 163.07 112.305 163.336 111.805C163.617 111.289 163.75 110.672 163.734 109.953H171.164C171.18 111.859 170.711 113.531 169.758 114.969C168.82 116.391 167.539 117.5 165.914 118.297C164.305 119.078 162.484 119.469 160.453 119.469C158.469 119.469 156.734 119.148 155.25 118.508C153.766 117.852 152.523 116.945 151.523 115.789C150.539 114.617 149.797 113.25 149.297 111.688C148.812 110.125 148.57 108.43 148.57 106.602V106.062C148.57 104.234 148.812 102.539 149.297 100.977C149.797 99.3984 150.539 98.0312 151.523 96.875C152.523 95.7031 153.758 94.7969 155.227 94.1562C156.711 93.5 158.438 93.1719 160.406 93.1719C162.516 93.1719 164.375 93.5703 165.984 94.3672C167.609 95.1641 168.883 96.3203 169.805 97.8359C170.727 99.3516 171.18 101.188 171.164 103.344H163.734C163.75 102.578 163.633 101.891 163.383 101.281C163.133 100.672 162.742 100.188 162.211 99.8281C161.695 99.4531 161.031 99.2656 160.219 99.2656C159.406 99.2656 158.75 99.4453 158.25 99.8047C157.75 100.164 157.367 100.664 157.102 101.305C156.852 101.93 156.68 102.648 156.586 103.461C156.508 104.273 156.469 105.141 156.469 106.062V106.602C156.469 107.539 156.508 108.422 156.586 109.25C156.68 110.062 156.859 110.781 157.125 111.406C157.391 112.016 157.773 112.5 158.273 112.859C158.773 113.203 159.438 113.375 160.266 113.375ZM182.273 83V119H174.375V83H182.273ZM181.336 105.453L179.484 105.5C179.484 103.719 179.703 102.078 180.141 100.578C180.578 99.0781 181.203 97.7734 182.016 96.6641C182.828 95.5547 183.805 94.6953 184.945 94.0859C186.086 93.4766 187.352 93.1719 188.742 93.1719C189.992 93.1719 191.133 93.3516 192.164 93.7109C193.211 94.0703 194.109 94.6484 194.859 95.4453C195.625 96.2422 196.211 97.2812 196.617 98.5625C197.039 99.8438 197.25 101.406 197.25 103.25V119H189.305V103.203C189.305 102.172 189.156 101.375 188.859 100.812C188.578 100.234 188.172 99.8359 187.641 99.6172C187.109 99.3828 186.461 99.2656 185.695 99.2656C184.773 99.2656 184.023 99.4219 183.445 99.7344C182.867 100.047 182.422 100.484 182.109 101.047C181.812 101.594 181.609 102.242 181.5 102.992C181.391 103.742 181.336 104.562 181.336 105.453ZM231.539 109.93C231.539 109.398 231.461 108.922 231.305 108.5C231.148 108.062 230.859 107.656 230.438 107.281C230.016 106.906 229.406 106.531 228.609 106.156C227.828 105.766 226.797 105.359 225.516 104.938C224.016 104.438 222.57 103.875 221.18 103.25C219.789 102.609 218.547 101.867 217.453 101.023C216.359 100.164 215.492 99.1641 214.852 98.0234C214.211 96.8672 213.891 95.5234 213.891 93.9922C213.891 92.5234 214.219 91.2031 214.875 90.0312C215.531 88.8438 216.445 87.8359 217.617 87.0078C218.805 86.1641 220.195 85.5234 221.789 85.0859C223.383 84.6328 225.125 84.4062 227.016 84.4062C229.516 84.4062 231.719 84.8438 233.625 85.7188C235.547 86.5781 237.047 87.8047 238.125 89.3984C239.219 90.9766 239.766 92.8438 239.766 95H231.586C231.586 94.1406 231.406 93.3828 231.047 92.7266C230.703 92.0703 230.18 91.5547 229.477 91.1797C228.773 90.8047 227.891 90.6172 226.828 90.6172C225.797 90.6172 224.93 90.7734 224.227 91.0859C223.523 91.3984 222.992 91.8203 222.633 92.3516C222.273 92.8672 222.094 93.4375 222.094 94.0625C222.094 94.5781 222.234 95.0469 222.516 95.4688C222.812 95.875 223.227 96.2578 223.758 96.6172C224.305 96.9766 224.961 97.3203 225.727 97.6484C226.508 97.9766 227.383 98.2969 228.352 98.6094C230.164 99.1875 231.773 99.8359 233.18 100.555C234.602 101.258 235.797 102.062 236.766 102.969C237.75 103.859 238.492 104.875 238.992 106.016C239.508 107.156 239.766 108.445 239.766 109.883C239.766 111.414 239.469 112.773 238.875 113.961C238.281 115.148 237.43 116.156 236.32 116.984C235.211 117.797 233.883 118.414 232.336 118.836C230.789 119.258 229.062 119.469 227.156 119.469C225.406 119.469 223.68 119.25 221.977 118.812C220.289 118.359 218.758 117.672 217.383 116.75C216.008 115.812 214.906 114.617 214.078 113.164C213.266 111.695 212.859 109.953 212.859 107.938H221.109C221.109 108.938 221.242 109.781 221.508 110.469C221.773 111.156 222.164 111.711 222.68 112.133C223.195 112.539 223.828 112.836 224.578 113.023C225.328 113.195 226.188 113.281 227.156 113.281C228.203 113.281 229.047 113.133 229.688 112.836C230.328 112.523 230.797 112.117 231.094 111.617C231.391 111.102 231.539 110.539 231.539 109.93ZM256.992 93.6406V99.125H241.711V93.6406H256.992ZM244.922 87.3359H252.82V110.727C252.82 111.398 252.898 111.922 253.055 112.297C253.211 112.656 253.477 112.914 253.852 113.07C254.242 113.211 254.758 113.281 255.398 113.281C255.852 113.281 256.227 113.273 256.523 113.258C256.82 113.227 257.102 113.188 257.367 113.141V118.789C256.695 119.008 255.992 119.172 255.258 119.281C254.523 119.406 253.742 119.469 252.914 119.469C251.227 119.469 249.781 119.203 248.578 118.672C247.391 118.141 246.484 117.305 245.859 116.164C245.234 115.023 244.922 113.539 244.922 111.711V87.3359ZM273.305 112.625V102.172C273.305 101.453 273.203 100.836 273 100.32C272.797 99.8047 272.477 99.4062 272.039 99.125C271.602 98.8281 271.016 98.6797 270.281 98.6797C269.688 98.6797 269.18 98.7812 268.758 98.9844C268.336 99.1875 268.016 99.4922 267.797 99.8984C267.578 100.305 267.469 100.82 267.469 101.445H259.57C259.57 100.273 259.828 99.1875 260.344 98.1875C260.875 97.1719 261.625 96.2891 262.594 95.5391C263.578 94.7891 264.75 94.2109 266.109 93.8047C267.484 93.3828 269.016 93.1719 270.703 93.1719C272.719 93.1719 274.516 93.5078 276.094 94.1797C277.688 94.8516 278.945 95.8594 279.867 97.2031C280.789 98.5312 281.25 100.203 281.25 102.219V112.602C281.25 114.258 281.344 115.516 281.531 116.375C281.719 117.219 281.984 117.961 282.328 118.602V119H274.406C274.031 118.219 273.75 117.266 273.562 116.141C273.391 115 273.305 113.828 273.305 112.625ZM274.266 103.508L274.312 107.727H270.82C270.086 107.727 269.461 107.828 268.945 108.031C268.445 108.234 268.039 108.516 267.727 108.875C267.43 109.219 267.211 109.609 267.07 110.047C266.945 110.484 266.883 110.945 266.883 111.43C266.883 111.898 266.992 112.32 267.211 112.695C267.445 113.055 267.758 113.336 268.148 113.539C268.539 113.742 268.977 113.844 269.461 113.844C270.336 113.844 271.078 113.68 271.688 113.352C272.312 113.008 272.789 112.594 273.117 112.109C273.445 111.625 273.609 111.172 273.609 110.75L275.344 113.984C275.031 114.609 274.672 115.242 274.266 115.883C273.875 116.523 273.383 117.117 272.789 117.664C272.211 118.195 271.5 118.633 270.656 118.977C269.812 119.305 268.789 119.469 267.586 119.469C266.023 119.469 264.586 119.148 263.273 118.508C261.977 117.867 260.938 116.977 260.156 115.836C259.375 114.68 258.984 113.352 258.984 111.852C258.984 110.539 259.219 109.367 259.688 108.336C260.172 107.305 260.898 106.43 261.867 105.711C262.836 104.992 264.07 104.445 265.57 104.07C267.07 103.695 268.836 103.508 270.867 103.508H274.266ZM296.344 113.375C297.078 113.375 297.703 113.242 298.219 112.977C298.75 112.695 299.148 112.305 299.414 111.805C299.695 111.289 299.828 110.672 299.812 109.953H307.242C307.258 111.859 306.789 113.531 305.836 114.969C304.898 116.391 303.617 117.5 301.992 118.297C300.383 119.078 298.562 119.469 296.531 119.469C294.547 119.469 292.812 119.148 291.328 118.508C289.844 117.852 288.602 116.945 287.602 115.789C286.617 114.617 285.875 113.25 285.375 111.688C284.891 110.125 284.648 108.43 284.648 106.602V106.062C284.648 104.234 284.891 102.539 285.375 100.977C285.875 99.3984 286.617 98.0312 287.602 96.875C288.602 95.7031 289.836 94.7969 291.305 94.1562C292.789 93.5 294.516 93.1719 296.484 93.1719C298.594 93.1719 300.453 93.5703 302.062 94.3672C303.688 95.1641 304.961 96.3203 305.883 97.8359C306.805 99.3516 307.258 101.188 307.242 103.344H299.812C299.828 102.578 299.711 101.891 299.461 101.281C299.211 100.672 298.82 100.188 298.289 99.8281C297.773 99.4531 297.109 99.2656 296.297 99.2656C295.484 99.2656 294.828 99.4453 294.328 99.8047C293.828 100.164 293.445 100.664 293.18 101.305C292.93 101.93 292.758 102.648 292.664 103.461C292.586 104.273 292.547 105.141 292.547 106.062V106.602C292.547 107.539 292.586 108.422 292.664 109.25C292.758 110.062 292.938 110.781 293.203 111.406C293.469 112.016 293.852 112.5 294.352 112.859C294.852 113.203 295.516 113.375 296.344 113.375ZM318.586 82.9766V119H310.688V82.9766H318.586ZM334.805 93.6406L323.789 106.555L318.023 112.32L314.578 107.305L319.383 101.047L325.336 93.6406H334.805ZM326.344 119L319.57 107.445L325.406 103.297L335.391 119H326.344Z" fill="black"/>
<path d="M1134 0H1348C1356.28 0 1363 6.71573 1363 15V148C1363 156.284 1356.28 163 1348 163H1134V0Z" fill="#DE374B"/>
<path fill-rule="evenodd" clip-rule="evenodd" d="M1218.75 53C1218.62 53 1218.49 53.0527 1218.4 53.1464C1218.3 53.2402 1218.25 53.3674 1218.25 53.5V109.5C1218.25 109.633 1218.3 109.76 1218.4 109.854C1218.49 109.947 1218.62 110 1218.75 110H1278.25C1278.38 110 1278.51 109.947 1278.6 109.854C1278.7 109.76 1278.75 109.633 1278.75 109.5V64C1278.75 63.8674 1278.7 63.7402 1278.6 63.6464C1278.51 63.5527 1278.38 63.5 1278.25 63.5H1248.5C1247.61 63.5 1246.77 63.1045 1246.2 62.4206L1238.34 53H1218.75ZM1214.15 48.9038C1215.37 47.6848 1217.03 47 1218.75 47H1239.75C1240.64 47 1241.48 47.3955 1242.05 48.0794L1249.91 57.5H1278.25C1279.97 57.5 1281.63 58.1848 1282.85 59.4038C1284.07 60.6228 1284.75 62.2761 1284.75 64V109.5C1284.75 111.224 1284.07 112.877 1282.85 114.096C1281.63 115.315 1279.97 116 1278.25 116H1218.75C1217.03 116 1215.37 115.315 1214.15 114.096C1212.93 112.877 1212.25 111.224 1212.25 109.5V53.5C1212.25 51.7761 1212.93 50.1228 1214.15 48.9038Z" fill="white"/>
<path fill-rule="evenodd" clip-rule="evenodd" d="M1243.97 75.5251C1245.34 76.892 1245.34 79.108 1243.97 80.4749L1237.7 86.75L1243.97 93.0251C1245.34 94.392 1245.34 96.608 1243.97 97.9749C1242.61 99.3417 1240.39 99.3417 1239.03 97.9749L1230.28 89.2249C1228.91 87.858 1228.91 85.642 1230.28 84.2751L1239.03 75.5251C1240.39 74.1583 1242.61 74.1583 1243.97 75.5251Z" fill="white"/>
<path fill-rule="evenodd" clip-rule="evenodd" d="M1252.28 97.9749C1250.91 96.608 1250.91 94.392 1252.28 93.0251L1258.55 86.75L1252.28 80.4749C1250.91 79.108 1250.91 76.892 1252.28 75.5251C1253.64 74.1583 1255.86 74.1583 1257.22 75.5251L1265.97 84.2751C1267.34 85.642 1267.34 87.858 1265.97 89.2249L1257.22 97.9749C1255.86 99.3417 1253.64 99.3417 1252.28 97.9749Z" fill="white"/>
</svg>
