<svg width="1363" height="163" viewBox="0 0 1363 163" fill="none" xmlns="http://www.w3.org/2000/svg">
<path d="M0 15C0 6.71573 6.71573 0 15 0H37V163H15C6.71573 163 0 156.284 0 148V15Z" fill="#DE374B"/>
<rect width="1097" height="163" transform="translate(37)" fill="#F0F0F0"/>
<path d="M101.906 53.9219L94.3945 51.2383V48.0859L104.602 52.375V54.6367L101.906 53.9219ZM94.3945 56.1719L101.918 53.4297L104.602 52.7852V55.0352L94.3945 59.3242V56.1719ZM124.277 50.8867V53.6289H115.371V50.8867H124.277ZM116.414 43.9375V61H112.898V43.9375H116.414ZM126.785 43.9375V61H123.281V43.9375H126.785ZM135.469 61.2344C134.484 61.2344 133.602 61.0781 132.82 60.7656C132.039 60.4453 131.375 60.0039 130.828 59.4414C130.289 58.8789 129.875 58.2266 129.586 57.4844C129.297 56.7344 129.152 55.9375 129.152 55.0938V54.625C129.152 53.6641 129.289 52.7852 129.562 51.9883C129.836 51.1914 130.227 50.5 130.734 49.9141C131.25 49.3281 131.875 48.8789 132.609 48.5664C133.344 48.2461 134.172 48.0859 135.094 48.0859C135.992 48.0859 136.789 48.2344 137.484 48.5312C138.18 48.8281 138.762 49.25 139.23 49.7969C139.707 50.3438 140.066 51 140.309 51.7656C140.551 52.5234 140.672 53.3672 140.672 54.2969V55.7031H130.594V53.4531H137.355V53.1953C137.355 52.7266 137.27 52.3086 137.098 51.9414C136.934 51.5664 136.684 51.2695 136.348 51.0508C136.012 50.832 135.582 50.7227 135.059 50.7227C134.613 50.7227 134.23 50.8203 133.91 51.0156C133.59 51.2109 133.328 51.4844 133.125 51.8359C132.93 52.1875 132.781 52.6016 132.68 53.0781C132.586 53.5469 132.539 54.0625 132.539 54.625V55.0938C132.539 55.6016 132.609 56.0703 132.75 56.5C132.898 56.9297 133.105 57.3008 133.371 57.6133C133.645 57.9258 133.973 58.168 134.355 58.3398C134.746 58.5117 135.188 58.5977 135.68 58.5977C136.289 58.5977 136.855 58.4805 137.379 58.2461C137.91 58.0039 138.367 57.6406 138.75 57.1562L140.391 58.9375C140.125 59.3203 139.762 59.6875 139.301 60.0391C138.848 60.3906 138.301 60.6797 137.66 60.9062C137.02 61.125 136.289 61.2344 135.469 61.2344ZM145.969 50.9453V61H142.582V48.3203H145.758L145.969 50.9453ZM145.5 54.2148H144.562C144.562 53.332 144.668 52.5195 144.879 51.7773C145.098 51.0273 145.414 50.3789 145.828 49.832C146.25 49.2773 146.77 48.8477 147.387 48.543C148.004 48.2383 148.719 48.0859 149.531 48.0859C150.094 48.0859 150.609 48.1719 151.078 48.3438C151.547 48.5078 151.949 48.7695 152.285 49.1289C152.629 49.4805 152.895 49.9414 153.082 50.5117C153.27 51.0742 153.363 51.75 153.363 52.5391V61H149.988V52.9141C149.988 52.3359 149.91 51.8906 149.754 51.5781C149.598 51.2656 149.375 51.0469 149.086 50.9219C148.805 50.7969 148.465 50.7344 148.066 50.7344C147.629 50.7344 147.246 50.8242 146.918 51.0039C146.598 51.1836 146.332 51.4336 146.121 51.7539C145.91 52.0664 145.754 52.4336 145.652 52.8555C145.551 53.2773 145.5 53.7305 145.5 54.2148ZM153.047 53.8281L151.84 53.9805C151.84 53.1523 151.941 52.3828 152.145 51.6719C152.355 50.9609 152.664 50.3359 153.07 49.7969C153.484 49.2578 153.996 48.8398 154.605 48.543C155.215 48.2383 155.918 48.0859 156.715 48.0859C157.324 48.0859 157.879 48.1758 158.379 48.3555C158.879 48.5273 159.305 48.8047 159.656 49.1875C160.016 49.5625 160.289 50.0547 160.477 50.6641C160.672 51.2734 160.77 52.0195 160.77 52.9023V61H157.383V52.9023C157.383 52.3164 157.305 51.8711 157.148 51.5664C157 51.2539 156.781 51.0391 156.492 50.9219C156.211 50.7969 155.875 50.7344 155.484 50.7344C155.078 50.7344 154.723 50.8164 154.418 50.9805C154.113 51.1367 153.859 51.3555 153.656 51.6367C153.453 51.918 153.301 52.2461 153.199 52.6211C153.098 52.9883 153.047 53.3906 153.047 53.8281ZM170.227 58.1406V52.4922C170.227 52.0859 170.16 51.7383 170.027 51.4492C169.895 51.1523 169.688 50.9219 169.406 50.7578C169.133 50.5938 168.777 50.5117 168.34 50.5117C167.965 50.5117 167.641 50.5781 167.367 50.7109C167.094 50.8359 166.883 51.0195 166.734 51.2617C166.586 51.4961 166.512 51.7734 166.512 52.0938H163.137C163.137 51.5547 163.262 51.043 163.512 50.5586C163.762 50.0742 164.125 49.6484 164.602 49.2812C165.078 48.9062 165.645 48.6133 166.301 48.4023C166.965 48.1914 167.707 48.0859 168.527 48.0859C169.512 48.0859 170.387 48.25 171.152 48.5781C171.918 48.9062 172.52 49.3984 172.957 50.0547C173.402 50.7109 173.625 51.5312 173.625 52.5156V57.9414C173.625 58.6367 173.668 59.207 173.754 59.6523C173.84 60.0898 173.965 60.4727 174.129 60.8008V61H170.719C170.555 60.6562 170.43 60.2266 170.344 59.7109C170.266 59.1875 170.227 58.6641 170.227 58.1406ZM170.672 53.2773L170.695 55.1875H168.809C168.363 55.1875 167.977 55.2383 167.648 55.3398C167.32 55.4414 167.051 55.5859 166.84 55.7734C166.629 55.9531 166.473 56.1641 166.371 56.4062C166.277 56.6484 166.23 56.9141 166.23 57.2031C166.23 57.4922 166.297 57.7539 166.43 57.9883C166.562 58.2148 166.754 58.3945 167.004 58.5273C167.254 58.6523 167.547 58.7148 167.883 58.7148C168.391 58.7148 168.832 58.6133 169.207 58.4102C169.582 58.207 169.871 57.957 170.074 57.6602C170.285 57.3633 170.395 57.082 170.402 56.8164L171.293 58.2461C171.168 58.5664 170.996 58.8984 170.777 59.2422C170.566 59.5859 170.297 59.9102 169.969 60.2148C169.641 60.5117 169.246 60.7578 168.785 60.9531C168.324 61.1406 167.777 61.2344 167.145 61.2344C166.34 61.2344 165.609 61.0742 164.953 60.7539C164.305 60.4258 163.789 59.9766 163.406 59.4062C163.031 58.8281 162.844 58.1719 162.844 57.4375C162.844 56.7734 162.969 56.1836 163.219 55.668C163.469 55.1523 163.836 54.7188 164.32 54.3672C164.812 54.0078 165.426 53.7383 166.16 53.5586C166.895 53.3711 167.746 53.2773 168.715 53.2773H170.672ZM186.328 55.3398H189.832C189.762 56.4883 189.445 57.5078 188.883 58.3984C188.328 59.2891 187.551 59.9844 186.551 60.4844C185.559 60.9844 184.363 61.2344 182.965 61.2344C181.871 61.2344 180.891 61.0469 180.023 60.6719C179.156 60.2891 178.414 59.7422 177.797 59.0312C177.188 58.3203 176.723 57.4609 176.402 56.4531C176.082 55.4453 175.922 54.3164 175.922 53.0664V51.8828C175.922 50.6328 176.086 49.5039 176.414 48.4961C176.75 47.4805 177.227 46.6172 177.844 45.9062C178.469 45.1953 179.215 44.6484 180.082 44.2656C180.949 43.8828 181.918 43.6914 182.988 43.6914C184.41 43.6914 185.609 43.9492 186.586 44.4648C187.57 44.9805 188.332 45.6914 188.871 46.5977C189.418 47.5039 189.746 48.5352 189.855 49.6914H186.34C186.301 49.0039 186.164 48.4219 185.93 47.9453C185.695 47.4609 185.34 47.0977 184.863 46.8555C184.395 46.6055 183.77 46.4805 182.988 46.4805C182.402 46.4805 181.891 46.5898 181.453 46.8086C181.016 47.0273 180.648 47.3594 180.352 47.8047C180.055 48.25 179.832 48.8125 179.684 49.4922C179.543 50.1641 179.473 50.9531 179.473 51.8594V53.0664C179.473 53.9492 179.539 54.7266 179.672 55.3984C179.805 56.0625 180.008 56.625 180.281 57.0859C180.562 57.5391 180.922 57.8828 181.359 58.1172C181.805 58.3438 182.34 58.457 182.965 58.457C183.699 58.457 184.305 58.3398 184.781 58.1055C185.258 57.8711 185.621 57.5234 185.871 57.0625C186.129 56.6016 186.281 56.0273 186.328 55.3398ZM191.391 54.7891V54.543C191.391 53.6133 191.523 52.7578 191.789 51.9766C192.055 51.1875 192.441 50.5039 192.949 49.9258C193.457 49.3477 194.082 48.8984 194.824 48.5781C195.566 48.25 196.418 48.0859 197.379 48.0859C198.34 48.0859 199.195 48.25 199.945 48.5781C200.695 48.8984 201.324 49.3477 201.832 49.9258C202.348 50.5039 202.738 51.1875 203.004 51.9766C203.27 52.7578 203.402 53.6133 203.402 54.543V54.7891C203.402 55.7109 203.27 56.5664 203.004 57.3555C202.738 58.1367 202.348 58.8203 201.832 59.4062C201.324 59.9844 200.699 60.4336 199.957 60.7539C199.215 61.0742 198.363 61.2344 197.402 61.2344C196.441 61.2344 195.586 61.0742 194.836 60.7539C194.094 60.4336 193.465 59.9844 192.949 59.4062C192.441 58.8203 192.055 58.1367 191.789 57.3555C191.523 56.5664 191.391 55.7109 191.391 54.7891ZM194.766 54.543V54.7891C194.766 55.3203 194.812 55.8164 194.906 56.2773C195 56.7383 195.148 57.1445 195.352 57.4961C195.562 57.8398 195.836 58.1094 196.172 58.3047C196.508 58.5 196.918 58.5977 197.402 58.5977C197.871 58.5977 198.273 58.5 198.609 58.3047C198.945 58.1094 199.215 57.8398 199.418 57.4961C199.621 57.1445 199.77 56.7383 199.863 56.2773C199.965 55.8164 200.016 55.3203 200.016 54.7891V54.543C200.016 54.0273 199.965 53.543 199.863 53.0898C199.77 52.6289 199.617 52.2227 199.406 51.8711C199.203 51.5117 198.934 51.2305 198.598 51.0273C198.262 50.8242 197.855 50.7227 197.379 50.7227C196.902 50.7227 196.496 50.8242 196.16 51.0273C195.832 51.2305 195.562 51.5117 195.352 51.8711C195.148 52.2227 195 52.6289 194.906 53.0898C194.812 53.543 194.766 54.0273 194.766 54.543ZM208.781 51.0273V61H205.406V48.3203H208.57L208.781 51.0273ZM208.289 54.2148H207.375C207.375 53.2773 207.496 52.4336 207.738 51.6836C207.98 50.9258 208.32 50.2812 208.758 49.75C209.195 49.2109 209.715 48.8008 210.316 48.5195C210.926 48.2305 211.605 48.0859 212.355 48.0859C212.949 48.0859 213.492 48.1719 213.984 48.3438C214.477 48.5156 214.898 48.7891 215.25 49.1641C215.609 49.5391 215.883 50.0352 216.07 50.6523C216.266 51.2695 216.363 52.0234 216.363 52.9141V61H212.965V52.9023C212.965 52.3398 212.887 51.9023 212.73 51.5898C212.574 51.2773 212.344 51.0586 212.039 50.9336C211.742 50.8008 211.375 50.7344 210.938 50.7344C210.484 50.7344 210.09 50.8242 209.754 51.0039C209.426 51.1836 209.152 51.4336 208.934 51.7539C208.723 52.0664 208.562 52.4336 208.453 52.8555C208.344 53.2773 208.289 53.7305 208.289 54.2148ZM222.234 51.0273V61H218.859V48.3203H222.023L222.234 51.0273ZM221.742 54.2148H220.828C220.828 53.2773 220.949 52.4336 221.191 51.6836C221.434 50.9258 221.773 50.2812 222.211 49.75C222.648 49.2109 223.168 48.8008 223.77 48.5195C224.379 48.2305 225.059 48.0859 225.809 48.0859C226.402 48.0859 226.945 48.1719 227.438 48.3438C227.93 48.5156 228.352 48.7891 228.703 49.1641C229.062 49.5391 229.336 50.0352 229.523 50.6523C229.719 51.2695 229.816 52.0234 229.816 52.9141V61H226.418V52.9023C226.418 52.3398 226.34 51.9023 226.184 51.5898C226.027 51.2773 225.797 51.0586 225.492 50.9336C225.195 50.8008 224.828 50.7344 224.391 50.7344C223.938 50.7344 223.543 50.8242 223.207 51.0039C222.879 51.1836 222.605 51.4336 222.387 51.7539C222.176 52.0664 222.016 52.4336 221.906 52.8555C221.797 53.2773 221.742 53.7305 221.742 54.2148ZM238.219 61.2344C237.234 61.2344 236.352 61.0781 235.57 60.7656C234.789 60.4453 234.125 60.0039 233.578 59.4414C233.039 58.8789 232.625 58.2266 232.336 57.4844C232.047 56.7344 231.902 55.9375 231.902 55.0938V54.625C231.902 53.6641 232.039 52.7852 232.312 51.9883C232.586 51.1914 232.977 50.5 233.484 49.9141C234 49.3281 234.625 48.8789 235.359 48.5664C236.094 48.2461 236.922 48.0859 237.844 48.0859C238.742 48.0859 239.539 48.2344 240.234 48.5312C240.93 48.8281 241.512 49.25 241.98 49.7969C242.457 50.3438 242.816 51 243.059 51.7656C243.301 52.5234 243.422 53.3672 243.422 54.2969V55.7031H233.344V53.4531H240.105V53.1953C240.105 52.7266 240.02 52.3086 239.848 51.9414C239.684 51.5664 239.434 51.2695 239.098 51.0508C238.762 50.832 238.332 50.7227 237.809 50.7227C237.363 50.7227 236.98 50.8203 236.66 51.0156C236.34 51.2109 236.078 51.4844 235.875 51.8359C235.68 52.1875 235.531 52.6016 235.43 53.0781C235.336 53.5469 235.289 54.0625 235.289 54.625V55.0938C235.289 55.6016 235.359 56.0703 235.5 56.5C235.648 56.9297 235.855 57.3008 236.121 57.6133C236.395 57.9258 236.723 58.168 237.105 58.3398C237.496 58.5117 237.938 58.5977 238.43 58.5977C239.039 58.5977 239.605 58.4805 240.129 58.2461C240.66 58.0039 241.117 57.6406 241.5 57.1562L243.141 58.9375C242.875 59.3203 242.512 59.6875 242.051 60.0391C241.598 60.3906 241.051 60.6797 240.41 60.9062C239.77 61.125 239.039 61.2344 238.219 61.2344ZM250.582 58.5977C250.996 58.5977 251.363 58.5195 251.684 58.3633C252.004 58.1992 252.254 57.9727 252.434 57.6836C252.621 57.3867 252.719 57.0391 252.727 56.6406H255.902C255.895 57.5312 255.656 58.3242 255.188 59.0195C254.719 59.707 254.09 60.25 253.301 60.6484C252.512 61.0391 251.629 61.2344 250.652 61.2344C249.668 61.2344 248.809 61.0703 248.074 60.7422C247.348 60.4141 246.742 59.9609 246.258 59.3828C245.773 58.7969 245.41 58.1172 245.168 57.3438C244.926 56.5625 244.805 55.7266 244.805 54.8359V54.4961C244.805 53.5977 244.926 52.7617 245.168 51.9883C245.41 51.207 245.773 50.5273 246.258 49.9492C246.742 49.3633 247.348 48.9062 248.074 48.5781C248.801 48.25 249.652 48.0859 250.629 48.0859C251.668 48.0859 252.578 48.2852 253.359 48.6836C254.148 49.082 254.766 49.6523 255.211 50.3945C255.664 51.1289 255.895 52 255.902 53.0078H252.727C252.719 52.5859 252.629 52.2031 252.457 51.8594C252.293 51.5156 252.051 51.2422 251.73 51.0391C251.418 50.8281 251.031 50.7227 250.57 50.7227C250.078 50.7227 249.676 50.8281 249.363 51.0391C249.051 51.2422 248.809 51.5234 248.637 51.8828C248.465 52.2344 248.344 52.6367 248.273 53.0898C248.211 53.5352 248.18 54.0039 248.18 54.4961V54.8359C248.18 55.3281 248.211 55.8008 248.273 56.2539C248.336 56.707 248.453 57.1094 248.625 57.4609C248.805 57.8125 249.051 58.0898 249.363 58.293C249.676 58.4961 250.082 58.5977 250.582 58.5977ZM264.07 48.3203V50.7109H256.688V48.3203H264.07ZM258.516 45.1914H261.891V57.1797C261.891 57.5469 261.938 57.8281 262.031 58.0234C262.133 58.2188 262.281 58.3555 262.477 58.4336C262.672 58.5039 262.918 58.5391 263.215 58.5391C263.426 58.5391 263.613 58.5312 263.777 58.5156C263.949 58.4922 264.094 58.4688 264.211 58.4453L264.223 60.9297C263.934 61.0234 263.621 61.0977 263.285 61.1523C262.949 61.207 262.578 61.2344 262.172 61.2344C261.43 61.2344 260.781 61.1133 260.227 60.8711C259.68 60.6211 259.258 60.2227 258.961 59.6758C258.664 59.1289 258.516 58.4102 258.516 57.5195V45.1914Z" fill="#888888"/>
<path d="M112.125 84.875V119H103.898V84.875H112.125ZM122.391 84.875V91.2266H93.8672V84.875H122.391ZM134.695 112.625V102.172C134.695 101.453 134.594 100.836 134.391 100.32C134.188 99.8047 133.867 99.4062 133.43 99.125C132.992 98.8281 132.406 98.6797 131.672 98.6797C131.078 98.6797 130.57 98.7812 130.148 98.9844C129.727 99.1875 129.406 99.4922 129.188 99.8984C128.969 100.305 128.859 100.82 128.859 101.445H120.961C120.961 100.273 121.219 99.1875 121.734 98.1875C122.266 97.1719 123.016 96.2891 123.984 95.5391C124.969 94.7891 126.141 94.2109 127.5 93.8047C128.875 93.3828 130.406 93.1719 132.094 93.1719C134.109 93.1719 135.906 93.5078 137.484 94.1797C139.078 94.8516 140.336 95.8594 141.258 97.2031C142.18 98.5312 142.641 100.203 142.641 102.219V112.602C142.641 114.258 142.734 115.516 142.922 116.375C143.109 117.219 143.375 117.961 143.719 118.602V119H135.797C135.422 118.219 135.141 117.266 134.953 116.141C134.781 115 134.695 113.828 134.695 112.625ZM135.656 103.508L135.703 107.727H132.211C131.477 107.727 130.852 107.828 130.336 108.031C129.836 108.234 129.43 108.516 129.117 108.875C128.82 109.219 128.602 109.609 128.461 110.047C128.336 110.484 128.273 110.945 128.273 111.43C128.273 111.898 128.383 112.32 128.602 112.695C128.836 113.055 129.148 113.336 129.539 113.539C129.93 113.742 130.367 113.844 130.852 113.844C131.727 113.844 132.469 113.68 133.078 113.352C133.703 113.008 134.18 112.594 134.508 112.109C134.836 111.625 135 111.172 135 110.75L136.734 113.984C136.422 114.609 136.062 115.242 135.656 115.883C135.266 116.523 134.773 117.117 134.18 117.664C133.602 118.195 132.891 118.633 132.047 118.977C131.203 119.305 130.18 119.469 128.977 119.469C127.414 119.469 125.977 119.148 124.664 118.508C123.367 117.867 122.328 116.977 121.547 115.836C120.766 114.68 120.375 113.352 120.375 111.852C120.375 110.539 120.609 109.367 121.078 108.336C121.562 107.305 122.289 106.43 123.258 105.711C124.227 104.992 125.461 104.445 126.961 104.07C128.461 103.695 130.227 103.508 132.258 103.508H135.656ZM147.094 83H154.992V112.766L154.172 119H147.094V83ZM170.555 106.039V106.531C170.555 108.453 170.359 110.203 169.969 111.781C169.578 113.359 168.977 114.727 168.164 115.883C167.352 117.023 166.328 117.906 165.094 118.531C163.859 119.156 162.398 119.469 160.711 119.469C159.18 119.469 157.867 119.141 156.773 118.484C155.68 117.812 154.766 116.891 154.031 115.719C153.297 114.531 152.703 113.164 152.25 111.617C151.797 110.055 151.438 108.383 151.172 106.602V106.016C151.438 104.25 151.797 102.594 152.25 101.047C152.703 99.4844 153.297 98.1172 154.031 96.9453C154.766 95.7578 155.672 94.8359 156.75 94.1797C157.844 93.5078 159.148 93.1719 160.664 93.1719C162.367 93.1719 163.836 93.4922 165.07 94.1328C166.32 94.7734 167.352 95.6719 168.164 96.8281C168.977 97.9844 169.578 99.3438 169.969 100.906C170.359 102.469 170.555 104.18 170.555 106.039ZM162.656 106.531V106.039C162.656 105.117 162.602 104.25 162.492 103.438C162.383 102.625 162.188 101.906 161.906 101.281C161.625 100.656 161.227 100.164 160.711 99.8047C160.195 99.4453 159.523 99.2656 158.695 99.2656C157.852 99.2656 157.141 99.4062 156.562 99.6875C156 99.9688 155.547 100.375 155.203 100.906C154.875 101.422 154.641 102.062 154.5 102.828C154.359 103.578 154.297 104.43 154.312 105.383V107.234C154.281 108.531 154.398 109.641 154.664 110.562C154.93 111.484 155.391 112.188 156.047 112.672C156.703 113.156 157.602 113.398 158.742 113.398C159.586 113.398 160.266 113.234 160.781 112.906C161.312 112.578 161.711 112.109 161.977 111.5C162.242 110.891 162.422 110.164 162.516 109.32C162.609 108.477 162.656 107.547 162.656 106.531ZM182.414 83V119H174.492V83H182.414ZM199.57 119.469C197.508 119.469 195.664 119.148 194.039 118.508C192.414 117.852 191.039 116.953 189.914 115.812C188.805 114.672 187.953 113.359 187.359 111.875C186.781 110.391 186.492 108.82 186.492 107.164V106.273C186.492 104.414 186.75 102.695 187.266 101.117C187.781 99.5234 188.547 98.1328 189.562 96.9453C190.578 95.7578 191.852 94.8359 193.383 94.1797C194.914 93.5078 196.695 93.1719 198.727 93.1719C200.523 93.1719 202.133 93.4609 203.555 94.0391C204.977 94.6172 206.18 95.4453 207.164 96.5234C208.164 97.6016 208.922 98.9062 209.438 100.438C209.969 101.969 210.234 103.688 210.234 105.594V108.805H189.516V103.859H202.523V103.25C202.539 102.406 202.391 101.688 202.078 101.094C201.781 100.5 201.344 100.047 200.766 99.7344C200.188 99.4219 199.484 99.2656 198.656 99.2656C197.797 99.2656 197.086 99.4531 196.523 99.8281C195.977 100.203 195.547 100.719 195.234 101.375C194.938 102.016 194.727 102.758 194.602 103.602C194.477 104.445 194.414 105.336 194.414 106.273V107.164C194.414 108.102 194.539 108.953 194.789 109.719C195.055 110.484 195.43 111.141 195.914 111.688C196.414 112.219 197.008 112.633 197.695 112.93C198.398 113.227 199.195 113.375 200.086 113.375C201.164 113.375 202.227 113.172 203.273 112.766C204.32 112.359 205.219 111.688 205.969 110.75L209.555 115.016C209.039 115.75 208.305 116.461 207.352 117.148C206.414 117.836 205.289 118.398 203.977 118.836C202.664 119.258 201.195 119.469 199.57 119.469ZM224.414 106.578V106.086C224.414 104.227 224.68 102.516 225.211 100.953C225.742 99.375 226.523 98.0078 227.555 96.8516C228.586 95.6953 229.859 94.7969 231.375 94.1562C232.891 93.5 234.641 93.1719 236.625 93.1719C238.625 93.1719 240.383 93.5 241.898 94.1562C243.43 94.7969 244.711 95.6953 245.742 96.8516C246.773 98.0078 247.555 99.375 248.086 100.953C248.617 102.516 248.883 104.227 248.883 106.086V106.578C248.883 108.422 248.617 110.133 248.086 111.711C247.555 113.273 246.773 114.641 245.742 115.812C244.711 116.969 243.438 117.867 241.922 118.508C240.406 119.148 238.656 119.469 236.672 119.469C234.688 119.469 232.93 119.148 231.398 118.508C229.867 117.867 228.586 116.969 227.555 115.812C226.523 114.641 225.742 113.273 225.211 111.711C224.68 110.133 224.414 108.422 224.414 106.578ZM232.312 106.086V106.578C232.312 107.531 232.383 108.422 232.523 109.25C232.664 110.078 232.898 110.805 233.227 111.43C233.555 112.039 234 112.516 234.562 112.859C235.125 113.203 235.828 113.375 236.672 113.375C237.5 113.375 238.188 113.203 238.734 112.859C239.297 112.516 239.742 112.039 240.07 111.43C240.398 110.805 240.633 110.078 240.773 109.25C240.914 108.422 240.984 107.531 240.984 106.578V106.086C240.984 105.164 240.914 104.297 240.773 103.484C240.633 102.656 240.398 101.93 240.07 101.305C239.742 100.664 239.297 100.164 238.734 99.8047C238.172 99.4453 237.469 99.2656 236.625 99.2656C235.797 99.2656 235.102 99.4453 234.539 99.8047C233.992 100.164 233.555 100.664 233.227 101.305C232.898 101.93 232.664 102.656 232.523 103.484C232.383 104.297 232.312 105.164 232.312 106.086ZM262.078 119H254.133V91.5781C254.133 89.6094 254.531 87.9531 255.328 86.6094C256.125 85.2656 257.25 84.25 258.703 83.5625C260.156 82.8594 261.875 82.5078 263.859 82.5078C264.547 82.5078 265.195 82.5547 265.805 82.6484C266.414 82.7422 267.008 82.8594 267.586 83L267.609 88.8125C267.328 88.7344 267.039 88.6797 266.742 88.6484C266.445 88.6172 266.078 88.6016 265.641 88.6016C264.875 88.6016 264.227 88.7188 263.695 88.9531C263.164 89.1719 262.758 89.5078 262.477 89.9609C262.211 90.3984 262.078 90.9375 262.078 91.5781V119ZM267 93.6406V99.125H250.477V93.6406H267ZM301.57 107.445H309.773C309.664 109.82 309.023 111.914 307.852 113.727C306.68 115.539 305.055 116.953 302.977 117.969C300.914 118.969 298.477 119.469 295.664 119.469C293.383 119.469 291.344 119.086 289.547 118.32C287.766 117.555 286.25 116.453 285 115.016C283.766 113.578 282.82 111.836 282.164 109.789C281.523 107.742 281.203 105.438 281.203 102.875V101.023C281.203 98.4609 281.539 96.1562 282.211 94.1094C282.898 92.0469 283.867 90.2969 285.117 88.8594C286.383 87.4062 287.898 86.2969 289.664 85.5312C291.43 84.7656 293.391 84.3828 295.547 84.3828C298.516 84.3828 301.023 84.9141 303.07 85.9766C305.117 87.0391 306.703 88.5 307.828 90.3594C308.953 92.2031 309.617 94.3047 309.82 96.6641H301.617C301.586 95.3828 301.367 94.3125 300.961 93.4531C300.555 92.5781 299.914 91.9219 299.039 91.4844C298.164 91.0469 297 90.8281 295.547 90.8281C294.531 90.8281 293.648 91.0156 292.898 91.3906C292.148 91.7656 291.523 92.3594 291.023 93.1719C290.523 93.9844 290.148 95.0391 289.898 96.3359C289.664 97.6172 289.547 99.1641 289.547 100.977V102.875C289.547 104.688 289.656 106.234 289.875 107.516C290.094 108.797 290.445 109.844 290.93 110.656C291.414 111.469 292.039 112.07 292.805 112.461C293.586 112.836 294.539 113.023 295.664 113.023C296.914 113.023 297.969 112.828 298.828 112.438C299.688 112.031 300.352 111.422 300.82 110.609C301.289 109.781 301.539 108.727 301.57 107.445ZM312.305 106.578V106.086C312.305 104.227 312.57 102.516 313.102 100.953C313.633 99.375 314.414 98.0078 315.445 96.8516C316.477 95.6953 317.75 94.7969 319.266 94.1562C320.781 93.5 322.531 93.1719 324.516 93.1719C326.516 93.1719 328.273 93.5 329.789 94.1562C331.32 94.7969 332.602 95.6953 333.633 96.8516C334.664 98.0078 335.445 99.375 335.977 100.953C336.508 102.516 336.773 104.227 336.773 106.086V106.578C336.773 108.422 336.508 110.133 335.977 111.711C335.445 113.273 334.664 114.641 333.633 115.812C332.602 116.969 331.328 117.867 329.812 118.508C328.297 119.148 326.547 119.469 324.562 119.469C322.578 119.469 320.82 119.148 319.289 118.508C317.758 117.867 316.477 116.969 315.445 115.812C314.414 114.641 313.633 113.273 313.102 111.711C312.57 110.133 312.305 108.422 312.305 106.578ZM320.203 106.086V106.578C320.203 107.531 320.273 108.422 320.414 109.25C320.555 110.078 320.789 110.805 321.117 111.43C321.445 112.039 321.891 112.516 322.453 112.859C323.016 113.203 323.719 113.375 324.562 113.375C325.391 113.375 326.078 113.203 326.625 112.859C327.188 112.516 327.633 112.039 327.961 111.43C328.289 110.805 328.523 110.078 328.664 109.25C328.805 108.422 328.875 107.531 328.875 106.578V106.086C328.875 105.164 328.805 104.297 328.664 103.484C328.523 102.656 328.289 101.93 327.961 101.305C327.633 100.664 327.188 100.164 326.625 99.8047C326.062 99.4453 325.359 99.2656 324.516 99.2656C323.688 99.2656 322.992 99.4453 322.43 99.8047C321.883 100.164 321.445 100.664 321.117 101.305C320.789 101.93 320.555 102.656 320.414 103.484C320.273 104.297 320.203 105.164 320.203 106.086ZM348.047 99.0547V119H340.148V93.6406H347.555L348.047 99.0547ZM347.109 105.453L345.258 105.5C345.258 103.562 345.492 101.836 345.961 100.32C346.43 98.7891 347.094 97.4922 347.953 96.4297C348.812 95.3672 349.836 94.5625 351.023 94.0156C352.227 93.4531 353.562 93.1719 355.031 93.1719C356.203 93.1719 357.273 93.3438 358.242 93.6875C359.227 94.0312 360.07 94.5859 360.773 95.3516C361.492 96.1172 362.039 97.1328 362.414 98.3984C362.805 99.6484 363 101.195 363 103.039V119H355.055V103.016C355.055 102 354.914 101.227 354.633 100.695C354.352 100.148 353.945 99.7734 353.414 99.5703C352.883 99.3672 352.234 99.2656 351.469 99.2656C350.656 99.2656 349.969 99.4219 349.406 99.7344C348.844 100.047 348.391 100.484 348.047 101.047C347.719 101.594 347.477 102.242 347.32 102.992C347.18 103.742 347.109 104.562 347.109 105.453ZM380.742 93.6406V99.125H365.461V93.6406H380.742ZM368.672 87.3359H376.57V110.727C376.57 111.398 376.648 111.922 376.805 112.297C376.961 112.656 377.227 112.914 377.602 113.07C377.992 113.211 378.508 113.281 379.148 113.281C379.602 113.281 379.977 113.273 380.273 113.258C380.57 113.227 380.852 113.188 381.117 113.141V118.789C380.445 119.008 379.742 119.172 379.008 119.281C378.273 119.406 377.492 119.469 376.664 119.469C374.977 119.469 373.531 119.203 372.328 118.672C371.141 118.141 370.234 117.305 369.609 116.164C368.984 115.023 368.672 113.539 368.672 111.711V87.3359ZM396.164 119.469C394.102 119.469 392.258 119.148 390.633 118.508C389.008 117.852 387.633 116.953 386.508 115.812C385.398 114.672 384.547 113.359 383.953 111.875C383.375 110.391 383.086 108.82 383.086 107.164V106.273C383.086 104.414 383.344 102.695 383.859 101.117C384.375 99.5234 385.141 98.1328 386.156 96.9453C387.172 95.7578 388.445 94.8359 389.977 94.1797C391.508 93.5078 393.289 93.1719 395.32 93.1719C397.117 93.1719 398.727 93.4609 400.148 94.0391C401.57 94.6172 402.773 95.4453 403.758 96.5234C404.758 97.6016 405.516 98.9062 406.031 100.438C406.562 101.969 406.828 103.688 406.828 105.594V108.805H386.109V103.859H399.117V103.25C399.133 102.406 398.984 101.688 398.672 101.094C398.375 100.5 397.938 100.047 397.359 99.7344C396.781 99.4219 396.078 99.2656 395.25 99.2656C394.391 99.2656 393.68 99.4531 393.117 99.8281C392.57 100.203 392.141 100.719 391.828 101.375C391.531 102.016 391.32 102.758 391.195 103.602C391.07 104.445 391.008 105.336 391.008 106.273V107.164C391.008 108.102 391.133 108.953 391.383 109.719C391.648 110.484 392.023 111.141 392.508 111.688C393.008 112.219 393.602 112.633 394.289 112.93C394.992 113.227 395.789 113.375 396.68 113.375C397.758 113.375 398.82 113.172 399.867 112.766C400.914 112.359 401.812 111.688 402.562 110.75L406.148 115.016C405.633 115.75 404.898 116.461 403.945 117.148C403.008 117.836 401.883 118.398 400.57 118.836C399.258 119.258 397.789 119.469 396.164 119.469ZM417.797 99.0547V119H409.898V93.6406H417.305L417.797 99.0547ZM416.859 105.453L415.008 105.5C415.008 103.562 415.242 101.836 415.711 100.32C416.18 98.7891 416.844 97.4922 417.703 96.4297C418.562 95.3672 419.586 94.5625 420.773 94.0156C421.977 93.4531 423.312 93.1719 424.781 93.1719C425.953 93.1719 427.023 93.3438 427.992 93.6875C428.977 94.0312 429.82 94.5859 430.523 95.3516C431.242 96.1172 431.789 97.1328 432.164 98.3984C432.555 99.6484 432.75 101.195 432.75 103.039V119H424.805V103.016C424.805 102 424.664 101.227 424.383 100.695C424.102 100.148 423.695 99.7734 423.164 99.5703C422.633 99.3672 421.984 99.2656 421.219 99.2656C420.406 99.2656 419.719 99.4219 419.156 99.7344C418.594 100.047 418.141 100.484 417.797 101.047C417.469 101.594 417.227 102.242 417.07 102.992C416.93 103.742 416.859 104.562 416.859 105.453ZM450.492 93.6406V99.125H435.211V93.6406H450.492ZM438.422 87.3359H446.32V110.727C446.32 111.398 446.398 111.922 446.555 112.297C446.711 112.656 446.977 112.914 447.352 113.07C447.742 113.211 448.258 113.281 448.898 113.281C449.352 113.281 449.727 113.273 450.023 113.258C450.32 113.227 450.602 113.188 450.867 113.141V118.789C450.195 119.008 449.492 119.172 448.758 119.281C448.023 119.406 447.242 119.469 446.414 119.469C444.727 119.469 443.281 119.203 442.078 118.672C440.891 118.141 439.984 117.305 439.359 116.164C438.734 115.023 438.422 113.539 438.422 111.711V87.3359ZM466.922 111.875C466.922 111.438 466.773 111.062 466.477 110.75C466.195 110.422 465.695 110.125 464.977 109.859C464.258 109.578 463.25 109.297 461.953 109.016C460.719 108.75 459.555 108.398 458.461 107.961C457.383 107.523 456.438 106.992 455.625 106.367C454.812 105.742 454.172 105 453.703 104.141C453.25 103.281 453.023 102.297 453.023 101.188C453.023 100.109 453.25 99.0938 453.703 98.1406C454.172 97.1719 454.852 96.3203 455.742 95.5859C456.648 94.8359 457.75 94.25 459.047 93.8281C460.344 93.3906 461.82 93.1719 463.477 93.1719C465.758 93.1719 467.727 93.5234 469.383 94.2266C471.039 94.9141 472.312 95.8828 473.203 97.1328C474.109 98.3672 474.562 99.7969 474.562 101.422H466.664C466.664 100.781 466.555 100.234 466.336 99.7812C466.133 99.3281 465.797 98.9844 465.328 98.75C464.859 98.5 464.234 98.375 463.453 98.375C462.906 98.375 462.406 98.4766 461.953 98.6797C461.516 98.8828 461.164 99.1641 460.898 99.5234C460.633 99.8828 460.5 100.305 460.5 100.789C460.5 101.133 460.578 101.445 460.734 101.727C460.906 101.992 461.164 102.242 461.508 102.477C461.852 102.695 462.289 102.898 462.82 103.086C463.352 103.258 463.992 103.414 464.742 103.555C466.445 103.867 468.039 104.312 469.523 104.891C471.008 105.469 472.211 106.289 473.133 107.352C474.07 108.414 474.539 109.844 474.539 111.641C474.539 112.766 474.281 113.805 473.766 114.758C473.25 115.695 472.508 116.523 471.539 117.242C470.57 117.945 469.406 118.492 468.047 118.883C466.688 119.273 465.156 119.469 463.453 119.469C461.031 119.469 458.984 119.039 457.312 118.18C455.641 117.305 454.375 116.211 453.516 114.898C452.672 113.57 452.25 112.227 452.25 110.867H459.609C459.641 111.648 459.828 112.289 460.172 112.789C460.531 113.289 461.008 113.656 461.602 113.891C462.195 114.125 462.883 114.242 463.664 114.242C464.383 114.242 464.977 114.141 465.445 113.938C465.93 113.734 466.297 113.461 466.547 113.117C466.797 112.758 466.922 112.344 466.922 111.875Z" fill="black"/>
<path d="M1134 0H1348C1356.28 0 1363 6.71573 1363 15V148C1363 156.284 1356.28 163 1348 163H1134V0Z" fill="#DE374B"/>
<path d="M1233.03 63.3605C1233.03 62.6388 1233.29 61.9467 1233.74 61.4365C1234.2 60.9262 1234.82 60.6395 1235.47 60.6395H1261.53C1262.18 60.6395 1262.8 60.9262 1263.26 61.4365C1263.71 61.9467 1263.97 62.6388 1263.97 63.3605C1263.97 64.0821 1263.71 64.7742 1263.26 65.2844C1262.8 65.7947 1262.18 66.0814 1261.53 66.0814H1235.47C1234.82 66.0814 1234.2 65.7947 1233.74 65.2844C1233.29 64.7742 1233.03 64.0821 1233.03 63.3605ZM1235.47 73.3372C1234.82 73.3372 1234.2 73.6239 1233.74 74.1341C1233.29 74.6444 1233.03 75.3365 1233.03 76.0581C1233.03 76.7798 1233.29 77.4718 1233.74 77.9821C1234.2 78.4924 1234.82 78.7791 1235.47 78.7791H1251.76C1252.41 78.7791 1253.03 78.4924 1253.48 77.9821C1253.94 77.4718 1254.2 76.7798 1254.2 76.0581C1254.2 75.3365 1253.94 74.6444 1253.48 74.1341C1253.03 73.6239 1252.41 73.3372 1251.76 73.3372H1235.47Z" fill="white"/>
<path fill-rule="evenodd" clip-rule="evenodd" d="M1241.81 42.5C1237.35 42.5 1233.76 42.5 1230.94 42.9245C1228.01 43.3598 1225.54 44.3031 1223.58 46.4834C1221.62 48.6674 1220.78 51.4174 1220.38 54.6825C1220 57.8279 1220 61.8295 1220 66.7888V96.2112C1220 101.171 1220 105.172 1220.38 108.317C1220.77 111.583 1221.62 114.333 1223.58 116.517C1225.54 118.701 1228.01 119.637 1230.94 120.079C1233.76 120.5 1237.35 120.5 1241.81 120.5H1255.19C1259.65 120.5 1263.24 120.5 1266.06 120.079C1268.99 119.637 1271.46 118.701 1273.42 116.517C1275.38 114.333 1276.22 111.583 1276.62 108.317C1277 105.172 1277 101.171 1277 96.2112V66.7888C1277 61.8295 1277 57.8279 1276.62 54.6825C1276.22 51.4174 1275.38 48.6674 1273.42 46.4834C1271.46 44.2994 1268.99 43.3634 1266.06 42.9245C1263.24 42.5 1259.65 42.5 1255.19 42.5H1241.81ZM1227.04 50.3327C1227.94 49.3277 1229.2 48.6747 1231.6 48.3155C1234.05 47.9491 1237.31 47.9419 1241.99 47.9419H1255.02C1259.69 47.9419 1262.95 47.9491 1265.41 48.3155C1267.81 48.6747 1269.07 49.3313 1269.97 50.3327C1270.87 51.3376 1271.46 52.7452 1271.78 55.4117C1272.11 58.1472 1272.12 61.7823 1272.12 66.9884V93.2907H1234.76C1232.1 93.2907 1230.28 93.2907 1228.72 93.7551C1227.35 94.1643 1226.05 94.8371 1224.89 95.7432V66.9884C1224.89 61.7823 1224.89 58.1472 1225.22 55.4081C1225.54 52.7452 1226.14 51.3376 1227.04 50.3327ZM1224.98 104.171C1225.03 105.455 1225.1 106.583 1225.22 107.592C1225.55 110.255 1226.14 111.662 1227.04 112.667C1227.94 113.672 1229.2 114.325 1231.6 114.684C1234.05 115.051 1237.31 115.058 1241.99 115.058H1255.02C1259.69 115.058 1262.95 115.051 1265.41 114.684C1267.81 114.325 1269.07 113.669 1269.97 112.667C1270.87 111.662 1271.46 110.255 1271.78 107.588C1272.05 105.357 1272.1 102.527 1272.11 98.7326H1235.14C1231.95 98.7326 1230.84 98.7543 1229.98 99.0119C1228.84 99.3549 1227.78 100.004 1226.91 100.902C1226.03 101.801 1225.37 102.923 1224.98 104.171Z" fill="white"/>
</svg>
