<svg width="1363" height="297" viewBox="0 0 1363 297" fill="none" xmlns="http://www.w3.org/2000/svg">
<path d="M0 15C0 6.71573 6.71573 0 15 0H37V297H15C6.71573 297 0 290.284 0 282V15Z" fill="#DE374B"/>
<path d="M37 0H1066V297H37V0Z" fill="#F0F0F0"/>
<path d="M112.354 59.8301V63.9434H98.9941V59.8301H112.354ZM100.559 49.4062V75H95.2852V49.4062H100.559ZM116.115 49.4062V75H110.859V49.4062H116.115ZM130.652 70.7109V62.2383C130.652 61.6289 130.553 61.1074 130.354 60.6738C130.154 60.2285 129.844 59.8828 129.422 59.6367C129.012 59.3906 128.479 59.2676 127.822 59.2676C127.26 59.2676 126.773 59.3672 126.363 59.5664C125.953 59.7539 125.637 60.0293 125.414 60.3926C125.191 60.7441 125.08 61.1602 125.08 61.6406H120.018C120.018 60.832 120.205 60.0645 120.58 59.3379C120.955 58.6113 121.5 57.9727 122.215 57.4219C122.93 56.8594 123.779 56.4199 124.764 56.1035C125.76 55.7871 126.873 55.6289 128.104 55.6289C129.58 55.6289 130.893 55.875 132.041 56.3672C133.189 56.8594 134.092 57.5977 134.748 58.582C135.416 59.5664 135.75 60.7969 135.75 62.2734V70.4121C135.75 71.4551 135.814 72.3105 135.943 72.9785C136.072 73.6348 136.26 74.209 136.506 74.7012V75H131.391C131.145 74.4844 130.957 73.8398 130.828 73.0664C130.711 72.2812 130.652 71.4961 130.652 70.7109ZM131.32 63.416L131.355 66.2812H128.525C127.857 66.2812 127.277 66.3574 126.785 66.5098C126.293 66.6621 125.889 66.8789 125.572 67.1602C125.256 67.4297 125.021 67.7461 124.869 68.1094C124.729 68.4727 124.658 68.8711 124.658 69.3047C124.658 69.7383 124.758 70.1309 124.957 70.4824C125.156 70.8223 125.443 71.0918 125.818 71.291C126.193 71.4785 126.633 71.5723 127.137 71.5723C127.898 71.5723 128.561 71.4199 129.123 71.1152C129.686 70.8105 130.119 70.4355 130.424 69.9902C130.74 69.5449 130.904 69.123 130.916 68.7246L132.252 70.8691C132.064 71.3496 131.807 71.8477 131.479 72.3633C131.162 72.8789 130.758 73.3652 130.266 73.8223C129.773 74.2676 129.182 74.6367 128.49 74.9297C127.799 75.2109 126.979 75.3516 126.029 75.3516C124.822 75.3516 123.727 75.1113 122.742 74.6309C121.77 74.1387 120.996 73.4648 120.422 72.6094C119.859 71.7422 119.578 70.7578 119.578 69.6562C119.578 68.6602 119.766 67.7754 120.141 67.002C120.516 66.2285 121.066 65.5781 121.793 65.0508C122.531 64.5117 123.451 64.1074 124.553 63.8379C125.654 63.5566 126.932 63.416 128.385 63.416H131.32ZM150.885 70.8516V48H155.982V75H151.395L150.885 70.8516ZM138.861 65.7188V65.3496C138.861 63.8965 139.025 62.5781 139.354 61.3945C139.682 60.1992 140.162 59.1738 140.795 58.3184C141.428 57.4629 142.207 56.8008 143.133 56.332C144.059 55.8633 145.113 55.6289 146.297 55.6289C147.41 55.6289 148.383 55.8633 149.215 56.332C150.059 56.8008 150.773 57.4688 151.359 58.3359C151.957 59.1914 152.438 60.2051 152.801 61.377C153.164 62.5371 153.428 63.8086 153.592 65.1914V66C153.428 67.3242 153.164 68.5547 152.801 69.6914C152.438 70.8281 151.957 71.8242 151.359 72.6797C150.773 73.5234 150.059 74.1797 149.215 74.6484C148.371 75.1172 147.387 75.3516 146.262 75.3516C145.078 75.3516 144.023 75.1113 143.098 74.6309C142.184 74.1504 141.41 73.4766 140.777 72.6094C140.156 71.7422 139.682 70.7227 139.354 69.5508C139.025 68.3789 138.861 67.1016 138.861 65.7188ZM143.924 65.3496V65.7188C143.924 66.5039 143.982 67.2363 144.1 67.916C144.229 68.5957 144.434 69.1992 144.715 69.7266C145.008 70.2422 145.383 70.6465 145.84 70.9395C146.309 71.2207 146.877 71.3613 147.545 71.3613C148.412 71.3613 149.127 71.168 149.689 70.7812C150.252 70.3828 150.68 69.8379 150.973 69.1465C151.277 68.4551 151.453 67.6582 151.5 66.7559V64.4531C151.465 63.7148 151.359 63.0527 151.184 62.4668C151.02 61.8691 150.773 61.3594 150.445 60.9375C150.129 60.5156 149.73 60.1875 149.25 59.9531C148.781 59.7188 148.225 59.6016 147.58 59.6016C146.924 59.6016 146.361 59.7539 145.893 60.0586C145.424 60.3516 145.043 60.7559 144.75 61.2715C144.469 61.7871 144.258 62.3965 144.117 63.0996C143.988 63.791 143.924 64.541 143.924 65.3496ZM165.281 55.9805V75H160.201V55.9805H165.281ZM159.885 51.0234C159.885 50.2852 160.143 49.6758 160.658 49.1953C161.174 48.7148 161.865 48.4746 162.732 48.4746C163.588 48.4746 164.273 48.7148 164.789 49.1953C165.316 49.6758 165.58 50.2852 165.58 51.0234C165.58 51.7617 165.316 52.3711 164.789 52.8516C164.273 53.332 163.588 53.5723 162.732 53.5723C161.865 53.5723 161.174 53.332 160.658 52.8516C160.143 52.3711 159.885 51.7617 159.885 51.0234ZM193.582 66.5098H198.838C198.732 68.2324 198.258 69.7617 197.414 71.0977C196.582 72.4336 195.416 73.4766 193.916 74.2266C192.428 74.9766 190.635 75.3516 188.537 75.3516C186.896 75.3516 185.426 75.0703 184.125 74.5078C182.824 73.9336 181.711 73.1133 180.785 72.0469C179.871 70.9805 179.174 69.6914 178.693 68.1797C178.213 66.668 177.973 64.9746 177.973 63.0996V61.3242C177.973 59.4492 178.219 57.7559 178.711 56.2441C179.215 54.7207 179.93 53.4258 180.855 52.3594C181.793 51.293 182.912 50.4727 184.213 49.8984C185.514 49.3242 186.967 49.0371 188.572 49.0371C190.705 49.0371 192.504 49.4238 193.969 50.1973C195.445 50.9707 196.588 52.0371 197.396 53.3965C198.217 54.7559 198.709 56.3027 198.873 58.0371H193.6C193.541 57.0059 193.336 56.1328 192.984 55.418C192.633 54.6914 192.1 54.1465 191.385 53.7832C190.682 53.4082 189.744 53.2207 188.572 53.2207C187.693 53.2207 186.926 53.3848 186.27 53.7129C185.613 54.041 185.062 54.5391 184.617 55.207C184.172 55.875 183.838 56.7188 183.615 57.7383C183.404 58.7461 183.299 59.9297 183.299 61.2891V63.0996C183.299 64.4238 183.398 65.5898 183.598 66.5977C183.797 67.5938 184.102 68.4375 184.512 69.1289C184.934 69.8086 185.473 70.3242 186.129 70.6758C186.797 71.0156 187.6 71.1855 188.537 71.1855C189.639 71.1855 190.547 71.0098 191.262 70.6582C191.977 70.3066 192.521 69.7852 192.896 69.0938C193.283 68.4023 193.512 67.541 193.582 66.5098ZM206.924 48V75H201.861V48H206.924ZM206.203 64.8223H204.814C204.826 63.498 205.002 62.2793 205.342 61.166C205.682 60.041 206.168 59.0684 206.801 58.248C207.434 57.416 208.189 56.7715 209.068 56.3145C209.959 55.8574 210.943 55.6289 212.021 55.6289C212.959 55.6289 213.809 55.7637 214.57 56.0332C215.344 56.291 216.006 56.7129 216.557 57.2988C217.119 57.873 217.553 58.6289 217.857 59.5664C218.162 60.5039 218.314 61.6406 218.314 62.9766V75H213.217V62.9414C213.217 62.0977 213.094 61.4355 212.848 60.9551C212.613 60.4629 212.268 60.1172 211.811 59.918C211.365 59.707 210.814 59.6016 210.158 59.6016C209.432 59.6016 208.811 59.7363 208.295 60.0059C207.791 60.2754 207.387 60.6504 207.082 61.1309C206.777 61.5996 206.555 62.1504 206.414 62.7832C206.273 63.416 206.203 64.0957 206.203 64.8223ZM230.918 75.3516C229.441 75.3516 228.117 75.1172 226.945 74.6484C225.773 74.168 224.777 73.5059 223.957 72.6621C223.148 71.8184 222.527 70.8398 222.094 69.7266C221.66 68.6016 221.443 67.4062 221.443 66.1406V65.4375C221.443 63.9961 221.648 62.6777 222.059 61.4824C222.469 60.2871 223.055 59.25 223.816 58.3711C224.59 57.4922 225.527 56.8184 226.629 56.3496C227.73 55.8691 228.973 55.6289 230.355 55.6289C231.703 55.6289 232.898 55.8516 233.941 56.2969C234.984 56.7422 235.857 57.375 236.561 58.1953C237.275 59.0156 237.814 60 238.178 61.1484C238.541 62.2852 238.723 63.5508 238.723 64.9453V67.0547H223.605V63.6797H233.748V63.293C233.748 62.5898 233.619 61.9629 233.361 61.4121C233.115 60.8496 232.74 60.4043 232.236 60.0762C231.732 59.748 231.088 59.584 230.303 59.584C229.635 59.584 229.061 59.7305 228.58 60.0234C228.1 60.3164 227.707 60.7266 227.402 61.2539C227.109 61.7812 226.887 62.4023 226.734 63.1172C226.594 63.8203 226.523 64.5938 226.523 65.4375V66.1406C226.523 66.9023 226.629 67.6055 226.84 68.25C227.062 68.8945 227.373 69.4512 227.771 69.9199C228.182 70.3887 228.674 70.752 229.248 71.0098C229.834 71.2676 230.496 71.3965 231.234 71.3965C232.148 71.3965 232.998 71.2207 233.783 70.8691C234.58 70.5059 235.266 69.9609 235.84 69.2344L238.301 71.9062C237.902 72.4805 237.357 73.0312 236.666 73.5586C235.986 74.0859 235.166 74.5195 234.205 74.8594C233.244 75.1875 232.148 75.3516 230.918 75.3516ZM251.871 70.7109V62.2383C251.871 61.6289 251.771 61.1074 251.572 60.6738C251.373 60.2285 251.062 59.8828 250.641 59.6367C250.23 59.3906 249.697 59.2676 249.041 59.2676C248.479 59.2676 247.992 59.3672 247.582 59.5664C247.172 59.7539 246.855 60.0293 246.633 60.3926C246.41 60.7441 246.299 61.1602 246.299 61.6406H241.236C241.236 60.832 241.424 60.0645 241.799 59.3379C242.174 58.6113 242.719 57.9727 243.434 57.4219C244.148 56.8594 244.998 56.4199 245.982 56.1035C246.979 55.7871 248.092 55.6289 249.322 55.6289C250.799 55.6289 252.111 55.875 253.26 56.3672C254.408 56.8594 255.311 57.5977 255.967 58.582C256.635 59.5664 256.969 60.7969 256.969 62.2734V70.4121C256.969 71.4551 257.033 72.3105 257.162 72.9785C257.291 73.6348 257.479 74.209 257.725 74.7012V75H252.609C252.363 74.4844 252.176 73.8398 252.047 73.0664C251.93 72.2812 251.871 71.4961 251.871 70.7109ZM252.539 63.416L252.574 66.2812H249.744C249.076 66.2812 248.496 66.3574 248.004 66.5098C247.512 66.6621 247.107 66.8789 246.791 67.1602C246.475 67.4297 246.24 67.7461 246.088 68.1094C245.947 68.4727 245.877 68.8711 245.877 69.3047C245.877 69.7383 245.977 70.1309 246.176 70.4824C246.375 70.8223 246.662 71.0918 247.037 71.291C247.412 71.4785 247.852 71.5723 248.355 71.5723C249.117 71.5723 249.779 71.4199 250.342 71.1152C250.904 70.8105 251.338 70.4355 251.643 69.9902C251.959 69.5449 252.123 69.123 252.135 68.7246L253.471 70.8691C253.283 71.3496 253.025 71.8477 252.697 72.3633C252.381 72.8789 251.977 73.3652 251.484 73.8223C250.992 74.2676 250.4 74.6367 249.709 74.9297C249.018 75.2109 248.197 75.3516 247.248 75.3516C246.041 75.3516 244.945 75.1113 243.961 74.6309C242.988 74.1387 242.215 73.4648 241.641 72.6094C241.078 71.7422 240.797 70.7578 240.797 69.6562C240.797 68.6602 240.984 67.7754 241.359 67.002C241.734 66.2285 242.285 65.5781 243.012 65.0508C243.75 64.5117 244.67 64.1074 245.771 63.8379C246.873 63.5566 248.15 63.416 249.604 63.416H252.539ZM266.215 55.9805V75H261.135V55.9805H266.215ZM260.818 51.0234C260.818 50.2852 261.076 49.6758 261.592 49.1953C262.107 48.7148 262.799 48.4746 263.666 48.4746C264.521 48.4746 265.207 48.7148 265.723 49.1953C266.25 49.6758 266.514 50.2852 266.514 51.0234C266.514 51.7617 266.25 52.3711 265.723 52.8516C265.207 53.332 264.521 53.5723 263.666 53.5723C262.799 53.5723 262.107 53.332 261.592 52.8516C261.076 52.3711 260.818 51.7617 260.818 51.0234ZM279.715 55.9805V59.5664H268.641V55.9805H279.715ZM271.383 51.2871H276.445V69.2695C276.445 69.8203 276.516 70.2422 276.656 70.5352C276.809 70.8281 277.031 71.0332 277.324 71.1504C277.617 71.2559 277.986 71.3086 278.432 71.3086C278.748 71.3086 279.029 71.2969 279.275 71.2734C279.533 71.2383 279.75 71.2031 279.926 71.168L279.943 74.8945C279.51 75.0352 279.041 75.1465 278.537 75.2285C278.033 75.3105 277.477 75.3516 276.867 75.3516C275.754 75.3516 274.781 75.1699 273.949 74.8066C273.129 74.4316 272.496 73.834 272.051 73.0137C271.605 72.1934 271.383 71.1152 271.383 69.7793V51.2871ZM281.332 65.6836V65.3145C281.332 63.9199 281.531 62.6367 281.93 61.4648C282.328 60.2812 282.908 59.2559 283.67 58.3887C284.432 57.5215 285.369 56.8477 286.482 56.3672C287.596 55.875 288.873 55.6289 290.314 55.6289C291.756 55.6289 293.039 55.875 294.164 56.3672C295.289 56.8477 296.232 57.5215 296.994 58.3887C297.768 59.2559 298.354 60.2812 298.752 61.4648C299.15 62.6367 299.35 63.9199 299.35 65.3145V65.6836C299.35 67.0664 299.15 68.3496 298.752 69.5332C298.354 70.7051 297.768 71.7305 296.994 72.6094C296.232 73.4766 295.295 74.1504 294.182 74.6309C293.068 75.1113 291.791 75.3516 290.35 75.3516C288.908 75.3516 287.625 75.1113 286.5 74.6309C285.387 74.1504 284.443 73.4766 283.67 72.6094C282.908 71.7305 282.328 70.7051 281.93 69.5332C281.531 68.3496 281.332 67.0664 281.332 65.6836ZM286.395 65.3145V65.6836C286.395 66.4805 286.465 67.2246 286.605 67.916C286.746 68.6074 286.969 69.2168 287.273 69.7441C287.59 70.2598 288 70.6641 288.504 70.957C289.008 71.25 289.623 71.3965 290.35 71.3965C291.053 71.3965 291.656 71.25 292.16 70.957C292.664 70.6641 293.068 70.2598 293.373 69.7441C293.678 69.2168 293.9 68.6074 294.041 67.916C294.193 67.2246 294.27 66.4805 294.27 65.6836V65.3145C294.27 64.541 294.193 63.8145 294.041 63.1348C293.9 62.4434 293.672 61.834 293.355 61.3066C293.051 60.7676 292.646 60.3457 292.143 60.041C291.639 59.7363 291.029 59.584 290.314 59.584C289.6 59.584 288.99 59.7363 288.486 60.041C287.994 60.3457 287.59 60.7676 287.273 61.3066C286.969 61.834 286.746 62.4434 286.605 63.1348C286.465 63.8145 286.395 64.541 286.395 65.3145Z" fill="#888888"/>
<path d="M122.859 115.992V123.375H102.434V115.992H122.859ZM105.633 100.188V140H96.0352V100.188H105.633ZM129.312 100.188V140H119.742V100.188H129.312ZM149.301 140.547C146.895 140.547 144.743 140.173 142.848 139.426C140.952 138.66 139.348 137.612 138.035 136.281C136.741 134.951 135.747 133.419 135.055 131.688C134.38 129.956 134.043 128.124 134.043 126.191V125.152C134.043 122.983 134.344 120.978 134.945 119.137C135.547 117.277 136.44 115.655 137.625 114.27C138.81 112.884 140.296 111.809 142.082 111.043C143.868 110.259 145.947 109.867 148.316 109.867C150.413 109.867 152.29 110.204 153.949 110.879C155.608 111.553 157.012 112.52 158.16 113.777C159.327 115.035 160.211 116.557 160.812 118.344C161.432 120.13 161.742 122.135 161.742 124.359V128.105H137.57V122.336H152.746V121.625C152.764 120.641 152.591 119.802 152.227 119.109C151.88 118.417 151.37 117.888 150.695 117.523C150.021 117.159 149.201 116.977 148.234 116.977C147.232 116.977 146.402 117.195 145.746 117.633C145.108 118.07 144.607 118.672 144.242 119.438C143.896 120.185 143.65 121.051 143.504 122.035C143.358 123.02 143.285 124.059 143.285 125.152V126.191C143.285 127.285 143.431 128.279 143.723 129.172C144.033 130.065 144.47 130.831 145.035 131.469C145.618 132.089 146.311 132.572 147.113 132.918C147.934 133.264 148.863 133.438 149.902 133.438C151.16 133.438 152.4 133.201 153.621 132.727C154.842 132.253 155.891 131.469 156.766 130.375L160.949 135.352C160.348 136.208 159.491 137.038 158.379 137.84C157.285 138.642 155.973 139.298 154.441 139.809C152.91 140.301 151.197 140.547 149.301 140.547ZM174.785 116.676V140H165.57V110.414H174.211L174.785 116.676ZM173.664 124.195L171.559 124.25C171.559 122.172 171.805 120.258 172.297 118.508C172.789 116.758 173.518 115.236 174.484 113.941C175.451 112.647 176.635 111.645 178.039 110.934C179.461 110.223 181.102 109.867 182.961 109.867C184.255 109.867 185.431 110.068 186.488 110.469C187.546 110.852 188.457 111.462 189.223 112.301C189.988 113.121 190.572 114.197 190.973 115.527C191.392 116.84 191.602 118.417 191.602 120.258V140H182.387V121.434C182.387 120.176 182.241 119.228 181.949 118.59C181.676 117.952 181.275 117.523 180.746 117.305C180.217 117.086 179.57 116.977 178.805 116.977C178.003 116.977 177.283 117.159 176.645 117.523C176.007 117.888 175.46 118.398 175.004 119.055C174.566 119.693 174.229 120.449 173.992 121.324C173.773 122.199 173.664 123.156 173.664 124.195ZM190.562 124.195L187.992 124.25C187.992 122.172 188.22 120.258 188.676 118.508C189.15 116.758 189.852 115.236 190.781 113.941C191.729 112.647 192.905 111.645 194.309 110.934C195.712 110.223 197.344 109.867 199.203 109.867C200.552 109.867 201.792 110.068 202.922 110.469C204.052 110.87 205.027 111.517 205.848 112.41C206.668 113.303 207.306 114.488 207.762 115.965C208.217 117.423 208.445 119.228 208.445 121.379V140H199.203V121.379C199.203 120.158 199.057 119.237 198.766 118.617C198.492 117.979 198.091 117.551 197.562 117.332C197.034 117.095 196.405 116.977 195.676 116.977C194.801 116.977 194.044 117.159 193.406 117.523C192.768 117.888 192.23 118.398 191.793 119.055C191.374 119.693 191.064 120.449 190.863 121.324C190.663 122.199 190.562 123.156 190.562 124.195ZM229.09 132.562V120.367C229.09 119.529 228.971 118.809 228.734 118.207C228.497 117.605 228.124 117.141 227.613 116.812C227.103 116.466 226.419 116.293 225.562 116.293C224.87 116.293 224.277 116.411 223.785 116.648C223.293 116.885 222.919 117.241 222.664 117.715C222.409 118.189 222.281 118.79 222.281 119.52H213.066C213.066 118.152 213.367 116.885 213.969 115.719C214.589 114.534 215.464 113.504 216.594 112.629C217.742 111.754 219.109 111.079 220.695 110.605C222.299 110.113 224.086 109.867 226.055 109.867C228.406 109.867 230.503 110.259 232.344 111.043C234.203 111.827 235.671 113.003 236.746 114.57C237.822 116.12 238.359 118.07 238.359 120.422V132.535C238.359 134.467 238.469 135.935 238.688 136.938C238.906 137.922 239.216 138.788 239.617 139.535V140H230.375C229.938 139.089 229.609 137.977 229.391 136.664C229.19 135.333 229.09 133.966 229.09 132.562ZM230.211 121.926L230.266 126.848H226.191C225.335 126.848 224.605 126.966 224.004 127.203C223.421 127.44 222.947 127.768 222.582 128.188C222.236 128.589 221.98 129.044 221.816 129.555C221.671 130.065 221.598 130.603 221.598 131.168C221.598 131.715 221.725 132.207 221.98 132.645C222.254 133.064 222.618 133.392 223.074 133.629C223.53 133.866 224.04 133.984 224.605 133.984C225.626 133.984 226.492 133.793 227.203 133.41C227.932 133.009 228.488 132.526 228.871 131.961C229.254 131.396 229.445 130.867 229.445 130.375L231.469 134.148C231.104 134.878 230.685 135.616 230.211 136.363C229.755 137.111 229.181 137.803 228.488 138.441C227.814 139.061 226.984 139.572 226 139.973C225.016 140.355 223.822 140.547 222.418 140.547C220.595 140.547 218.918 140.173 217.387 139.426C215.874 138.678 214.661 137.639 213.75 136.309C212.839 134.96 212.383 133.41 212.383 131.66C212.383 130.129 212.656 128.762 213.203 127.559C213.768 126.355 214.616 125.335 215.746 124.496C216.876 123.658 218.316 123.02 220.066 122.582C221.816 122.145 223.876 121.926 226.246 121.926H230.211ZM266.551 126.52H276.121C275.993 129.29 275.246 131.733 273.879 133.848C272.512 135.962 270.616 137.612 268.191 138.797C265.785 139.964 262.941 140.547 259.66 140.547C256.999 140.547 254.62 140.1 252.523 139.207C250.445 138.314 248.677 137.029 247.219 135.352C245.779 133.674 244.676 131.642 243.91 129.254C243.163 126.866 242.789 124.177 242.789 121.188V119.027C242.789 116.038 243.181 113.349 243.965 110.961C244.767 108.555 245.897 106.513 247.355 104.836C248.832 103.141 250.6 101.846 252.66 100.953C254.72 100.06 257.008 99.6133 259.523 99.6133C262.987 99.6133 265.913 100.233 268.301 101.473C270.689 102.712 272.539 104.417 273.852 106.586C275.164 108.737 275.939 111.189 276.176 113.941H266.605C266.569 112.447 266.314 111.198 265.84 110.195C265.366 109.174 264.618 108.409 263.598 107.898C262.577 107.388 261.219 107.133 259.523 107.133C258.339 107.133 257.309 107.352 256.434 107.789C255.559 108.227 254.829 108.919 254.246 109.867C253.663 110.815 253.225 112.046 252.934 113.559C252.66 115.053 252.523 116.858 252.523 118.973V121.188C252.523 123.302 252.651 125.107 252.906 126.602C253.161 128.096 253.572 129.318 254.137 130.266C254.702 131.214 255.431 131.915 256.324 132.371C257.236 132.809 258.348 133.027 259.66 133.027C261.118 133.027 262.349 132.799 263.352 132.344C264.354 131.87 265.129 131.159 265.676 130.211C266.223 129.245 266.514 128.014 266.551 126.52ZM279.074 125.508V124.934C279.074 122.764 279.384 120.768 280.004 118.945C280.624 117.104 281.535 115.509 282.738 114.16C283.941 112.811 285.427 111.763 287.195 111.016C288.964 110.25 291.005 109.867 293.32 109.867C295.654 109.867 297.704 110.25 299.473 111.016C301.259 111.763 302.754 112.811 303.957 114.16C305.16 115.509 306.072 117.104 306.691 118.945C307.311 120.768 307.621 122.764 307.621 124.934V125.508C307.621 127.659 307.311 129.655 306.691 131.496C306.072 133.319 305.16 134.914 303.957 136.281C302.754 137.63 301.268 138.678 299.5 139.426C297.732 140.173 295.69 140.547 293.375 140.547C291.06 140.547 289.009 140.173 287.223 139.426C285.436 138.678 283.941 137.63 282.738 136.281C281.535 134.914 280.624 133.319 280.004 131.496C279.384 129.655 279.074 127.659 279.074 125.508ZM288.289 124.934V125.508C288.289 126.62 288.371 127.659 288.535 128.625C288.699 129.591 288.973 130.439 289.355 131.168C289.738 131.879 290.258 132.435 290.914 132.836C291.57 133.237 292.391 133.438 293.375 133.438C294.341 133.438 295.143 133.237 295.781 132.836C296.438 132.435 296.957 131.879 297.34 131.168C297.723 130.439 297.996 129.591 298.16 128.625C298.324 127.659 298.406 126.62 298.406 125.508V124.934C298.406 123.858 298.324 122.846 298.16 121.898C297.996 120.932 297.723 120.085 297.34 119.355C296.957 118.608 296.438 118.025 295.781 117.605C295.125 117.186 294.305 116.977 293.32 116.977C292.354 116.977 291.543 117.186 290.887 117.605C290.249 118.025 289.738 118.608 289.355 119.355C288.973 120.085 288.699 120.932 288.535 121.898C288.371 122.846 288.289 123.858 288.289 124.934ZM320.773 116.73V140H311.559V110.414H320.199L320.773 116.73ZM319.68 124.195L317.52 124.25C317.52 121.99 317.793 119.975 318.34 118.207C318.887 116.421 319.661 114.908 320.664 113.668C321.667 112.428 322.861 111.49 324.246 110.852C325.65 110.195 327.208 109.867 328.922 109.867C330.289 109.867 331.538 110.068 332.668 110.469C333.816 110.87 334.801 111.517 335.621 112.41C336.46 113.303 337.098 114.488 337.535 115.965C337.991 117.423 338.219 119.228 338.219 121.379V140H328.949V121.352C328.949 120.167 328.785 119.264 328.457 118.645C328.129 118.007 327.655 117.569 327.035 117.332C326.415 117.095 325.659 116.977 324.766 116.977C323.818 116.977 323.016 117.159 322.359 117.523C321.703 117.888 321.174 118.398 320.773 119.055C320.391 119.693 320.108 120.449 319.926 121.324C319.762 122.199 319.68 123.156 319.68 124.195ZM352.383 116.73V140H343.168V110.414H351.809L352.383 116.73ZM351.289 124.195L349.129 124.25C349.129 121.99 349.402 119.975 349.949 118.207C350.496 116.421 351.271 114.908 352.273 113.668C353.276 112.428 354.47 111.49 355.855 110.852C357.259 110.195 358.818 109.867 360.531 109.867C361.898 109.867 363.147 110.068 364.277 110.469C365.426 110.87 366.41 111.517 367.23 112.41C368.069 113.303 368.707 114.488 369.145 115.965C369.6 117.423 369.828 119.228 369.828 121.379V140H360.559V121.352C360.559 120.167 360.395 119.264 360.066 118.645C359.738 118.007 359.264 117.569 358.645 117.332C358.025 117.095 357.268 116.977 356.375 116.977C355.427 116.977 354.625 117.159 353.969 117.523C353.312 117.888 352.784 118.398 352.383 119.055C352 119.693 351.717 120.449 351.535 121.324C351.371 122.199 351.289 123.156 351.289 124.195ZM389.27 140.547C386.863 140.547 384.712 140.173 382.816 139.426C380.921 138.66 379.316 137.612 378.004 136.281C376.71 134.951 375.716 133.419 375.023 131.688C374.349 129.956 374.012 128.124 374.012 126.191V125.152C374.012 122.983 374.312 120.978 374.914 119.137C375.516 117.277 376.409 115.655 377.594 114.27C378.779 112.884 380.264 111.809 382.051 111.043C383.837 110.259 385.915 109.867 388.285 109.867C390.382 109.867 392.259 110.204 393.918 110.879C395.577 111.553 396.98 112.52 398.129 113.777C399.296 115.035 400.18 116.557 400.781 118.344C401.401 120.13 401.711 122.135 401.711 124.359V128.105H377.539V122.336H392.715V121.625C392.733 120.641 392.56 119.802 392.195 119.109C391.849 118.417 391.339 117.888 390.664 117.523C389.99 117.159 389.169 116.977 388.203 116.977C387.201 116.977 386.371 117.195 385.715 117.633C385.077 118.07 384.576 118.672 384.211 119.438C383.865 120.185 383.618 121.051 383.473 122.035C383.327 123.02 383.254 124.059 383.254 125.152V126.191C383.254 127.285 383.4 128.279 383.691 129.172C384.001 130.065 384.439 130.831 385.004 131.469C385.587 132.089 386.28 132.572 387.082 132.918C387.902 133.264 388.832 133.438 389.871 133.438C391.129 133.438 392.368 133.201 393.59 132.727C394.811 132.253 395.859 131.469 396.734 130.375L400.918 135.352C400.316 136.208 399.46 137.038 398.348 137.84C397.254 138.642 395.941 139.298 394.41 139.809C392.879 140.301 391.165 140.547 389.27 140.547ZM417.953 133.438C418.81 133.438 419.539 133.283 420.141 132.973C420.76 132.645 421.225 132.189 421.535 131.605C421.863 131.004 422.018 130.284 422 129.445H430.668C430.686 131.669 430.139 133.62 429.027 135.297C427.934 136.956 426.439 138.25 424.543 139.18C422.665 140.091 420.542 140.547 418.172 140.547C415.857 140.547 413.833 140.173 412.102 139.426C410.37 138.66 408.921 137.603 407.754 136.254C406.605 134.887 405.74 133.292 405.156 131.469C404.591 129.646 404.309 127.668 404.309 125.535V124.906C404.309 122.773 404.591 120.796 405.156 118.973C405.74 117.132 406.605 115.536 407.754 114.188C408.921 112.82 410.361 111.763 412.074 111.016C413.806 110.25 415.82 109.867 418.117 109.867C420.578 109.867 422.747 110.332 424.625 111.262C426.521 112.191 428.007 113.54 429.082 115.309C430.158 117.077 430.686 119.219 430.668 121.734H422C422.018 120.841 421.882 120.039 421.59 119.328C421.298 118.617 420.842 118.052 420.223 117.633C419.621 117.195 418.846 116.977 417.898 116.977C416.951 116.977 416.185 117.186 415.602 117.605C415.018 118.025 414.572 118.608 414.262 119.355C413.97 120.085 413.77 120.923 413.66 121.871C413.569 122.819 413.523 123.831 413.523 124.906V125.535C413.523 126.629 413.569 127.659 413.66 128.625C413.77 129.573 413.979 130.411 414.289 131.141C414.599 131.852 415.046 132.417 415.629 132.836C416.212 133.237 416.987 133.438 417.953 133.438ZM450.191 110.414V116.812H432.363V110.414H450.191ZM436.109 103.059H445.324V130.348C445.324 131.132 445.415 131.742 445.598 132.18C445.78 132.599 446.09 132.9 446.527 133.082C446.983 133.246 447.585 133.328 448.332 133.328C448.861 133.328 449.298 133.319 449.645 133.301C449.991 133.264 450.319 133.219 450.629 133.164V139.754C449.845 140.009 449.025 140.201 448.168 140.328C447.311 140.474 446.4 140.547 445.434 140.547C443.465 140.547 441.779 140.237 440.375 139.617C438.99 138.997 437.932 138.022 437.203 136.691C436.474 135.361 436.109 133.629 436.109 131.496V103.059Z" fill="black"/>
<rect x="93" y="178" width="917" height="77" rx="10" fill="#D3D3D3"/>
<rect x="111" y="196" width="148" height="41" rx="3" fill="#424242"/>
<path d="M134.234 210.203H139.271C140.255 210.203 141.11 210.35 141.837 210.643C142.563 210.936 143.123 211.369 143.516 211.943C143.914 212.518 144.113 213.227 144.113 214.07C144.113 214.803 143.999 215.415 143.771 215.907C143.542 216.399 143.223 216.807 142.812 217.129C142.408 217.445 141.937 217.706 141.397 217.911L140.387 218.482H136.159L136.142 216.101H139.271C139.663 216.101 139.988 216.03 140.246 215.89C140.504 215.749 140.697 215.55 140.826 215.292C140.961 215.028 141.028 214.715 141.028 214.352C141.028 213.982 140.961 213.666 140.826 213.402C140.691 213.139 140.492 212.937 140.229 212.796C139.971 212.655 139.651 212.585 139.271 212.585H137.319V223H134.234V210.203ZM141.239 223L138.409 217.34L141.679 217.322L144.544 222.868V223H141.239ZM150.441 223.176C149.668 223.176 148.977 223.056 148.367 222.815C147.758 222.569 147.242 222.232 146.82 221.805C146.404 221.377 146.085 220.885 145.862 220.328C145.646 219.771 145.537 219.183 145.537 218.562V218.228C145.537 217.53 145.634 216.886 145.827 216.294C146.021 215.696 146.308 215.175 146.688 214.729C147.069 214.284 147.547 213.938 148.121 213.692C148.695 213.44 149.363 213.314 150.125 213.314C150.799 213.314 151.402 213.423 151.936 213.64C152.469 213.856 152.92 214.167 153.289 214.571C153.664 214.976 153.948 215.465 154.142 216.039C154.341 216.613 154.44 217.258 154.44 217.973V219.177H146.671V217.322H151.549V217.094C151.555 216.777 151.499 216.508 151.382 216.285C151.271 216.062 151.106 215.893 150.89 215.775C150.673 215.658 150.409 215.6 150.099 215.6C149.776 215.6 149.51 215.67 149.299 215.811C149.094 215.951 148.933 216.145 148.815 216.391C148.704 216.631 148.625 216.909 148.578 217.226C148.531 217.542 148.508 217.876 148.508 218.228V218.562C148.508 218.913 148.555 219.232 148.648 219.52C148.748 219.807 148.889 220.053 149.07 220.258C149.258 220.457 149.48 220.612 149.738 220.724C150.002 220.835 150.301 220.891 150.635 220.891C151.039 220.891 151.438 220.814 151.83 220.662C152.223 220.51 152.56 220.258 152.841 219.906L154.186 221.506C153.992 221.781 153.717 222.048 153.359 222.306C153.008 222.563 152.586 222.774 152.094 222.938C151.602 223.097 151.051 223.176 150.441 223.176ZM160.584 220.609V216.689C160.584 216.42 160.546 216.188 160.47 215.995C160.394 215.802 160.273 215.652 160.109 215.547C159.945 215.436 159.726 215.38 159.45 215.38C159.228 215.38 159.037 215.418 158.879 215.494C158.721 215.57 158.601 215.685 158.519 215.837C158.437 215.989 158.396 216.183 158.396 216.417H155.434C155.434 215.978 155.53 215.57 155.724 215.195C155.923 214.814 156.204 214.483 156.567 214.202C156.937 213.921 157.376 213.704 157.886 213.552C158.401 213.394 158.976 213.314 159.608 213.314C160.364 213.314 161.038 213.44 161.63 213.692C162.228 213.944 162.699 214.322 163.045 214.826C163.391 215.324 163.563 215.951 163.563 216.707V220.601C163.563 221.222 163.599 221.693 163.669 222.016C163.739 222.332 163.839 222.61 163.968 222.851V223H160.997C160.856 222.707 160.751 222.35 160.681 221.928C160.616 221.5 160.584 221.061 160.584 220.609ZM160.944 217.19L160.962 218.772H159.652C159.377 218.772 159.143 218.811 158.949 218.887C158.762 218.963 158.609 219.068 158.492 219.203C158.381 219.332 158.299 219.479 158.246 219.643C158.199 219.807 158.176 219.979 158.176 220.161C158.176 220.337 158.217 220.495 158.299 220.636C158.387 220.771 158.504 220.876 158.65 220.952C158.797 221.028 158.961 221.066 159.143 221.066C159.471 221.066 159.749 221.005 159.978 220.882C160.212 220.753 160.391 220.598 160.514 220.416C160.637 220.234 160.698 220.064 160.698 219.906L161.349 221.119C161.231 221.354 161.097 221.591 160.944 221.831C160.798 222.071 160.613 222.294 160.391 222.499C160.174 222.698 159.907 222.862 159.591 222.991C159.274 223.114 158.891 223.176 158.439 223.176C157.854 223.176 157.314 223.056 156.822 222.815C156.336 222.575 155.946 222.241 155.653 221.813C155.36 221.38 155.214 220.882 155.214 220.319C155.214 219.827 155.302 219.388 155.478 219.001C155.659 218.614 155.932 218.286 156.295 218.017C156.658 217.747 157.121 217.542 157.684 217.401C158.246 217.261 158.908 217.19 159.67 217.19H160.944ZM169.224 220.891C169.499 220.891 169.733 220.841 169.927 220.741C170.126 220.636 170.275 220.489 170.375 220.302C170.48 220.108 170.53 219.877 170.524 219.607H173.311C173.316 220.322 173.141 220.949 172.783 221.488C172.432 222.021 171.951 222.438 171.342 222.736C170.738 223.029 170.056 223.176 169.294 223.176C168.55 223.176 167.899 223.056 167.343 222.815C166.786 222.569 166.32 222.229 165.945 221.796C165.576 221.356 165.298 220.844 165.11 220.258C164.929 219.672 164.838 219.036 164.838 218.351V218.148C164.838 217.463 164.929 216.827 165.11 216.241C165.298 215.649 165.576 215.137 165.945 214.703C166.32 214.264 166.783 213.924 167.334 213.684C167.891 213.438 168.538 213.314 169.276 213.314C170.067 213.314 170.765 213.464 171.368 213.763C171.978 214.062 172.455 214.495 172.801 215.063C173.146 215.632 173.316 216.32 173.311 217.129H170.524C170.53 216.842 170.486 216.584 170.393 216.355C170.299 216.127 170.152 215.945 169.953 215.811C169.76 215.67 169.511 215.6 169.206 215.6C168.901 215.6 168.655 215.667 168.468 215.802C168.28 215.937 168.137 216.124 168.037 216.364C167.943 216.599 167.879 216.868 167.844 217.173C167.814 217.478 167.8 217.803 167.8 218.148V218.351C167.8 218.702 167.814 219.033 167.844 219.344C167.879 219.648 167.946 219.918 168.046 220.152C168.146 220.381 168.289 220.562 168.477 220.697C168.664 220.826 168.913 220.891 169.224 220.891ZM179.586 213.49V215.547H173.855V213.49H179.586ZM175.06 211.126H178.021V219.897C178.021 220.149 178.051 220.346 178.109 220.486C178.168 220.621 178.268 220.718 178.408 220.776C178.555 220.829 178.748 220.855 178.988 220.855C179.158 220.855 179.299 220.853 179.41 220.847C179.521 220.835 179.627 220.82 179.727 220.803V222.921C179.475 223.003 179.211 223.064 178.936 223.105C178.66 223.152 178.367 223.176 178.057 223.176C177.424 223.176 176.882 223.076 176.431 222.877C175.985 222.678 175.646 222.364 175.411 221.937C175.177 221.509 175.06 220.952 175.06 220.267V211.126ZM196.074 210.203V223H192.998L188.472 215.037V223H185.387V210.203H188.472L192.998 218.166V210.203H196.074ZM202.824 220.609V216.689C202.824 216.42 202.786 216.188 202.71 215.995C202.634 215.802 202.514 215.652 202.35 215.547C202.186 215.436 201.966 215.38 201.69 215.38C201.468 215.38 201.277 215.418 201.119 215.494C200.961 215.57 200.841 215.685 200.759 215.837C200.677 215.989 200.636 216.183 200.636 216.417H197.674C197.674 215.978 197.771 215.57 197.964 215.195C198.163 214.814 198.444 214.483 198.808 214.202C199.177 213.921 199.616 213.704 200.126 213.552C200.642 213.394 201.216 213.314 201.849 213.314C202.604 213.314 203.278 213.44 203.87 213.692C204.468 213.944 204.939 214.322 205.285 214.826C205.631 215.324 205.804 215.951 205.804 216.707V220.601C205.804 221.222 205.839 221.693 205.909 222.016C205.979 222.332 206.079 222.61 206.208 222.851V223H203.237C203.097 222.707 202.991 222.35 202.921 221.928C202.856 221.5 202.824 221.061 202.824 220.609ZM203.185 217.19L203.202 218.772H201.893C201.617 218.772 201.383 218.811 201.189 218.887C201.002 218.963 200.85 219.068 200.732 219.203C200.621 219.332 200.539 219.479 200.486 219.643C200.439 219.807 200.416 219.979 200.416 220.161C200.416 220.337 200.457 220.495 200.539 220.636C200.627 220.771 200.744 220.876 200.891 220.952C201.037 221.028 201.201 221.066 201.383 221.066C201.711 221.066 201.989 221.005 202.218 220.882C202.452 220.753 202.631 220.598 202.754 220.416C202.877 220.234 202.938 220.064 202.938 219.906L203.589 221.119C203.472 221.354 203.337 221.591 203.185 221.831C203.038 222.071 202.854 222.294 202.631 222.499C202.414 222.698 202.147 222.862 201.831 222.991C201.515 223.114 201.131 223.176 200.68 223.176C200.094 223.176 199.555 223.056 199.062 222.815C198.576 222.575 198.187 222.241 197.894 221.813C197.601 221.38 197.454 220.882 197.454 220.319C197.454 219.827 197.542 219.388 197.718 219.001C197.899 218.614 198.172 218.286 198.535 218.017C198.898 217.747 199.361 217.542 199.924 217.401C200.486 217.261 201.148 217.19 201.91 217.19H203.185ZM212.457 213.49V215.547H206.727V213.49H212.457ZM207.931 211.126H210.893V219.897C210.893 220.149 210.922 220.346 210.98 220.486C211.039 220.621 211.139 220.718 211.279 220.776C211.426 220.829 211.619 220.855 211.859 220.855C212.029 220.855 212.17 220.853 212.281 220.847C212.393 220.835 212.498 220.82 212.598 220.803V222.921C212.346 223.003 212.082 223.064 211.807 223.105C211.531 223.152 211.238 223.176 210.928 223.176C210.295 223.176 209.753 223.076 209.302 222.877C208.856 222.678 208.517 222.364 208.282 221.937C208.048 221.509 207.931 220.952 207.931 220.267V211.126ZM216.764 213.49V223H213.793V213.49H216.764ZM213.617 211.038C213.617 210.616 213.77 210.271 214.074 210.001C214.379 209.731 214.774 209.597 215.261 209.597C215.747 209.597 216.143 209.731 216.447 210.001C216.752 210.271 216.904 210.616 216.904 211.038C216.904 211.46 216.752 211.806 216.447 212.075C216.143 212.345 215.747 212.479 215.261 212.479C214.774 212.479 214.379 212.345 214.074 212.075C213.77 211.806 213.617 211.46 213.617 211.038ZM222.02 220.97L223.892 213.49H227.012L223.9 223H222.055L222.02 220.97ZM220.912 213.49L222.758 220.97L222.74 223H220.886L217.783 213.49H220.912ZM232.373 223.176C231.6 223.176 230.908 223.056 230.299 222.815C229.689 222.569 229.174 222.232 228.752 221.805C228.336 221.377 228.017 220.885 227.794 220.328C227.577 219.771 227.469 219.183 227.469 218.562V218.228C227.469 217.53 227.565 216.886 227.759 216.294C227.952 215.696 228.239 215.175 228.62 214.729C229.001 214.284 229.479 213.938 230.053 213.692C230.627 213.44 231.295 213.314 232.057 213.314C232.73 213.314 233.334 213.423 233.867 213.64C234.4 213.856 234.852 214.167 235.221 214.571C235.596 214.976 235.88 215.465 236.073 216.039C236.272 216.613 236.372 217.258 236.372 217.973V219.177H228.603V217.322H233.48V217.094C233.486 216.777 233.431 216.508 233.313 216.285C233.202 216.062 233.038 215.893 232.821 215.775C232.604 215.658 232.341 215.6 232.03 215.6C231.708 215.6 231.441 215.67 231.23 215.811C231.025 215.951 230.864 216.145 230.747 216.391C230.636 216.631 230.557 216.909 230.51 217.226C230.463 217.542 230.439 217.876 230.439 218.228V218.562C230.439 218.913 230.486 219.232 230.58 219.52C230.68 219.807 230.82 220.053 231.002 220.258C231.189 220.457 231.412 220.612 231.67 220.724C231.934 220.835 232.232 220.891 232.566 220.891C232.971 220.891 233.369 220.814 233.762 220.662C234.154 220.51 234.491 220.258 234.772 219.906L236.117 221.506C235.924 221.781 235.648 222.048 235.291 222.306C234.939 222.563 234.518 222.774 234.025 222.938C233.533 223.097 232.982 223.176 232.373 223.176Z" fill="white"/>
<rect x="111" y="196" width="148" height="41" rx="3" stroke="#424242" stroke-width="4"/>
<rect x="279" y="196" width="91" height="41" rx="3" fill="#424242"/>
<path d="M302.141 210.203H307.177C308.161 210.203 309.017 210.35 309.743 210.643C310.47 210.936 311.029 211.369 311.422 211.943C311.82 212.518 312.02 213.227 312.02 214.07C312.02 214.803 311.905 215.415 311.677 215.907C311.448 216.399 311.129 216.807 310.719 217.129C310.314 217.445 309.843 217.706 309.304 217.911L308.293 218.482H304.065L304.048 216.101H307.177C307.569 216.101 307.895 216.03 308.152 215.89C308.41 215.749 308.604 215.55 308.732 215.292C308.867 215.028 308.935 214.715 308.935 214.352C308.935 213.982 308.867 213.666 308.732 213.402C308.598 213.139 308.398 212.937 308.135 212.796C307.877 212.655 307.558 212.585 307.177 212.585H305.226V223H302.141V210.203ZM309.146 223L306.315 217.34L309.585 217.322L312.45 222.868V223H309.146ZM318.348 223.176C317.574 223.176 316.883 223.056 316.273 222.815C315.664 222.569 315.148 222.232 314.727 221.805C314.311 221.377 313.991 220.885 313.769 220.328C313.552 219.771 313.443 219.183 313.443 218.562V218.228C313.443 217.53 313.54 216.886 313.733 216.294C313.927 215.696 314.214 215.175 314.595 214.729C314.976 214.284 315.453 213.938 316.027 213.692C316.602 213.44 317.27 213.314 318.031 213.314C318.705 213.314 319.309 213.423 319.842 213.64C320.375 213.856 320.826 214.167 321.195 214.571C321.57 214.976 321.854 215.465 322.048 216.039C322.247 216.613 322.347 217.258 322.347 217.973V219.177H314.577V217.322H319.455V217.094C319.461 216.777 319.405 216.508 319.288 216.285C319.177 216.062 319.013 215.893 318.796 215.775C318.579 215.658 318.315 215.6 318.005 215.6C317.683 215.6 317.416 215.67 317.205 215.811C317 215.951 316.839 216.145 316.722 216.391C316.61 216.631 316.531 216.909 316.484 217.226C316.438 217.542 316.414 217.876 316.414 218.228V218.562C316.414 218.913 316.461 219.232 316.555 219.52C316.654 219.807 316.795 220.053 316.977 220.258C317.164 220.457 317.387 220.612 317.645 220.724C317.908 220.835 318.207 220.891 318.541 220.891C318.945 220.891 319.344 220.814 319.736 220.662C320.129 220.51 320.466 220.258 320.747 219.906L322.092 221.506C321.898 221.781 321.623 222.048 321.266 222.306C320.914 222.563 320.492 222.774 320 222.938C319.508 223.097 318.957 223.176 318.348 223.176ZM328.49 220.609V216.689C328.49 216.42 328.452 216.188 328.376 215.995C328.3 215.802 328.18 215.652 328.016 215.547C327.852 215.436 327.632 215.38 327.356 215.38C327.134 215.38 326.943 215.418 326.785 215.494C326.627 215.57 326.507 215.685 326.425 215.837C326.343 215.989 326.302 216.183 326.302 216.417H323.34C323.34 215.978 323.437 215.57 323.63 215.195C323.829 214.814 324.11 214.483 324.474 214.202C324.843 213.921 325.282 213.704 325.792 213.552C326.308 213.394 326.882 213.314 327.515 213.314C328.271 213.314 328.944 213.44 329.536 213.692C330.134 213.944 330.605 214.322 330.951 214.826C331.297 215.324 331.47 215.951 331.47 216.707V220.601C331.47 221.222 331.505 221.693 331.575 222.016C331.646 222.332 331.745 222.61 331.874 222.851V223H328.903C328.763 222.707 328.657 222.35 328.587 221.928C328.522 221.5 328.49 221.061 328.49 220.609ZM328.851 217.19L328.868 218.772H327.559C327.283 218.772 327.049 218.811 326.855 218.887C326.668 218.963 326.516 219.068 326.398 219.203C326.287 219.332 326.205 219.479 326.152 219.643C326.105 219.807 326.082 219.979 326.082 220.161C326.082 220.337 326.123 220.495 326.205 220.636C326.293 220.771 326.41 220.876 326.557 220.952C326.703 221.028 326.867 221.066 327.049 221.066C327.377 221.066 327.655 221.005 327.884 220.882C328.118 220.753 328.297 220.598 328.42 220.416C328.543 220.234 328.604 220.064 328.604 219.906L329.255 221.119C329.138 221.354 329.003 221.591 328.851 221.831C328.704 222.071 328.52 222.294 328.297 222.499C328.08 222.698 327.813 222.862 327.497 222.991C327.181 223.114 326.797 223.176 326.346 223.176C325.76 223.176 325.221 223.056 324.729 222.815C324.242 222.575 323.853 222.241 323.56 221.813C323.267 221.38 323.12 220.882 323.12 220.319C323.12 219.827 323.208 219.388 323.384 219.001C323.565 218.614 323.838 218.286 324.201 218.017C324.564 217.747 325.027 217.542 325.59 217.401C326.152 217.261 326.814 217.19 327.576 217.19H328.851ZM337.13 220.891C337.405 220.891 337.64 220.841 337.833 220.741C338.032 220.636 338.182 220.489 338.281 220.302C338.387 220.108 338.437 219.877 338.431 219.607H341.217C341.223 220.322 341.047 220.949 340.689 221.488C340.338 222.021 339.857 222.438 339.248 222.736C338.645 223.029 337.962 223.176 337.2 223.176C336.456 223.176 335.806 223.056 335.249 222.815C334.692 222.569 334.227 222.229 333.852 221.796C333.482 221.356 333.204 220.844 333.017 220.258C332.835 219.672 332.744 219.036 332.744 218.351V218.148C332.744 217.463 332.835 216.827 333.017 216.241C333.204 215.649 333.482 215.137 333.852 214.703C334.227 214.264 334.689 213.924 335.24 213.684C335.797 213.438 336.444 213.314 337.183 213.314C337.974 213.314 338.671 213.464 339.274 213.763C339.884 214.062 340.361 214.495 340.707 215.063C341.053 215.632 341.223 216.32 341.217 217.129H338.431C338.437 216.842 338.393 216.584 338.299 216.355C338.205 216.127 338.059 215.945 337.859 215.811C337.666 215.67 337.417 215.6 337.112 215.6C336.808 215.6 336.562 215.667 336.374 215.802C336.187 215.937 336.043 216.124 335.943 216.364C335.85 216.599 335.785 216.868 335.75 217.173C335.721 217.478 335.706 217.803 335.706 218.148V218.351C335.706 218.702 335.721 219.033 335.75 219.344C335.785 219.648 335.853 219.918 335.952 220.152C336.052 220.381 336.195 220.562 336.383 220.697C336.57 220.826 336.819 220.891 337.13 220.891ZM347.492 213.49V215.547H341.762V213.49H347.492ZM342.966 211.126H345.928V219.897C345.928 220.149 345.957 220.346 346.016 220.486C346.074 220.621 346.174 220.718 346.314 220.776C346.461 220.829 346.654 220.855 346.895 220.855C347.064 220.855 347.205 220.853 347.316 220.847C347.428 220.835 347.533 220.82 347.633 220.803V222.921C347.381 223.003 347.117 223.064 346.842 223.105C346.566 223.152 346.273 223.176 345.963 223.176C345.33 223.176 344.788 223.076 344.337 222.877C343.892 222.678 343.552 222.364 343.317 221.937C343.083 221.509 342.966 220.952 342.966 220.267V211.126Z" fill="white"/>
<rect x="279" y="196" width="91" height="41" rx="3" stroke="#424242" stroke-width="4"/>
<rect x="390" y="196" width="104" height="41" rx="3" fill="#424242"/>
<path d="M421.812 220.627V223H415.343V220.627H421.812ZM416.441 210.203V223H413.356V210.203H416.441ZM427.911 220.609V216.689C427.911 216.42 427.873 216.188 427.797 215.995C427.721 215.802 427.601 215.652 427.437 215.547C427.272 215.436 427.053 215.38 426.777 215.38C426.555 215.38 426.364 215.418 426.206 215.494C426.048 215.57 425.928 215.685 425.846 215.837C425.764 215.989 425.723 216.183 425.723 216.417H422.761C422.761 215.978 422.857 215.57 423.051 215.195C423.25 214.814 423.531 214.483 423.895 214.202C424.264 213.921 424.703 213.704 425.213 213.552C425.729 213.394 426.303 213.314 426.936 213.314C427.691 213.314 428.365 213.44 428.957 213.692C429.555 213.944 430.026 214.322 430.372 214.826C430.718 215.324 430.891 215.951 430.891 216.707V220.601C430.891 221.222 430.926 221.693 430.996 222.016C431.066 222.332 431.166 222.61 431.295 222.851V223H428.324C428.184 222.707 428.078 222.35 428.008 221.928C427.943 221.5 427.911 221.061 427.911 220.609ZM428.271 217.19L428.289 218.772H426.979C426.704 218.772 426.47 218.811 426.276 218.887C426.089 218.963 425.937 219.068 425.819 219.203C425.708 219.332 425.626 219.479 425.573 219.643C425.526 219.807 425.503 219.979 425.503 220.161C425.503 220.337 425.544 220.495 425.626 220.636C425.714 220.771 425.831 220.876 425.978 220.952C426.124 221.028 426.288 221.066 426.47 221.066C426.798 221.066 427.076 221.005 427.305 220.882C427.539 220.753 427.718 220.598 427.841 220.416C427.964 220.234 428.025 220.064 428.025 219.906L428.676 221.119C428.559 221.354 428.424 221.591 428.271 221.831C428.125 222.071 427.94 222.294 427.718 222.499C427.501 222.698 427.234 222.862 426.918 222.991C426.602 223.114 426.218 223.176 425.767 223.176C425.181 223.176 424.642 223.056 424.149 222.815C423.663 222.575 423.273 222.241 422.98 221.813C422.688 221.38 422.541 220.882 422.541 220.319C422.541 219.827 422.629 219.388 422.805 219.001C422.986 218.614 423.259 218.286 423.622 218.017C423.985 217.747 424.448 217.542 425.011 217.401C425.573 217.261 426.235 217.19 426.997 217.19H428.271ZM435.522 215.846V223H432.561V213.49H435.329L435.522 215.846ZM438.335 213.42L438.282 216.171C438.165 216.159 438.007 216.145 437.808 216.127C437.608 216.109 437.441 216.101 437.307 216.101C436.961 216.101 436.662 216.142 436.41 216.224C436.164 216.3 435.959 216.417 435.795 216.575C435.637 216.728 435.52 216.921 435.443 217.155C435.373 217.39 435.341 217.662 435.347 217.973L434.811 217.621C434.811 216.982 434.872 216.402 434.995 215.881C435.124 215.354 435.306 214.899 435.54 214.519C435.774 214.132 436.059 213.836 436.393 213.631C436.727 213.42 437.102 213.314 437.518 213.314C437.664 213.314 437.808 213.323 437.948 213.341C438.095 213.358 438.224 213.385 438.335 213.42ZM444.03 220.609V216.689C444.03 216.42 443.992 216.188 443.916 215.995C443.84 215.802 443.72 215.652 443.556 215.547C443.392 215.436 443.172 215.38 442.896 215.38C442.674 215.38 442.483 215.418 442.325 215.494C442.167 215.57 442.047 215.685 441.965 215.837C441.883 215.989 441.842 216.183 441.842 216.417H438.88C438.88 215.978 438.977 215.57 439.17 215.195C439.369 214.814 439.65 214.483 440.014 214.202C440.383 213.921 440.822 213.704 441.332 213.552C441.848 213.394 442.422 213.314 443.055 213.314C443.811 213.314 444.484 213.44 445.076 213.692C445.674 213.944 446.146 214.322 446.491 214.826C446.837 215.324 447.01 215.951 447.01 216.707V220.601C447.01 221.222 447.045 221.693 447.115 222.016C447.186 222.332 447.285 222.61 447.414 222.851V223H444.443C444.303 222.707 444.197 222.35 444.127 221.928C444.062 221.5 444.03 221.061 444.03 220.609ZM444.391 217.19L444.408 218.772H443.099C442.823 218.772 442.589 218.811 442.396 218.887C442.208 218.963 442.056 219.068 441.938 219.203C441.827 219.332 441.745 219.479 441.692 219.643C441.646 219.807 441.622 219.979 441.622 220.161C441.622 220.337 441.663 220.495 441.745 220.636C441.833 220.771 441.95 220.876 442.097 220.952C442.243 221.028 442.407 221.066 442.589 221.066C442.917 221.066 443.195 221.005 443.424 220.882C443.658 220.753 443.837 220.598 443.96 220.416C444.083 220.234 444.145 220.064 444.145 219.906L444.795 221.119C444.678 221.354 444.543 221.591 444.391 221.831C444.244 222.071 444.06 222.294 443.837 222.499C443.62 222.698 443.354 222.862 443.037 222.991C442.721 223.114 442.337 223.176 441.886 223.176C441.3 223.176 440.761 223.056 440.269 222.815C439.782 222.575 439.393 222.241 439.1 221.813C438.807 221.38 438.66 220.882 438.66 220.319C438.66 219.827 438.748 219.388 438.924 219.001C439.105 218.614 439.378 218.286 439.741 218.017C440.104 217.747 440.567 217.542 441.13 217.401C441.692 217.261 442.354 217.19 443.116 217.19H444.391ZM451.94 220.97L453.812 213.49H456.933L453.821 223H451.976L451.94 220.97ZM450.833 213.49L452.679 220.97L452.661 223H450.807L447.704 213.49H450.833ZM462.294 223.176C461.521 223.176 460.829 223.056 460.22 222.815C459.61 222.569 459.095 222.232 458.673 221.805C458.257 221.377 457.938 220.885 457.715 220.328C457.498 219.771 457.39 219.183 457.39 218.562V218.228C457.39 217.53 457.486 216.886 457.68 216.294C457.873 215.696 458.16 215.175 458.541 214.729C458.922 214.284 459.399 213.938 459.974 213.692C460.548 213.44 461.216 213.314 461.978 213.314C462.651 213.314 463.255 213.423 463.788 213.64C464.321 213.856 464.772 214.167 465.142 214.571C465.517 214.976 465.801 215.465 465.994 216.039C466.193 216.613 466.293 217.258 466.293 217.973V219.177H458.523V217.322H463.401V217.094C463.407 216.777 463.352 216.508 463.234 216.285C463.123 216.062 462.959 215.893 462.742 215.775C462.525 215.658 462.262 215.6 461.951 215.6C461.629 215.6 461.362 215.67 461.151 215.811C460.946 215.951 460.785 216.145 460.668 216.391C460.557 216.631 460.478 216.909 460.431 217.226C460.384 217.542 460.36 217.876 460.36 218.228V218.562C460.36 218.913 460.407 219.232 460.501 219.52C460.601 219.807 460.741 220.053 460.923 220.258C461.11 220.457 461.333 220.612 461.591 220.724C461.854 220.835 462.153 220.891 462.487 220.891C462.892 220.891 463.29 220.814 463.683 220.662C464.075 220.51 464.412 220.258 464.693 219.906L466.038 221.506C465.845 221.781 465.569 222.048 465.212 222.306C464.86 222.563 464.438 222.774 463.946 222.938C463.454 223.097 462.903 223.176 462.294 223.176ZM470.626 209.5V223H467.655V209.5H470.626Z" fill="white"/>
<rect x="390" y="196" width="104" height="41" rx="3" stroke="#424242" stroke-width="4"/>
<rect x="514" y="196" width="96" height="41" rx="3" fill="#424242"/>
<path d="M538.771 210.203H541.284L544.141 219.106L546.997 210.203H549.511L545.16 223H543.121L538.771 210.203ZM537.241 210.203H539.843L540.326 220.012V223H537.241V210.203ZM548.438 210.203H551.049V223H547.955V220.012L548.438 210.203ZM555.804 221.884L558.265 213.49H561.446L557.623 224.415C557.541 224.655 557.433 224.913 557.298 225.188C557.163 225.47 556.979 225.736 556.744 225.988C556.51 226.24 556.208 226.445 555.839 226.604C555.476 226.762 555.024 226.841 554.485 226.841C554.198 226.841 553.987 226.826 553.853 226.797C553.724 226.773 553.524 226.729 553.255 226.665V224.547C553.331 224.547 553.396 224.547 553.448 224.547C553.507 224.547 553.571 224.547 553.642 224.547C553.958 224.547 554.21 224.515 554.397 224.45C554.591 224.386 554.737 224.292 554.837 224.169C554.942 224.046 555.024 223.896 555.083 223.721L555.804 221.884ZM555.18 213.49L557.052 220.144L557.377 223.281H555.391L552.007 213.49H555.18ZM568.952 219.599C568.952 219.399 568.923 219.221 568.864 219.062C568.806 218.898 568.697 218.746 568.539 218.605C568.381 218.465 568.152 218.324 567.854 218.184C567.561 218.037 567.174 217.885 566.693 217.727C566.131 217.539 565.589 217.328 565.067 217.094C564.546 216.854 564.08 216.575 563.67 216.259C563.26 215.937 562.935 215.562 562.694 215.134C562.454 214.7 562.334 214.196 562.334 213.622C562.334 213.071 562.457 212.576 562.703 212.137C562.949 211.691 563.292 211.313 563.731 211.003C564.177 210.687 564.698 210.446 565.296 210.282C565.894 210.112 566.547 210.027 567.256 210.027C568.193 210.027 569.02 210.191 569.734 210.52C570.455 210.842 571.018 211.302 571.422 211.899C571.832 212.491 572.037 213.191 572.037 214H568.97C568.97 213.678 568.902 213.394 568.768 213.147C568.639 212.901 568.442 212.708 568.179 212.567C567.915 212.427 567.584 212.356 567.186 212.356C566.799 212.356 566.474 212.415 566.21 212.532C565.946 212.649 565.747 212.808 565.612 213.007C565.478 213.2 565.41 213.414 565.41 213.648C565.41 213.842 565.463 214.018 565.568 214.176C565.68 214.328 565.835 214.472 566.034 214.606C566.239 214.741 566.485 214.87 566.772 214.993C567.065 215.116 567.394 215.236 567.757 215.354C568.437 215.57 569.04 215.813 569.567 216.083C570.101 216.347 570.549 216.648 570.912 216.988C571.281 217.322 571.56 217.703 571.747 218.131C571.94 218.559 572.037 219.042 572.037 219.581C572.037 220.155 571.926 220.665 571.703 221.11C571.48 221.556 571.161 221.934 570.745 222.244C570.329 222.549 569.831 222.78 569.251 222.938C568.671 223.097 568.023 223.176 567.309 223.176C566.652 223.176 566.005 223.094 565.366 222.93C564.733 222.76 564.159 222.502 563.644 222.156C563.128 221.805 562.715 221.356 562.404 220.812C562.1 220.261 561.947 219.607 561.947 218.852H565.041C565.041 219.227 565.091 219.543 565.19 219.801C565.29 220.059 565.437 220.267 565.63 220.425C565.823 220.577 566.061 220.688 566.342 220.759C566.623 220.823 566.945 220.855 567.309 220.855C567.701 220.855 568.018 220.8 568.258 220.688C568.498 220.571 568.674 220.419 568.785 220.231C568.896 220.038 568.952 219.827 568.952 219.599ZM578.954 226.656V215.485L579.367 213.49H581.934V226.656H578.954ZM573.118 218.333V218.148C573.118 217.428 573.197 216.771 573.355 216.18C573.514 215.582 573.748 215.072 574.059 214.65C574.369 214.223 574.753 213.895 575.21 213.666C575.673 213.432 576.206 213.314 576.81 213.314C577.378 213.314 577.864 213.438 578.269 213.684C578.679 213.93 579.021 214.275 579.297 214.721C579.572 215.16 579.795 215.676 579.965 216.268C580.141 216.859 580.278 217.498 580.378 218.184V218.403C580.278 219.048 580.141 219.657 579.965 220.231C579.795 220.806 579.572 221.315 579.297 221.761C579.021 222.2 578.679 222.546 578.269 222.798C577.858 223.05 577.366 223.176 576.792 223.176C576.194 223.176 575.667 223.056 575.21 222.815C574.753 222.569 574.369 222.229 574.059 221.796C573.748 221.356 573.514 220.844 573.355 220.258C573.197 219.666 573.118 219.024 573.118 218.333ZM576.08 218.148V218.333C576.08 218.69 576.104 219.024 576.15 219.335C576.197 219.64 576.276 219.909 576.388 220.144C576.505 220.378 576.657 220.562 576.845 220.697C577.032 220.826 577.267 220.891 577.548 220.891C577.976 220.891 578.312 220.797 578.559 220.609C578.805 220.422 578.978 220.161 579.077 219.827C579.177 219.487 579.218 219.092 579.2 218.641V217.946C579.206 217.56 579.183 217.22 579.13 216.927C579.077 216.634 578.986 216.391 578.857 216.197C578.734 215.998 578.567 215.849 578.356 215.749C578.146 215.649 577.882 215.6 577.565 215.6C577.29 215.6 577.056 215.664 576.862 215.793C576.675 215.916 576.522 216.092 576.405 216.32C576.294 216.549 576.212 216.818 576.159 217.129C576.106 217.439 576.08 217.779 576.08 218.148ZM586.741 209.5V223H583.771V209.5H586.741Z" fill="white"/>
<rect x="514" y="196" width="96" height="41" rx="3" stroke="#424242" stroke-width="4"/>
<rect x="630" y="196" width="114" height="41" rx="3" fill="#424242"/>
<path d="M656.062 210.203V223H652.978V210.203H656.062ZM661.037 215.529V217.902H655.184V215.529H661.037ZM661.538 210.203V212.585H655.184V210.203H661.538ZM665.81 213.49V223H662.839V213.49H665.81ZM662.663 211.038C662.663 210.616 662.815 210.271 663.12 210.001C663.425 209.731 663.82 209.597 664.307 209.597C664.793 209.597 665.188 209.731 665.493 210.001C665.798 210.271 665.95 210.616 665.95 211.038C665.95 211.46 665.798 211.806 665.493 212.075C665.188 212.345 664.793 212.479 664.307 212.479C663.82 212.479 663.425 212.345 663.12 212.075C662.815 211.806 662.663 211.46 662.663 211.038ZM670.626 215.846V223H667.664V213.49H670.433L670.626 215.846ZM673.438 213.42L673.386 216.171C673.269 216.159 673.11 216.145 672.911 216.127C672.712 216.109 672.545 216.101 672.41 216.101C672.064 216.101 671.766 216.142 671.514 216.224C671.268 216.3 671.062 216.417 670.898 216.575C670.74 216.728 670.623 216.921 670.547 217.155C670.477 217.39 670.444 217.662 670.45 217.973L669.914 217.621C669.914 216.982 669.976 216.402 670.099 215.881C670.228 215.354 670.409 214.899 670.644 214.519C670.878 214.132 671.162 213.836 671.496 213.631C671.83 213.42 672.205 213.314 672.621 213.314C672.768 213.314 672.911 213.323 673.052 213.341C673.198 213.358 673.327 213.385 673.438 213.42ZM678.888 223.176C678.114 223.176 677.423 223.056 676.813 222.815C676.204 222.569 675.688 222.232 675.267 221.805C674.851 221.377 674.531 220.885 674.309 220.328C674.092 219.771 673.983 219.183 673.983 218.562V218.228C673.983 217.53 674.08 216.886 674.273 216.294C674.467 215.696 674.754 215.175 675.135 214.729C675.516 214.284 675.993 213.938 676.567 213.692C677.142 213.44 677.81 213.314 678.571 213.314C679.245 213.314 679.849 213.423 680.382 213.64C680.915 213.856 681.366 214.167 681.735 214.571C682.11 214.976 682.395 215.465 682.588 216.039C682.787 216.613 682.887 217.258 682.887 217.973V219.177H675.117V217.322H679.995V217.094C680.001 216.777 679.945 216.508 679.828 216.285C679.717 216.062 679.553 215.893 679.336 215.775C679.119 215.658 678.855 215.6 678.545 215.6C678.223 215.6 677.956 215.67 677.745 215.811C677.54 215.951 677.379 216.145 677.262 216.391C677.15 216.631 677.071 216.909 677.024 217.226C676.978 217.542 676.954 217.876 676.954 218.228V218.562C676.954 218.913 677.001 219.232 677.095 219.52C677.194 219.807 677.335 220.053 677.517 220.258C677.704 220.457 677.927 220.612 678.185 220.724C678.448 220.835 678.747 220.891 679.081 220.891C679.485 220.891 679.884 220.814 680.276 220.662C680.669 220.51 681.006 220.258 681.287 219.906L682.632 221.506C682.438 221.781 682.163 222.048 681.806 222.306C681.454 222.563 681.032 222.774 680.54 222.938C680.048 223.097 679.497 223.176 678.888 223.176ZM684.117 209.5H687.079V220.662L686.771 223H684.117V209.5ZM692.915 218.14V218.324C692.915 219.045 692.842 219.701 692.695 220.293C692.549 220.885 692.323 221.397 692.019 221.831C691.714 222.259 691.33 222.59 690.867 222.824C690.404 223.059 689.856 223.176 689.224 223.176C688.649 223.176 688.157 223.053 687.747 222.807C687.337 222.555 686.994 222.209 686.719 221.77C686.443 221.324 686.221 220.812 686.051 220.231C685.881 219.646 685.746 219.019 685.646 218.351V218.131C685.746 217.469 685.881 216.848 686.051 216.268C686.221 215.682 686.443 215.169 686.719 214.729C686.994 214.284 687.334 213.938 687.738 213.692C688.148 213.44 688.638 213.314 689.206 213.314C689.845 213.314 690.396 213.435 690.858 213.675C691.327 213.915 691.714 214.252 692.019 214.686C692.323 215.119 692.549 215.629 692.695 216.215C692.842 216.801 692.915 217.442 692.915 218.14ZM689.953 218.324V218.14C689.953 217.794 689.933 217.469 689.892 217.164C689.851 216.859 689.777 216.59 689.672 216.355C689.566 216.121 689.417 215.937 689.224 215.802C689.03 215.667 688.778 215.6 688.468 215.6C688.151 215.6 687.885 215.652 687.668 215.758C687.457 215.863 687.287 216.016 687.158 216.215C687.035 216.408 686.947 216.648 686.895 216.936C686.842 217.217 686.818 217.536 686.824 217.894V218.588C686.812 219.074 686.856 219.49 686.956 219.836C687.056 220.182 687.229 220.445 687.475 220.627C687.721 220.809 688.058 220.899 688.485 220.899C688.802 220.899 689.057 220.838 689.25 220.715C689.449 220.592 689.599 220.416 689.698 220.188C689.798 219.959 689.865 219.687 689.9 219.37C689.936 219.054 689.953 218.705 689.953 218.324ZM699.173 220.609V216.689C699.173 216.42 699.135 216.188 699.059 215.995C698.982 215.802 698.862 215.652 698.698 215.547C698.534 215.436 698.314 215.38 698.039 215.38C697.816 215.38 697.626 215.418 697.468 215.494C697.31 215.57 697.189 215.685 697.107 215.837C697.025 215.989 696.984 216.183 696.984 216.417H694.022C694.022 215.978 694.119 215.57 694.312 215.195C694.512 214.814 694.793 214.483 695.156 214.202C695.525 213.921 695.965 213.704 696.475 213.552C696.99 213.394 697.564 213.314 698.197 213.314C698.953 213.314 699.627 213.44 700.219 213.692C700.816 213.944 701.288 214.322 701.634 214.826C701.979 215.324 702.152 215.951 702.152 216.707V220.601C702.152 221.222 702.188 221.693 702.258 222.016C702.328 222.332 702.428 222.61 702.557 222.851V223H699.586C699.445 222.707 699.34 222.35 699.27 221.928C699.205 221.5 699.173 221.061 699.173 220.609ZM699.533 217.19L699.551 218.772H698.241C697.966 218.772 697.731 218.811 697.538 218.887C697.351 218.963 697.198 219.068 697.081 219.203C696.97 219.332 696.888 219.479 696.835 219.643C696.788 219.807 696.765 219.979 696.765 220.161C696.765 220.337 696.806 220.495 696.888 220.636C696.976 220.771 697.093 220.876 697.239 220.952C697.386 221.028 697.55 221.066 697.731 221.066C698.06 221.066 698.338 221.005 698.566 220.882C698.801 220.753 698.979 220.598 699.103 220.416C699.226 220.234 699.287 220.064 699.287 219.906L699.938 221.119C699.82 221.354 699.686 221.591 699.533 221.831C699.387 222.071 699.202 222.294 698.979 222.499C698.763 222.698 698.496 222.862 698.18 222.991C697.863 223.114 697.479 223.176 697.028 223.176C696.442 223.176 695.903 223.056 695.411 222.815C694.925 222.575 694.535 222.241 694.242 221.813C693.949 221.38 693.803 220.882 693.803 220.319C693.803 219.827 693.891 219.388 694.066 219.001C694.248 218.614 694.521 218.286 694.884 218.017C695.247 217.747 695.71 217.542 696.272 217.401C696.835 217.261 697.497 217.19 698.259 217.19H699.533ZM708.779 220.328C708.779 220.164 708.724 220.023 708.612 219.906C708.507 219.783 708.319 219.672 708.05 219.572C707.78 219.467 707.402 219.361 706.916 219.256C706.453 219.156 706.017 219.024 705.606 218.86C705.202 218.696 704.848 218.497 704.543 218.263C704.238 218.028 703.998 217.75 703.822 217.428C703.652 217.105 703.567 216.736 703.567 216.32C703.567 215.916 703.652 215.535 703.822 215.178C703.998 214.814 704.253 214.495 704.587 214.22C704.927 213.938 705.34 213.719 705.826 213.561C706.312 213.396 706.866 213.314 707.487 213.314C708.343 213.314 709.081 213.446 709.702 213.71C710.323 213.968 710.801 214.331 711.135 214.8C711.475 215.263 711.645 215.799 711.645 216.408H708.683C708.683 216.168 708.642 215.963 708.56 215.793C708.483 215.623 708.357 215.494 708.182 215.406C708.006 215.312 707.771 215.266 707.479 215.266C707.273 215.266 707.086 215.304 706.916 215.38C706.752 215.456 706.62 215.562 706.521 215.696C706.421 215.831 706.371 215.989 706.371 216.171C706.371 216.3 706.4 216.417 706.459 216.522C706.523 216.622 706.62 216.716 706.749 216.804C706.878 216.886 707.042 216.962 707.241 217.032C707.44 217.097 707.681 217.155 707.962 217.208C708.601 217.325 709.198 217.492 709.755 217.709C710.312 217.926 710.763 218.233 711.108 218.632C711.46 219.03 711.636 219.566 711.636 220.24C711.636 220.662 711.539 221.052 711.346 221.409C711.152 221.761 710.874 222.071 710.511 222.341C710.147 222.604 709.711 222.81 709.201 222.956C708.691 223.103 708.117 223.176 707.479 223.176C706.57 223.176 705.803 223.015 705.176 222.692C704.549 222.364 704.074 221.954 703.752 221.462C703.436 220.964 703.277 220.46 703.277 219.95H706.037C706.049 220.243 706.119 220.483 706.248 220.671C706.383 220.858 706.562 220.996 706.784 221.084C707.007 221.172 707.265 221.216 707.558 221.216C707.827 221.216 708.05 221.178 708.226 221.102C708.407 221.025 708.545 220.923 708.639 220.794C708.732 220.659 708.779 220.504 708.779 220.328ZM717.63 223.176C716.856 223.176 716.165 223.056 715.556 222.815C714.946 222.569 714.431 222.232 714.009 221.805C713.593 221.377 713.273 220.885 713.051 220.328C712.834 219.771 712.726 219.183 712.726 218.562V218.228C712.726 217.53 712.822 216.886 713.016 216.294C713.209 215.696 713.496 215.175 713.877 214.729C714.258 214.284 714.735 213.938 715.31 213.692C715.884 213.44 716.552 213.314 717.313 213.314C717.987 213.314 718.591 213.423 719.124 213.64C719.657 213.856 720.108 214.167 720.478 214.571C720.853 214.976 721.137 215.465 721.33 216.039C721.529 216.613 721.629 217.258 721.629 217.973V219.177H713.859V217.322H718.737V217.094C718.743 216.777 718.688 216.508 718.57 216.285C718.459 216.062 718.295 215.893 718.078 215.775C717.861 215.658 717.598 215.6 717.287 215.6C716.965 215.6 716.698 215.67 716.487 215.811C716.282 215.951 716.121 216.145 716.004 216.391C715.893 216.631 715.813 216.909 715.767 217.226C715.72 217.542 715.696 217.876 715.696 218.228V218.562C715.696 218.913 715.743 219.232 715.837 219.52C715.937 219.807 716.077 220.053 716.259 220.258C716.446 220.457 716.669 220.612 716.927 220.724C717.19 220.835 717.489 220.891 717.823 220.891C718.228 220.891 718.626 220.814 719.019 220.662C719.411 220.51 719.748 220.258 720.029 219.906L721.374 221.506C721.181 221.781 720.905 222.048 720.548 222.306C720.196 222.563 719.774 222.774 719.282 222.938C718.79 223.097 718.239 223.176 717.63 223.176Z" fill="white"/>
<rect x="630" y="196" width="114" height="41" rx="3" stroke="#424242" stroke-width="4"/>
<path d="M1066 0H1348C1356.28 0 1363 6.71573 1363 15V282C1363 290.284 1356.28 297 1348 297H1066V0Z" fill="white"/>
<rect x="1168.43" y="55.4525" width="124.951" height="122.184" fill="#DE374B"/>
<path fill-rule="evenodd" clip-rule="evenodd" d="M1341.84 19.2731L1350 27.2482L1341.84 35.2233L1333.69 27.2482L1305.82 54.4964L1316.02 64.4653L1292.87 87.1036C1288.88 71.8827 1277.13 59.7005 1261.99 54.8227L1284.07 33.2295L1294.27 43.1984L1322.13 15.9502L1313.98 7.97509L1322.13 0L1330.29 7.97508L1341.84 19.2731ZM1261.99 54.8227L1187.57 127.601L1201.16 140.893L1168.43 172.9L1168.43 52.5189H1247.24C1252.39 52.5189 1257.35 53.3277 1261.99 54.8227ZM1292.87 87.1036C1293.83 90.7701 1294.34 94.6131 1294.34 98.5727V177.636H1173.1L1205.92 145.545L1219.51 158.837L1292.87 87.1036ZM1149.2 52.5565L1149.2 177.636H1104.03V98.5727C1104.03 73.7675 1124.08 53.5426 1149.2 52.5565ZM1235.71 196.434H1104.19C1106.21 220.056 1126.45 238.614 1151.13 238.614H1235.71V196.434ZM1254.93 196.434V238.003C1276.01 234.618 1292.38 217.549 1294.17 196.434H1254.93Z" fill="#42B040"/>
<path d="M1109.12 285.4H1103.59V277.17H1100.96V285.4H1095.43V264.938H1100.96V272.174H1103.59V264.938H1109.12V285.4ZM1112 285.4V264.938H1122.27V269.749H1117.52V272.731H1121.78V277.356H1117.52V280.483H1122.27V285.4H1112ZM1145.7 285.4H1139.92L1139.51 276.07L1139.34 272.346C1139.28 273.062 1139.2 273.747 1139.12 274.4C1139.05 275.045 1138.95 275.673 1138.83 276.282L1137.1 285.4H1132.59L1131.11 276.269C1131.02 275.739 1130.9 274.829 1130.75 273.539C1130.73 273.345 1130.69 272.947 1130.63 272.346L1130.5 276.123L1130.01 285.4H1124.12L1126.51 264.938H1133.39L1134.54 271.829C1134.64 272.395 1134.72 273.009 1134.79 273.672C1134.87 274.334 1134.94 275.054 1135 275.832C1135.12 274.533 1135.28 273.371 1135.48 272.346L1136.89 264.938H1143.71L1145.7 285.4ZM1162.89 285.4H1157.17L1156.76 282.802H1153.04L1152.59 285.4H1146.88L1151.79 264.938H1158.55L1162.89 285.4ZM1156.11 278.416L1155.76 276.03C1155.75 276.022 1155.73 275.902 1155.7 275.673C1155.69 275.478 1155.59 274.71 1155.43 273.367C1155.41 273.217 1155.39 273.013 1155.36 272.757C1155.33 272.492 1155.3 272.161 1155.25 271.763L1155.08 269.828C1155.06 270.014 1155.04 270.221 1155 270.451C1154.97 270.681 1154.94 270.933 1154.91 271.207C1154.85 271.754 1154.8 272.134 1154.78 272.346C1154.75 272.558 1154.73 272.686 1154.72 272.731L1154.34 275.209L1153.78 278.416H1156.11Z" fill="#DE374B"/>
<path d="M1195.78 279.23L1195.46 285.141C1194.23 285.636 1193.13 285.883 1192.16 285.883C1189.87 285.883 1187.95 285.044 1186.38 283.365C1184.63 281.483 1183.76 278.82 1183.76 275.374C1183.76 272.149 1184.58 269.56 1186.22 267.608C1187.87 265.664 1190.06 264.692 1192.81 264.692C1193.7 264.692 1194.61 264.86 1195.54 265.196V271.04C1194.72 270.219 1193.87 269.808 1193.01 269.808C1191.88 269.808 1190.99 270.289 1190.36 271.252C1189.72 272.224 1189.4 273.567 1189.4 275.281C1189.4 276.112 1189.48 276.854 1189.64 277.508C1189.8 278.161 1190.03 278.714 1190.32 279.164C1190.62 279.615 1190.99 279.959 1191.42 280.198C1191.85 280.436 1192.35 280.556 1192.9 280.556C1193.86 280.556 1194.82 280.114 1195.78 279.23ZM1212.99 275.361C1212.99 278.479 1212.28 281.015 1210.86 282.968C1209.45 284.911 1207.6 285.883 1205.33 285.883C1203.32 285.883 1201.59 285.137 1200.15 283.643C1198.34 281.753 1197.44 278.917 1197.44 275.135C1197.44 271.513 1198.38 268.743 1200.27 266.826C1201.68 265.404 1203.34 264.692 1205.27 264.692C1207.63 264.692 1209.5 265.655 1210.9 267.581C1212.3 269.507 1212.99 272.101 1212.99 275.361ZM1207.26 275.4C1207.26 271.699 1206.6 269.848 1205.29 269.848C1204.64 269.848 1204.12 270.334 1203.73 271.305C1203.35 272.207 1203.16 273.532 1203.16 275.281C1203.16 277.004 1203.34 278.342 1203.69 279.297C1204.05 280.242 1204.55 280.715 1205.19 280.715C1205.84 280.715 1206.35 280.246 1206.7 279.31C1207.07 278.373 1207.26 277.07 1207.26 275.4ZM1215.37 285.525V265.063H1220.64L1223.41 272.246C1223.56 272.67 1223.73 273.156 1223.91 273.704C1224.11 274.252 1224.32 274.884 1224.55 275.599L1225.12 277.402C1224.92 275.626 1224.76 274.106 1224.66 272.843C1224.55 271.579 1224.5 270.519 1224.5 269.662V265.063H1229.77V285.525H1224.5L1221.71 277.998C1221.42 277.194 1221.16 276.443 1220.92 275.745C1220.69 275.038 1220.49 274.367 1220.31 273.731C1220.42 275.171 1220.51 276.425 1220.56 277.494C1220.61 278.563 1220.64 279.5 1220.64 280.304V285.525H1215.37ZM1232.65 285.525V265.063H1237.92L1240.69 272.246C1240.84 272.67 1241.01 273.156 1241.2 273.704C1241.39 274.252 1241.6 274.884 1241.83 275.599L1242.4 277.402C1242.2 275.626 1242.04 274.106 1241.94 272.843C1241.83 271.579 1241.78 270.519 1241.78 269.662V265.063H1247.05V285.525H1241.78L1239 277.998C1238.7 277.194 1238.44 276.443 1238.2 275.745C1237.97 275.038 1237.77 274.367 1237.59 273.731C1237.71 275.171 1237.79 276.425 1237.84 277.494C1237.9 278.563 1237.92 279.5 1237.92 280.304V285.525H1232.65ZM1249.93 285.525V265.063H1260.2V269.874H1255.45V272.856H1259.71V277.481H1255.45V280.609H1260.2V285.525H1249.93ZM1274.07 279.23L1273.76 285.141C1272.53 285.636 1271.43 285.883 1270.46 285.883C1268.17 285.883 1266.24 285.044 1264.68 283.365C1262.93 281.483 1262.05 278.82 1262.05 275.374C1262.05 272.149 1262.88 269.56 1264.52 267.608C1266.16 265.664 1268.36 264.692 1271.11 264.692C1272 264.692 1272.91 264.86 1273.84 265.196V271.04C1273.01 270.219 1272.17 269.808 1271.3 269.808C1270.17 269.808 1269.29 270.289 1268.65 271.252C1268.02 272.224 1267.7 273.567 1267.7 275.281C1267.7 276.112 1267.78 276.854 1267.94 277.508C1268.1 278.161 1268.32 278.714 1268.61 279.164C1268.91 279.615 1269.28 279.959 1269.71 280.198C1270.15 280.436 1270.64 280.556 1271.2 280.556C1272.15 280.556 1273.11 280.114 1274.07 279.23ZM1283.39 285.525H1277.86V269.967H1274.82V265.063H1286.56V269.967H1283.39V285.525Z" fill="#42B040"/>
</svg>
