<svg width="1363" height="163" viewBox="0 0 1363 163" fill="none" xmlns="http://www.w3.org/2000/svg">
<path d="M0 15C0 6.71573 6.71573 0 15 0H37V163H15C6.71573 163 0 156.284 0 148V15Z" fill="#424242"/>
<rect width="1097" height="163" transform="translate(37)" fill="#F0F0F0"/>
<path d="M101.906 53.9219L94.3945 51.2383V48.0859L104.602 52.375V54.6367L101.906 53.9219ZM94.3945 56.1719L101.918 53.4297L104.602 52.7852V55.0352L94.3945 59.3242V56.1719ZM124.277 50.8867V53.6289H115.371V50.8867H124.277ZM116.414 43.9375V61H112.898V43.9375H116.414ZM126.785 43.9375V61H123.281V43.9375H126.785ZM135.469 61.2344C134.484 61.2344 133.602 61.0781 132.82 60.7656C132.039 60.4453 131.375 60.0039 130.828 59.4414C130.289 58.8789 129.875 58.2266 129.586 57.4844C129.297 56.7344 129.152 55.9375 129.152 55.0938V54.625C129.152 53.6641 129.289 52.7852 129.562 51.9883C129.836 51.1914 130.227 50.5 130.734 49.9141C131.25 49.3281 131.875 48.8789 132.609 48.5664C133.344 48.2461 134.172 48.0859 135.094 48.0859C135.992 48.0859 136.789 48.2344 137.484 48.5312C138.18 48.8281 138.762 49.25 139.23 49.7969C139.707 50.3438 140.066 51 140.309 51.7656C140.551 52.5234 140.672 53.3672 140.672 54.2969V55.7031H130.594V53.4531H137.355V53.1953C137.355 52.7266 137.27 52.3086 137.098 51.9414C136.934 51.5664 136.684 51.2695 136.348 51.0508C136.012 50.832 135.582 50.7227 135.059 50.7227C134.613 50.7227 134.23 50.8203 133.91 51.0156C133.59 51.2109 133.328 51.4844 133.125 51.8359C132.93 52.1875 132.781 52.6016 132.68 53.0781C132.586 53.5469 132.539 54.0625 132.539 54.625V55.0938C132.539 55.6016 132.609 56.0703 132.75 56.5C132.898 56.9297 133.105 57.3008 133.371 57.6133C133.645 57.9258 133.973 58.168 134.355 58.3398C134.746 58.5117 135.188 58.5977 135.68 58.5977C136.289 58.5977 136.855 58.4805 137.379 58.2461C137.91 58.0039 138.367 57.6406 138.75 57.1562L140.391 58.9375C140.125 59.3203 139.762 59.6875 139.301 60.0391C138.848 60.3906 138.301 60.6797 137.66 60.9062C137.02 61.125 136.289 61.2344 135.469 61.2344ZM145.969 50.9453V61H142.582V48.3203H145.758L145.969 50.9453ZM145.5 54.2148H144.562C144.562 53.332 144.668 52.5195 144.879 51.7773C145.098 51.0273 145.414 50.3789 145.828 49.832C146.25 49.2773 146.77 48.8477 147.387 48.543C148.004 48.2383 148.719 48.0859 149.531 48.0859C150.094 48.0859 150.609 48.1719 151.078 48.3438C151.547 48.5078 151.949 48.7695 152.285 49.1289C152.629 49.4805 152.895 49.9414 153.082 50.5117C153.27 51.0742 153.363 51.75 153.363 52.5391V61H149.988V52.9141C149.988 52.3359 149.91 51.8906 149.754 51.5781C149.598 51.2656 149.375 51.0469 149.086 50.9219C148.805 50.7969 148.465 50.7344 148.066 50.7344C147.629 50.7344 147.246 50.8242 146.918 51.0039C146.598 51.1836 146.332 51.4336 146.121 51.7539C145.91 52.0664 145.754 52.4336 145.652 52.8555C145.551 53.2773 145.5 53.7305 145.5 54.2148ZM153.047 53.8281L151.84 53.9805C151.84 53.1523 151.941 52.3828 152.145 51.6719C152.355 50.9609 152.664 50.3359 153.07 49.7969C153.484 49.2578 153.996 48.8398 154.605 48.543C155.215 48.2383 155.918 48.0859 156.715 48.0859C157.324 48.0859 157.879 48.1758 158.379 48.3555C158.879 48.5273 159.305 48.8047 159.656 49.1875C160.016 49.5625 160.289 50.0547 160.477 50.6641C160.672 51.2734 160.77 52.0195 160.77 52.9023V61H157.383V52.9023C157.383 52.3164 157.305 51.8711 157.148 51.5664C157 51.2539 156.781 51.0391 156.492 50.9219C156.211 50.7969 155.875 50.7344 155.484 50.7344C155.078 50.7344 154.723 50.8164 154.418 50.9805C154.113 51.1367 153.859 51.3555 153.656 51.6367C153.453 51.918 153.301 52.2461 153.199 52.6211C153.098 52.9883 153.047 53.3906 153.047 53.8281ZM170.227 58.1406V52.4922C170.227 52.0859 170.16 51.7383 170.027 51.4492C169.895 51.1523 169.688 50.9219 169.406 50.7578C169.133 50.5938 168.777 50.5117 168.34 50.5117C167.965 50.5117 167.641 50.5781 167.367 50.7109C167.094 50.8359 166.883 51.0195 166.734 51.2617C166.586 51.4961 166.512 51.7734 166.512 52.0938H163.137C163.137 51.5547 163.262 51.043 163.512 50.5586C163.762 50.0742 164.125 49.6484 164.602 49.2812C165.078 48.9062 165.645 48.6133 166.301 48.4023C166.965 48.1914 167.707 48.0859 168.527 48.0859C169.512 48.0859 170.387 48.25 171.152 48.5781C171.918 48.9062 172.52 49.3984 172.957 50.0547C173.402 50.7109 173.625 51.5312 173.625 52.5156V57.9414C173.625 58.6367 173.668 59.207 173.754 59.6523C173.84 60.0898 173.965 60.4727 174.129 60.8008V61H170.719C170.555 60.6562 170.43 60.2266 170.344 59.7109C170.266 59.1875 170.227 58.6641 170.227 58.1406ZM170.672 53.2773L170.695 55.1875H168.809C168.363 55.1875 167.977 55.2383 167.648 55.3398C167.32 55.4414 167.051 55.5859 166.84 55.7734C166.629 55.9531 166.473 56.1641 166.371 56.4062C166.277 56.6484 166.23 56.9141 166.23 57.2031C166.23 57.4922 166.297 57.7539 166.43 57.9883C166.562 58.2148 166.754 58.3945 167.004 58.5273C167.254 58.6523 167.547 58.7148 167.883 58.7148C168.391 58.7148 168.832 58.6133 169.207 58.4102C169.582 58.207 169.871 57.957 170.074 57.6602C170.285 57.3633 170.395 57.082 170.402 56.8164L171.293 58.2461C171.168 58.5664 170.996 58.8984 170.777 59.2422C170.566 59.5859 170.297 59.9102 169.969 60.2148C169.641 60.5117 169.246 60.7578 168.785 60.9531C168.324 61.1406 167.777 61.2344 167.145 61.2344C166.34 61.2344 165.609 61.0742 164.953 60.7539C164.305 60.4258 163.789 59.9766 163.406 59.4062C163.031 58.8281 162.844 58.1719 162.844 57.4375C162.844 56.7734 162.969 56.1836 163.219 55.668C163.469 55.1523 163.836 54.7188 164.32 54.3672C164.812 54.0078 165.426 53.7383 166.16 53.5586C166.895 53.3711 167.746 53.2773 168.715 53.2773H170.672ZM186.328 55.3398H189.832C189.762 56.4883 189.445 57.5078 188.883 58.3984C188.328 59.2891 187.551 59.9844 186.551 60.4844C185.559 60.9844 184.363 61.2344 182.965 61.2344C181.871 61.2344 180.891 61.0469 180.023 60.6719C179.156 60.2891 178.414 59.7422 177.797 59.0312C177.188 58.3203 176.723 57.4609 176.402 56.4531C176.082 55.4453 175.922 54.3164 175.922 53.0664V51.8828C175.922 50.6328 176.086 49.5039 176.414 48.4961C176.75 47.4805 177.227 46.6172 177.844 45.9062C178.469 45.1953 179.215 44.6484 180.082 44.2656C180.949 43.8828 181.918 43.6914 182.988 43.6914C184.41 43.6914 185.609 43.9492 186.586 44.4648C187.57 44.9805 188.332 45.6914 188.871 46.5977C189.418 47.5039 189.746 48.5352 189.855 49.6914H186.34C186.301 49.0039 186.164 48.4219 185.93 47.9453C185.695 47.4609 185.34 47.0977 184.863 46.8555C184.395 46.6055 183.77 46.4805 182.988 46.4805C182.402 46.4805 181.891 46.5898 181.453 46.8086C181.016 47.0273 180.648 47.3594 180.352 47.8047C180.055 48.25 179.832 48.8125 179.684 49.4922C179.543 50.1641 179.473 50.9531 179.473 51.8594V53.0664C179.473 53.9492 179.539 54.7266 179.672 55.3984C179.805 56.0625 180.008 56.625 180.281 57.0859C180.562 57.5391 180.922 57.8828 181.359 58.1172C181.805 58.3438 182.34 58.457 182.965 58.457C183.699 58.457 184.305 58.3398 184.781 58.1055C185.258 57.8711 185.621 57.5234 185.871 57.0625C186.129 56.6016 186.281 56.0273 186.328 55.3398ZM191.391 54.7891V54.543C191.391 53.6133 191.523 52.7578 191.789 51.9766C192.055 51.1875 192.441 50.5039 192.949 49.9258C193.457 49.3477 194.082 48.8984 194.824 48.5781C195.566 48.25 196.418 48.0859 197.379 48.0859C198.34 48.0859 199.195 48.25 199.945 48.5781C200.695 48.8984 201.324 49.3477 201.832 49.9258C202.348 50.5039 202.738 51.1875 203.004 51.9766C203.27 52.7578 203.402 53.6133 203.402 54.543V54.7891C203.402 55.7109 203.27 56.5664 203.004 57.3555C202.738 58.1367 202.348 58.8203 201.832 59.4062C201.324 59.9844 200.699 60.4336 199.957 60.7539C199.215 61.0742 198.363 61.2344 197.402 61.2344C196.441 61.2344 195.586 61.0742 194.836 60.7539C194.094 60.4336 193.465 59.9844 192.949 59.4062C192.441 58.8203 192.055 58.1367 191.789 57.3555C191.523 56.5664 191.391 55.7109 191.391 54.7891ZM194.766 54.543V54.7891C194.766 55.3203 194.812 55.8164 194.906 56.2773C195 56.7383 195.148 57.1445 195.352 57.4961C195.562 57.8398 195.836 58.1094 196.172 58.3047C196.508 58.5 196.918 58.5977 197.402 58.5977C197.871 58.5977 198.273 58.5 198.609 58.3047C198.945 58.1094 199.215 57.8398 199.418 57.4961C199.621 57.1445 199.77 56.7383 199.863 56.2773C199.965 55.8164 200.016 55.3203 200.016 54.7891V54.543C200.016 54.0273 199.965 53.543 199.863 53.0898C199.77 52.6289 199.617 52.2227 199.406 51.8711C199.203 51.5117 198.934 51.2305 198.598 51.0273C198.262 50.8242 197.855 50.7227 197.379 50.7227C196.902 50.7227 196.496 50.8242 196.16 51.0273C195.832 51.2305 195.562 51.5117 195.352 51.8711C195.148 52.2227 195 52.6289 194.906 53.0898C194.812 53.543 194.766 54.0273 194.766 54.543ZM208.781 51.0273V61H205.406V48.3203H208.57L208.781 51.0273ZM208.289 54.2148H207.375C207.375 53.2773 207.496 52.4336 207.738 51.6836C207.98 50.9258 208.32 50.2812 208.758 49.75C209.195 49.2109 209.715 48.8008 210.316 48.5195C210.926 48.2305 211.605 48.0859 212.355 48.0859C212.949 48.0859 213.492 48.1719 213.984 48.3438C214.477 48.5156 214.898 48.7891 215.25 49.1641C215.609 49.5391 215.883 50.0352 216.07 50.6523C216.266 51.2695 216.363 52.0234 216.363 52.9141V61H212.965V52.9023C212.965 52.3398 212.887 51.9023 212.73 51.5898C212.574 51.2773 212.344 51.0586 212.039 50.9336C211.742 50.8008 211.375 50.7344 210.938 50.7344C210.484 50.7344 210.09 50.8242 209.754 51.0039C209.426 51.1836 209.152 51.4336 208.934 51.7539C208.723 52.0664 208.562 52.4336 208.453 52.8555C208.344 53.2773 208.289 53.7305 208.289 54.2148ZM222.234 51.0273V61H218.859V48.3203H222.023L222.234 51.0273ZM221.742 54.2148H220.828C220.828 53.2773 220.949 52.4336 221.191 51.6836C221.434 50.9258 221.773 50.2812 222.211 49.75C222.648 49.2109 223.168 48.8008 223.77 48.5195C224.379 48.2305 225.059 48.0859 225.809 48.0859C226.402 48.0859 226.945 48.1719 227.438 48.3438C227.93 48.5156 228.352 48.7891 228.703 49.1641C229.062 49.5391 229.336 50.0352 229.523 50.6523C229.719 51.2695 229.816 52.0234 229.816 52.9141V61H226.418V52.9023C226.418 52.3398 226.34 51.9023 226.184 51.5898C226.027 51.2773 225.797 51.0586 225.492 50.9336C225.195 50.8008 224.828 50.7344 224.391 50.7344C223.938 50.7344 223.543 50.8242 223.207 51.0039C222.879 51.1836 222.605 51.4336 222.387 51.7539C222.176 52.0664 222.016 52.4336 221.906 52.8555C221.797 53.2773 221.742 53.7305 221.742 54.2148ZM238.219 61.2344C237.234 61.2344 236.352 61.0781 235.57 60.7656C234.789 60.4453 234.125 60.0039 233.578 59.4414C233.039 58.8789 232.625 58.2266 232.336 57.4844C232.047 56.7344 231.902 55.9375 231.902 55.0938V54.625C231.902 53.6641 232.039 52.7852 232.312 51.9883C232.586 51.1914 232.977 50.5 233.484 49.9141C234 49.3281 234.625 48.8789 235.359 48.5664C236.094 48.2461 236.922 48.0859 237.844 48.0859C238.742 48.0859 239.539 48.2344 240.234 48.5312C240.93 48.8281 241.512 49.25 241.98 49.7969C242.457 50.3438 242.816 51 243.059 51.7656C243.301 52.5234 243.422 53.3672 243.422 54.2969V55.7031H233.344V53.4531H240.105V53.1953C240.105 52.7266 240.02 52.3086 239.848 51.9414C239.684 51.5664 239.434 51.2695 239.098 51.0508C238.762 50.832 238.332 50.7227 237.809 50.7227C237.363 50.7227 236.98 50.8203 236.66 51.0156C236.34 51.2109 236.078 51.4844 235.875 51.8359C235.68 52.1875 235.531 52.6016 235.43 53.0781C235.336 53.5469 235.289 54.0625 235.289 54.625V55.0938C235.289 55.6016 235.359 56.0703 235.5 56.5C235.648 56.9297 235.855 57.3008 236.121 57.6133C236.395 57.9258 236.723 58.168 237.105 58.3398C237.496 58.5117 237.938 58.5977 238.43 58.5977C239.039 58.5977 239.605 58.4805 240.129 58.2461C240.66 58.0039 241.117 57.6406 241.5 57.1562L243.141 58.9375C242.875 59.3203 242.512 59.6875 242.051 60.0391C241.598 60.3906 241.051 60.6797 240.41 60.9062C239.77 61.125 239.039 61.2344 238.219 61.2344ZM250.582 58.5977C250.996 58.5977 251.363 58.5195 251.684 58.3633C252.004 58.1992 252.254 57.9727 252.434 57.6836C252.621 57.3867 252.719 57.0391 252.727 56.6406H255.902C255.895 57.5312 255.656 58.3242 255.188 59.0195C254.719 59.707 254.09 60.25 253.301 60.6484C252.512 61.0391 251.629 61.2344 250.652 61.2344C249.668 61.2344 248.809 61.0703 248.074 60.7422C247.348 60.4141 246.742 59.9609 246.258 59.3828C245.773 58.7969 245.41 58.1172 245.168 57.3438C244.926 56.5625 244.805 55.7266 244.805 54.8359V54.4961C244.805 53.5977 244.926 52.7617 245.168 51.9883C245.41 51.207 245.773 50.5273 246.258 49.9492C246.742 49.3633 247.348 48.9062 248.074 48.5781C248.801 48.25 249.652 48.0859 250.629 48.0859C251.668 48.0859 252.578 48.2852 253.359 48.6836C254.148 49.082 254.766 49.6523 255.211 50.3945C255.664 51.1289 255.895 52 255.902 53.0078H252.727C252.719 52.5859 252.629 52.2031 252.457 51.8594C252.293 51.5156 252.051 51.2422 251.73 51.0391C251.418 50.8281 251.031 50.7227 250.57 50.7227C250.078 50.7227 249.676 50.8281 249.363 51.0391C249.051 51.2422 248.809 51.5234 248.637 51.8828C248.465 52.2344 248.344 52.6367 248.273 53.0898C248.211 53.5352 248.18 54.0039 248.18 54.4961V54.8359C248.18 55.3281 248.211 55.8008 248.273 56.2539C248.336 56.707 248.453 57.1094 248.625 57.4609C248.805 57.8125 249.051 58.0898 249.363 58.293C249.676 58.4961 250.082 58.5977 250.582 58.5977ZM264.07 48.3203V50.7109H256.688V48.3203H264.07ZM258.516 45.1914H261.891V57.1797C261.891 57.5469 261.938 57.8281 262.031 58.0234C262.133 58.2188 262.281 58.3555 262.477 58.4336C262.672 58.5039 262.918 58.5391 263.215 58.5391C263.426 58.5391 263.613 58.5312 263.777 58.5156C263.949 58.4922 264.094 58.4688 264.211 58.4453L264.223 60.9297C263.934 61.0234 263.621 61.0977 263.285 61.1523C262.949 61.207 262.578 61.2344 262.172 61.2344C261.43 61.2344 260.781 61.1133 260.227 60.8711C259.68 60.6211 259.258 60.2227 258.961 59.6758C258.664 59.1289 258.516 58.4102 258.516 57.5195V45.1914Z" fill="#888888"/>
<path d="M104.344 84.875V119H96.1406V84.875H104.344ZM117.727 99.0078V119H109.828V93.6406H117.234L117.727 99.0078ZM116.766 105.453L114.961 105.5C114.961 103.719 115.172 102.078 115.594 100.578C116.016 99.0781 116.641 97.7734 117.469 96.6641C118.297 95.5547 119.312 94.6953 120.516 94.0859C121.734 93.4766 123.141 93.1719 124.734 93.1719C125.844 93.1719 126.852 93.3438 127.758 93.6875C128.664 94.0156 129.445 94.5391 130.102 95.2578C130.758 95.9609 131.258 96.8828 131.602 98.0234C131.961 99.1484 132.141 100.5 132.141 102.078V119H124.242V103.086C124.242 102.008 124.117 101.195 123.867 100.648C123.633 100.102 123.289 99.7344 122.836 99.5469C122.383 99.3594 121.828 99.2656 121.172 99.2656C120.484 99.2656 119.867 99.4219 119.32 99.7344C118.773 100.047 118.305 100.484 117.914 101.047C117.539 101.594 117.25 102.242 117.047 102.992C116.859 103.742 116.766 104.562 116.766 105.453ZM131.25 105.453L129.047 105.5C129.047 103.719 129.242 102.078 129.633 100.578C130.039 99.0781 130.641 97.7734 131.438 96.6641C132.25 95.5547 133.258 94.6953 134.461 94.0859C135.664 93.4766 137.062 93.1719 138.656 93.1719C139.812 93.1719 140.875 93.3438 141.844 93.6875C142.812 94.0312 143.648 94.5859 144.352 95.3516C145.055 96.1172 145.602 97.1328 145.992 98.3984C146.383 99.6484 146.578 101.195 146.578 103.039V119H138.656V103.039C138.656 101.992 138.531 101.203 138.281 100.672C138.047 100.125 137.703 99.7578 137.25 99.5703C136.797 99.3672 136.258 99.2656 135.633 99.2656C134.883 99.2656 134.234 99.4219 133.688 99.7344C133.141 100.047 132.68 100.484 132.305 101.047C131.945 101.594 131.68 102.242 131.508 102.992C131.336 103.742 131.25 104.562 131.25 105.453ZM159.07 98.5156V128.75H151.172V93.6406H158.531L159.07 98.5156ZM174.633 106.016V106.508C174.633 108.352 174.422 110.062 174 111.641C173.578 113.219 172.953 114.594 172.125 115.766C171.297 116.938 170.266 117.852 169.031 118.508C167.812 119.148 166.398 119.469 164.789 119.469C163.273 119.469 161.969 119.133 160.875 118.461C159.781 117.789 158.867 116.859 158.133 115.672C157.398 114.484 156.805 113.125 156.352 111.594C155.898 110.062 155.539 108.445 155.273 106.742V106.109C155.539 104.281 155.898 102.586 156.352 101.023C156.805 99.4453 157.398 98.0703 158.133 96.8984C158.867 95.7266 159.773 94.8125 160.852 94.1562C161.945 93.5 163.25 93.1719 164.766 93.1719C166.375 93.1719 167.789 93.4766 169.008 94.0859C170.242 94.6953 171.273 95.5703 172.102 96.7109C172.945 97.8359 173.578 99.1875 174 100.766C174.422 102.344 174.633 104.094 174.633 106.016ZM166.734 106.508V106.016C166.734 105.031 166.664 104.133 166.523 103.32C166.383 102.492 166.156 101.773 165.844 101.164C165.547 100.555 165.148 100.086 164.648 99.7578C164.148 99.4297 163.531 99.2656 162.797 99.2656C161.953 99.2656 161.242 99.3984 160.664 99.6641C160.102 99.9141 159.648 100.305 159.305 100.836C158.977 101.352 158.742 102 158.602 102.781C158.477 103.547 158.422 104.445 158.438 105.477V107.398C158.406 108.586 158.523 109.633 158.789 110.539C159.055 111.43 159.516 112.125 160.172 112.625C160.828 113.125 161.719 113.375 162.844 113.375C163.594 113.375 164.219 113.203 164.719 112.859C165.219 112.5 165.617 112.008 165.914 111.383C166.211 110.742 166.422 110.008 166.547 109.18C166.672 108.352 166.734 107.461 166.734 106.508ZM186.492 83V119H178.57V83H186.492ZM203.648 119.469C201.586 119.469 199.742 119.148 198.117 118.508C196.492 117.852 195.117 116.953 193.992 115.812C192.883 114.672 192.031 113.359 191.438 111.875C190.859 110.391 190.57 108.82 190.57 107.164V106.273C190.57 104.414 190.828 102.695 191.344 101.117C191.859 99.5234 192.625 98.1328 193.641 96.9453C194.656 95.7578 195.93 94.8359 197.461 94.1797C198.992 93.5078 200.773 93.1719 202.805 93.1719C204.602 93.1719 206.211 93.4609 207.633 94.0391C209.055 94.6172 210.258 95.4453 211.242 96.5234C212.242 97.6016 213 98.9062 213.516 100.438C214.047 101.969 214.312 103.688 214.312 105.594V108.805H193.594V103.859H206.602V103.25C206.617 102.406 206.469 101.688 206.156 101.094C205.859 100.5 205.422 100.047 204.844 99.7344C204.266 99.4219 203.562 99.2656 202.734 99.2656C201.875 99.2656 201.164 99.4531 200.602 99.8281C200.055 100.203 199.625 100.719 199.312 101.375C199.016 102.016 198.805 102.758 198.68 103.602C198.555 104.445 198.492 105.336 198.492 106.273V107.164C198.492 108.102 198.617 108.953 198.867 109.719C199.133 110.484 199.508 111.141 199.992 111.688C200.492 112.219 201.086 112.633 201.773 112.93C202.477 113.227 203.273 113.375 204.164 113.375C205.242 113.375 206.305 113.172 207.352 112.766C208.398 112.359 209.297 111.688 210.047 110.75L213.633 115.016C213.117 115.75 212.383 116.461 211.43 117.148C210.492 117.836 209.367 118.398 208.055 118.836C206.742 119.258 205.273 119.469 203.648 119.469ZM225.492 99.0078V119H217.594V93.6406H225L225.492 99.0078ZM224.531 105.453L222.727 105.5C222.727 103.719 222.938 102.078 223.359 100.578C223.781 99.0781 224.406 97.7734 225.234 96.6641C226.062 95.5547 227.078 94.6953 228.281 94.0859C229.5 93.4766 230.906 93.1719 232.5 93.1719C233.609 93.1719 234.617 93.3438 235.523 93.6875C236.43 94.0156 237.211 94.5391 237.867 95.2578C238.523 95.9609 239.023 96.8828 239.367 98.0234C239.727 99.1484 239.906 100.5 239.906 102.078V119H232.008V103.086C232.008 102.008 231.883 101.195 231.633 100.648C231.398 100.102 231.055 99.7344 230.602 99.5469C230.148 99.3594 229.594 99.2656 228.938 99.2656C228.25 99.2656 227.633 99.4219 227.086 99.7344C226.539 100.047 226.07 100.484 225.68 101.047C225.305 101.594 225.016 102.242 224.812 102.992C224.625 103.742 224.531 104.562 224.531 105.453ZM239.016 105.453L236.812 105.5C236.812 103.719 237.008 102.078 237.398 100.578C237.805 99.0781 238.406 97.7734 239.203 96.6641C240.016 95.5547 241.023 94.6953 242.227 94.0859C243.43 93.4766 244.828 93.1719 246.422 93.1719C247.578 93.1719 248.641 93.3438 249.609 93.6875C250.578 94.0312 251.414 94.5859 252.117 95.3516C252.82 96.1172 253.367 97.1328 253.758 98.3984C254.148 99.6484 254.344 101.195 254.344 103.039V119H246.422V103.039C246.422 101.992 246.297 101.203 246.047 100.672C245.812 100.125 245.469 99.7578 245.016 99.5703C244.562 99.3672 244.023 99.2656 243.398 99.2656C242.648 99.2656 242 99.4219 241.453 99.7344C240.906 100.047 240.445 100.484 240.07 101.047C239.711 101.594 239.445 102.242 239.273 102.992C239.102 103.742 239.016 104.562 239.016 105.453ZM271.148 119.469C269.086 119.469 267.242 119.148 265.617 118.508C263.992 117.852 262.617 116.953 261.492 115.812C260.383 114.672 259.531 113.359 258.938 111.875C258.359 110.391 258.07 108.82 258.07 107.164V106.273C258.07 104.414 258.328 102.695 258.844 101.117C259.359 99.5234 260.125 98.1328 261.141 96.9453C262.156 95.7578 263.43 94.8359 264.961 94.1797C266.492 93.5078 268.273 93.1719 270.305 93.1719C272.102 93.1719 273.711 93.4609 275.133 94.0391C276.555 94.6172 277.758 95.4453 278.742 96.5234C279.742 97.6016 280.5 98.9062 281.016 100.438C281.547 101.969 281.812 103.688 281.812 105.594V108.805H261.094V103.859H274.102V103.25C274.117 102.406 273.969 101.688 273.656 101.094C273.359 100.5 272.922 100.047 272.344 99.7344C271.766 99.4219 271.062 99.2656 270.234 99.2656C269.375 99.2656 268.664 99.4531 268.102 99.8281C267.555 100.203 267.125 100.719 266.812 101.375C266.516 102.016 266.305 102.758 266.18 103.602C266.055 104.445 265.992 105.336 265.992 106.273V107.164C265.992 108.102 266.117 108.953 266.367 109.719C266.633 110.484 267.008 111.141 267.492 111.688C267.992 112.219 268.586 112.633 269.273 112.93C269.977 113.227 270.773 113.375 271.664 113.375C272.742 113.375 273.805 113.172 274.852 112.766C275.898 112.359 276.797 111.688 277.547 110.75L281.133 115.016C280.617 115.75 279.883 116.461 278.93 117.148C277.992 117.836 276.867 118.398 275.555 118.836C274.242 119.258 272.773 119.469 271.148 119.469ZM292.781 99.0547V119H284.883V93.6406H292.289L292.781 99.0547ZM291.844 105.453L289.992 105.5C289.992 103.562 290.227 101.836 290.695 100.32C291.164 98.7891 291.828 97.4922 292.688 96.4297C293.547 95.3672 294.57 94.5625 295.758 94.0156C296.961 93.4531 298.297 93.1719 299.766 93.1719C300.938 93.1719 302.008 93.3438 302.977 93.6875C303.961 94.0312 304.805 94.5859 305.508 95.3516C306.227 96.1172 306.773 97.1328 307.148 98.3984C307.539 99.6484 307.734 101.195 307.734 103.039V119H299.789V103.016C299.789 102 299.648 101.227 299.367 100.695C299.086 100.148 298.68 99.7734 298.148 99.5703C297.617 99.3672 296.969 99.2656 296.203 99.2656C295.391 99.2656 294.703 99.4219 294.141 99.7344C293.578 100.047 293.125 100.484 292.781 101.047C292.453 101.594 292.211 102.242 292.055 102.992C291.914 103.742 291.844 104.562 291.844 105.453ZM325.477 93.6406V99.125H310.195V93.6406H325.477ZM313.406 87.3359H321.305V110.727C321.305 111.398 321.383 111.922 321.539 112.297C321.695 112.656 321.961 112.914 322.336 113.07C322.727 113.211 323.242 113.281 323.883 113.281C324.336 113.281 324.711 113.273 325.008 113.258C325.305 113.227 325.586 113.188 325.852 113.141V118.789C325.18 119.008 324.477 119.172 323.742 119.281C323.008 119.406 322.227 119.469 321.398 119.469C319.711 119.469 318.266 119.203 317.062 118.672C315.875 118.141 314.969 117.305 314.344 116.164C313.719 115.023 313.406 113.539 313.406 111.711V87.3359ZM341.789 112.625V102.172C341.789 101.453 341.688 100.836 341.484 100.32C341.281 99.8047 340.961 99.4062 340.523 99.125C340.086 98.8281 339.5 98.6797 338.766 98.6797C338.172 98.6797 337.664 98.7812 337.242 98.9844C336.82 99.1875 336.5 99.4922 336.281 99.8984C336.062 100.305 335.953 100.82 335.953 101.445H328.055C328.055 100.273 328.312 99.1875 328.828 98.1875C329.359 97.1719 330.109 96.2891 331.078 95.5391C332.062 94.7891 333.234 94.2109 334.594 93.8047C335.969 93.3828 337.5 93.1719 339.188 93.1719C341.203 93.1719 343 93.5078 344.578 94.1797C346.172 94.8516 347.43 95.8594 348.352 97.2031C349.273 98.5312 349.734 100.203 349.734 102.219V112.602C349.734 114.258 349.828 115.516 350.016 116.375C350.203 117.219 350.469 117.961 350.812 118.602V119H342.891C342.516 118.219 342.234 117.266 342.047 116.141C341.875 115 341.789 113.828 341.789 112.625ZM342.75 103.508L342.797 107.727H339.305C338.57 107.727 337.945 107.828 337.43 108.031C336.93 108.234 336.523 108.516 336.211 108.875C335.914 109.219 335.695 109.609 335.555 110.047C335.43 110.484 335.367 110.945 335.367 111.43C335.367 111.898 335.477 112.32 335.695 112.695C335.93 113.055 336.242 113.336 336.633 113.539C337.023 113.742 337.461 113.844 337.945 113.844C338.82 113.844 339.562 113.68 340.172 113.352C340.797 113.008 341.273 112.594 341.602 112.109C341.93 111.625 342.094 111.172 342.094 110.75L343.828 113.984C343.516 114.609 343.156 115.242 342.75 115.883C342.359 116.523 341.867 117.117 341.273 117.664C340.695 118.195 339.984 118.633 339.141 118.977C338.297 119.305 337.273 119.469 336.07 119.469C334.508 119.469 333.07 119.148 331.758 118.508C330.461 117.867 329.422 116.977 328.641 115.836C327.859 114.68 327.469 113.352 327.469 111.852C327.469 110.539 327.703 109.367 328.172 108.336C328.656 107.305 329.383 106.43 330.352 105.711C331.32 104.992 332.555 104.445 334.055 104.07C335.555 103.695 337.32 103.508 339.352 103.508H342.75ZM367.477 93.6406V99.125H352.195V93.6406H367.477ZM355.406 87.3359H363.305V110.727C363.305 111.398 363.383 111.922 363.539 112.297C363.695 112.656 363.961 112.914 364.336 113.07C364.727 113.211 365.242 113.281 365.883 113.281C366.336 113.281 366.711 113.273 367.008 113.258C367.305 113.227 367.586 113.188 367.852 113.141V118.789C367.18 119.008 366.477 119.172 365.742 119.281C365.008 119.406 364.227 119.469 363.398 119.469C361.711 119.469 360.266 119.203 359.062 118.672C357.875 118.141 356.969 117.305 356.344 116.164C355.719 115.023 355.406 113.539 355.406 111.711V87.3359ZM378.961 93.6406V119H371.039V93.6406H378.961ZM370.57 87.1016C370.57 85.9766 370.977 85.0547 371.789 84.3359C372.602 83.6172 373.656 83.2578 374.953 83.2578C376.25 83.2578 377.305 83.6172 378.117 84.3359C378.93 85.0547 379.336 85.9766 379.336 87.1016C379.336 88.2266 378.93 89.1484 378.117 89.8672C377.305 90.5859 376.25 90.9453 374.953 90.9453C373.656 90.9453 372.602 90.5859 371.789 89.8672C370.977 89.1484 370.57 88.2266 370.57 87.1016ZM382.852 106.578V106.086C382.852 104.227 383.117 102.516 383.648 100.953C384.18 99.375 384.961 98.0078 385.992 96.8516C387.023 95.6953 388.297 94.7969 389.812 94.1562C391.328 93.5 393.078 93.1719 395.062 93.1719C397.062 93.1719 398.82 93.5 400.336 94.1562C401.867 94.7969 403.148 95.6953 404.18 96.8516C405.211 98.0078 405.992 99.375 406.523 100.953C407.055 102.516 407.32 104.227 407.32 106.086V106.578C407.32 108.422 407.055 110.133 406.523 111.711C405.992 113.273 405.211 114.641 404.18 115.812C403.148 116.969 401.875 117.867 400.359 118.508C398.844 119.148 397.094 119.469 395.109 119.469C393.125 119.469 391.367 119.148 389.836 118.508C388.305 117.867 387.023 116.969 385.992 115.812C384.961 114.641 384.18 113.273 383.648 111.711C383.117 110.133 382.852 108.422 382.852 106.578ZM390.75 106.086V106.578C390.75 107.531 390.82 108.422 390.961 109.25C391.102 110.078 391.336 110.805 391.664 111.43C391.992 112.039 392.438 112.516 393 112.859C393.562 113.203 394.266 113.375 395.109 113.375C395.938 113.375 396.625 113.203 397.172 112.859C397.734 112.516 398.18 112.039 398.508 111.43C398.836 110.805 399.07 110.078 399.211 109.25C399.352 108.422 399.422 107.531 399.422 106.578V106.086C399.422 105.164 399.352 104.297 399.211 103.484C399.07 102.656 398.836 101.93 398.508 101.305C398.18 100.664 397.734 100.164 397.172 99.8047C396.609 99.4453 395.906 99.2656 395.062 99.2656C394.234 99.2656 393.539 99.4453 392.977 99.8047C392.43 100.164 391.992 100.664 391.664 101.305C391.336 101.93 391.102 102.656 390.961 103.484C390.82 104.297 390.75 105.164 390.75 106.086ZM418.594 99.0547V119H410.695V93.6406H418.102L418.594 99.0547ZM417.656 105.453L415.805 105.5C415.805 103.562 416.039 101.836 416.508 100.32C416.977 98.7891 417.641 97.4922 418.5 96.4297C419.359 95.3672 420.383 94.5625 421.57 94.0156C422.773 93.4531 424.109 93.1719 425.578 93.1719C426.75 93.1719 427.82 93.3438 428.789 93.6875C429.773 94.0312 430.617 94.5859 431.32 95.3516C432.039 96.1172 432.586 97.1328 432.961 98.3984C433.352 99.6484 433.547 101.195 433.547 103.039V119H425.602V103.016C425.602 102 425.461 101.227 425.18 100.695C424.898 100.148 424.492 99.7734 423.961 99.5703C423.43 99.3672 422.781 99.2656 422.016 99.2656C421.203 99.2656 420.516 99.4219 419.953 99.7344C419.391 100.047 418.938 100.484 418.594 101.047C418.266 101.594 418.023 102.242 417.867 102.992C417.727 103.742 417.656 104.562 417.656 105.453Z" fill="black"/>
<path d="M1134 0H1348C1356.28 0 1363 6.71573 1363 15V148C1363 156.284 1356.28 163 1348 163H1134V0Z" fill="#DE374B"/>
<path d="M1281 46.5H1216L1213.5 49V114L1216 116.5H1281L1283.5 114V49L1281 46.5ZM1278.5 111.5H1233.5V101.5H1245C1246.5 104.5 1250 106.5 1253.5 106.5C1259 106.5 1263.5 102 1263.5 96.5C1263.5 91 1259 86.5 1253.5 86.5C1248 86.5 1243.5 91 1243.5 96.5H1228.5V111.5H1218.5V51.5H1228.5V63C1225.5 64.5 1223.5 68 1223.5 71.5C1223.5 77 1228 81.5 1233.5 81.5C1239 81.5 1243.5 77 1243.5 71.5H1253.5C1253.5 77 1258 81.5 1263.5 81.5C1269 81.5 1273.5 77 1273.5 71.5C1273.5 66 1269 61.5 1263.5 61.5C1260 61.5 1256.5 63.5 1255 66.5H1242C1240.5 63.5 1237 61.5 1233.5 61.5V51.5H1278.5V111.5ZM1248.5 96.5C1248.5 93.5 1250.5 91.5 1253.5 91.5C1256.5 91.5 1258.5 93.5 1258.5 96.5C1258.5 99.5 1256.5 101.5 1253.5 101.5C1250.5 101.5 1248.5 99.5 1248.5 96.5ZM1233.5 66.5C1236.5 66.5 1238.5 68.5 1238.5 71.5C1238.5 74.5 1236.5 76.5 1233.5 76.5C1230.5 76.5 1228.5 74.5 1228.5 71.5C1228.5 68.5 1230.5 66.5 1233.5 66.5ZM1263.5 66.5C1266.5 66.5 1268.5 68.5 1268.5 71.5C1268.5 74.5 1266.5 76.5 1263.5 76.5C1260.5 76.5 1258.5 74.5 1258.5 71.5C1258.5 68.5 1260.5 66.5 1263.5 66.5Z" fill="white"/>
</svg>
