<svg width="1363" height="163" viewBox="0 0 1363 163" fill="none" xmlns="http://www.w3.org/2000/svg">
<path d="M0 15C0 6.71573 6.71573 0 15 0H37V163H15C6.71573 163 0 156.284 0 148V15Z" fill="#424242"/>
<rect width="1097" height="163" transform="translate(37)" fill="#F0F0F0"/>
<path d="M101.906 53.9219L94.3945 51.2383V48.0859L104.602 52.375V54.6367L101.906 53.9219ZM94.3945 56.1719L101.918 53.4297L104.602 52.7852V55.0352L94.3945 59.3242V56.1719ZM124.277 50.8867V53.6289H115.371V50.8867H124.277ZM116.414 43.9375V61H112.898V43.9375H116.414ZM126.785 43.9375V61H123.281V43.9375H126.785ZM135.469 61.2344C134.484 61.2344 133.602 61.0781 132.82 60.7656C132.039 60.4453 131.375 60.0039 130.828 59.4414C130.289 58.8789 129.875 58.2266 129.586 57.4844C129.297 56.7344 129.152 55.9375 129.152 55.0938V54.625C129.152 53.6641 129.289 52.7852 129.562 51.9883C129.836 51.1914 130.227 50.5 130.734 49.9141C131.25 49.3281 131.875 48.8789 132.609 48.5664C133.344 48.2461 134.172 48.0859 135.094 48.0859C135.992 48.0859 136.789 48.2344 137.484 48.5312C138.18 48.8281 138.762 49.25 139.23 49.7969C139.707 50.3438 140.066 51 140.309 51.7656C140.551 52.5234 140.672 53.3672 140.672 54.2969V55.7031H130.594V53.4531H137.355V53.1953C137.355 52.7266 137.27 52.3086 137.098 51.9414C136.934 51.5664 136.684 51.2695 136.348 51.0508C136.012 50.832 135.582 50.7227 135.059 50.7227C134.613 50.7227 134.23 50.8203 133.91 51.0156C133.59 51.2109 133.328 51.4844 133.125 51.8359C132.93 52.1875 132.781 52.6016 132.68 53.0781C132.586 53.5469 132.539 54.0625 132.539 54.625V55.0938C132.539 55.6016 132.609 56.0703 132.75 56.5C132.898 56.9297 133.105 57.3008 133.371 57.6133C133.645 57.9258 133.973 58.168 134.355 58.3398C134.746 58.5117 135.188 58.5977 135.68 58.5977C136.289 58.5977 136.855 58.4805 137.379 58.2461C137.91 58.0039 138.367 57.6406 138.75 57.1562L140.391 58.9375C140.125 59.3203 139.762 59.6875 139.301 60.0391C138.848 60.3906 138.301 60.6797 137.66 60.9062C137.02 61.125 136.289 61.2344 135.469 61.2344ZM145.969 50.9453V61H142.582V48.3203H145.758L145.969 50.9453ZM145.5 54.2148H144.562C144.562 53.332 144.668 52.5195 144.879 51.7773C145.098 51.0273 145.414 50.3789 145.828 49.832C146.25 49.2773 146.77 48.8477 147.387 48.543C148.004 48.2383 148.719 48.0859 149.531 48.0859C150.094 48.0859 150.609 48.1719 151.078 48.3438C151.547 48.5078 151.949 48.7695 152.285 49.1289C152.629 49.4805 152.895 49.9414 153.082 50.5117C153.27 51.0742 153.363 51.75 153.363 52.5391V61H149.988V52.9141C149.988 52.3359 149.91 51.8906 149.754 51.5781C149.598 51.2656 149.375 51.0469 149.086 50.9219C148.805 50.7969 148.465 50.7344 148.066 50.7344C147.629 50.7344 147.246 50.8242 146.918 51.0039C146.598 51.1836 146.332 51.4336 146.121 51.7539C145.91 52.0664 145.754 52.4336 145.652 52.8555C145.551 53.2773 145.5 53.7305 145.5 54.2148ZM153.047 53.8281L151.84 53.9805C151.84 53.1523 151.941 52.3828 152.145 51.6719C152.355 50.9609 152.664 50.3359 153.07 49.7969C153.484 49.2578 153.996 48.8398 154.605 48.543C155.215 48.2383 155.918 48.0859 156.715 48.0859C157.324 48.0859 157.879 48.1758 158.379 48.3555C158.879 48.5273 159.305 48.8047 159.656 49.1875C160.016 49.5625 160.289 50.0547 160.477 50.6641C160.672 51.2734 160.77 52.0195 160.77 52.9023V61H157.383V52.9023C157.383 52.3164 157.305 51.8711 157.148 51.5664C157 51.2539 156.781 51.0391 156.492 50.9219C156.211 50.7969 155.875 50.7344 155.484 50.7344C155.078 50.7344 154.723 50.8164 154.418 50.9805C154.113 51.1367 153.859 51.3555 153.656 51.6367C153.453 51.918 153.301 52.2461 153.199 52.6211C153.098 52.9883 153.047 53.3906 153.047 53.8281ZM170.227 58.1406V52.4922C170.227 52.0859 170.16 51.7383 170.027 51.4492C169.895 51.1523 169.688 50.9219 169.406 50.7578C169.133 50.5938 168.777 50.5117 168.34 50.5117C167.965 50.5117 167.641 50.5781 167.367 50.7109C167.094 50.8359 166.883 51.0195 166.734 51.2617C166.586 51.4961 166.512 51.7734 166.512 52.0938H163.137C163.137 51.5547 163.262 51.043 163.512 50.5586C163.762 50.0742 164.125 49.6484 164.602 49.2812C165.078 48.9062 165.645 48.6133 166.301 48.4023C166.965 48.1914 167.707 48.0859 168.527 48.0859C169.512 48.0859 170.387 48.25 171.152 48.5781C171.918 48.9062 172.52 49.3984 172.957 50.0547C173.402 50.7109 173.625 51.5312 173.625 52.5156V57.9414C173.625 58.6367 173.668 59.207 173.754 59.6523C173.84 60.0898 173.965 60.4727 174.129 60.8008V61H170.719C170.555 60.6562 170.43 60.2266 170.344 59.7109C170.266 59.1875 170.227 58.6641 170.227 58.1406ZM170.672 53.2773L170.695 55.1875H168.809C168.363 55.1875 167.977 55.2383 167.648 55.3398C167.32 55.4414 167.051 55.5859 166.84 55.7734C166.629 55.9531 166.473 56.1641 166.371 56.4062C166.277 56.6484 166.23 56.9141 166.23 57.2031C166.23 57.4922 166.297 57.7539 166.43 57.9883C166.562 58.2148 166.754 58.3945 167.004 58.5273C167.254 58.6523 167.547 58.7148 167.883 58.7148C168.391 58.7148 168.832 58.6133 169.207 58.4102C169.582 58.207 169.871 57.957 170.074 57.6602C170.285 57.3633 170.395 57.082 170.402 56.8164L171.293 58.2461C171.168 58.5664 170.996 58.8984 170.777 59.2422C170.566 59.5859 170.297 59.9102 169.969 60.2148C169.641 60.5117 169.246 60.7578 168.785 60.9531C168.324 61.1406 167.777 61.2344 167.145 61.2344C166.34 61.2344 165.609 61.0742 164.953 60.7539C164.305 60.4258 163.789 59.9766 163.406 59.4062C163.031 58.8281 162.844 58.1719 162.844 57.4375C162.844 56.7734 162.969 56.1836 163.219 55.668C163.469 55.1523 163.836 54.7188 164.32 54.3672C164.812 54.0078 165.426 53.7383 166.16 53.5586C166.895 53.3711 167.746 53.2773 168.715 53.2773H170.672ZM186.328 55.3398H189.832C189.762 56.4883 189.445 57.5078 188.883 58.3984C188.328 59.2891 187.551 59.9844 186.551 60.4844C185.559 60.9844 184.363 61.2344 182.965 61.2344C181.871 61.2344 180.891 61.0469 180.023 60.6719C179.156 60.2891 178.414 59.7422 177.797 59.0312C177.188 58.3203 176.723 57.4609 176.402 56.4531C176.082 55.4453 175.922 54.3164 175.922 53.0664V51.8828C175.922 50.6328 176.086 49.5039 176.414 48.4961C176.75 47.4805 177.227 46.6172 177.844 45.9062C178.469 45.1953 179.215 44.6484 180.082 44.2656C180.949 43.8828 181.918 43.6914 182.988 43.6914C184.41 43.6914 185.609 43.9492 186.586 44.4648C187.57 44.9805 188.332 45.6914 188.871 46.5977C189.418 47.5039 189.746 48.5352 189.855 49.6914H186.34C186.301 49.0039 186.164 48.4219 185.93 47.9453C185.695 47.4609 185.34 47.0977 184.863 46.8555C184.395 46.6055 183.77 46.4805 182.988 46.4805C182.402 46.4805 181.891 46.5898 181.453 46.8086C181.016 47.0273 180.648 47.3594 180.352 47.8047C180.055 48.25 179.832 48.8125 179.684 49.4922C179.543 50.1641 179.473 50.9531 179.473 51.8594V53.0664C179.473 53.9492 179.539 54.7266 179.672 55.3984C179.805 56.0625 180.008 56.625 180.281 57.0859C180.562 57.5391 180.922 57.8828 181.359 58.1172C181.805 58.3438 182.34 58.457 182.965 58.457C183.699 58.457 184.305 58.3398 184.781 58.1055C185.258 57.8711 185.621 57.5234 185.871 57.0625C186.129 56.6016 186.281 56.0273 186.328 55.3398ZM191.391 54.7891V54.543C191.391 53.6133 191.523 52.7578 191.789 51.9766C192.055 51.1875 192.441 50.5039 192.949 49.9258C193.457 49.3477 194.082 48.8984 194.824 48.5781C195.566 48.25 196.418 48.0859 197.379 48.0859C198.34 48.0859 199.195 48.25 199.945 48.5781C200.695 48.8984 201.324 49.3477 201.832 49.9258C202.348 50.5039 202.738 51.1875 203.004 51.9766C203.27 52.7578 203.402 53.6133 203.402 54.543V54.7891C203.402 55.7109 203.27 56.5664 203.004 57.3555C202.738 58.1367 202.348 58.8203 201.832 59.4062C201.324 59.9844 200.699 60.4336 199.957 60.7539C199.215 61.0742 198.363 61.2344 197.402 61.2344C196.441 61.2344 195.586 61.0742 194.836 60.7539C194.094 60.4336 193.465 59.9844 192.949 59.4062C192.441 58.8203 192.055 58.1367 191.789 57.3555C191.523 56.5664 191.391 55.7109 191.391 54.7891ZM194.766 54.543V54.7891C194.766 55.3203 194.812 55.8164 194.906 56.2773C195 56.7383 195.148 57.1445 195.352 57.4961C195.562 57.8398 195.836 58.1094 196.172 58.3047C196.508 58.5 196.918 58.5977 197.402 58.5977C197.871 58.5977 198.273 58.5 198.609 58.3047C198.945 58.1094 199.215 57.8398 199.418 57.4961C199.621 57.1445 199.77 56.7383 199.863 56.2773C199.965 55.8164 200.016 55.3203 200.016 54.7891V54.543C200.016 54.0273 199.965 53.543 199.863 53.0898C199.77 52.6289 199.617 52.2227 199.406 51.8711C199.203 51.5117 198.934 51.2305 198.598 51.0273C198.262 50.8242 197.855 50.7227 197.379 50.7227C196.902 50.7227 196.496 50.8242 196.16 51.0273C195.832 51.2305 195.562 51.5117 195.352 51.8711C195.148 52.2227 195 52.6289 194.906 53.0898C194.812 53.543 194.766 54.0273 194.766 54.543ZM208.781 51.0273V61H205.406V48.3203H208.57L208.781 51.0273ZM208.289 54.2148H207.375C207.375 53.2773 207.496 52.4336 207.738 51.6836C207.98 50.9258 208.32 50.2812 208.758 49.75C209.195 49.2109 209.715 48.8008 210.316 48.5195C210.926 48.2305 211.605 48.0859 212.355 48.0859C212.949 48.0859 213.492 48.1719 213.984 48.3438C214.477 48.5156 214.898 48.7891 215.25 49.1641C215.609 49.5391 215.883 50.0352 216.07 50.6523C216.266 51.2695 216.363 52.0234 216.363 52.9141V61H212.965V52.9023C212.965 52.3398 212.887 51.9023 212.73 51.5898C212.574 51.2773 212.344 51.0586 212.039 50.9336C211.742 50.8008 211.375 50.7344 210.938 50.7344C210.484 50.7344 210.09 50.8242 209.754 51.0039C209.426 51.1836 209.152 51.4336 208.934 51.7539C208.723 52.0664 208.562 52.4336 208.453 52.8555C208.344 53.2773 208.289 53.7305 208.289 54.2148ZM222.234 51.0273V61H218.859V48.3203H222.023L222.234 51.0273ZM221.742 54.2148H220.828C220.828 53.2773 220.949 52.4336 221.191 51.6836C221.434 50.9258 221.773 50.2812 222.211 49.75C222.648 49.2109 223.168 48.8008 223.77 48.5195C224.379 48.2305 225.059 48.0859 225.809 48.0859C226.402 48.0859 226.945 48.1719 227.438 48.3438C227.93 48.5156 228.352 48.7891 228.703 49.1641C229.062 49.5391 229.336 50.0352 229.523 50.6523C229.719 51.2695 229.816 52.0234 229.816 52.9141V61H226.418V52.9023C226.418 52.3398 226.34 51.9023 226.184 51.5898C226.027 51.2773 225.797 51.0586 225.492 50.9336C225.195 50.8008 224.828 50.7344 224.391 50.7344C223.938 50.7344 223.543 50.8242 223.207 51.0039C222.879 51.1836 222.605 51.4336 222.387 51.7539C222.176 52.0664 222.016 52.4336 221.906 52.8555C221.797 53.2773 221.742 53.7305 221.742 54.2148ZM238.219 61.2344C237.234 61.2344 236.352 61.0781 235.57 60.7656C234.789 60.4453 234.125 60.0039 233.578 59.4414C233.039 58.8789 232.625 58.2266 232.336 57.4844C232.047 56.7344 231.902 55.9375 231.902 55.0938V54.625C231.902 53.6641 232.039 52.7852 232.312 51.9883C232.586 51.1914 232.977 50.5 233.484 49.9141C234 49.3281 234.625 48.8789 235.359 48.5664C236.094 48.2461 236.922 48.0859 237.844 48.0859C238.742 48.0859 239.539 48.2344 240.234 48.5312C240.93 48.8281 241.512 49.25 241.98 49.7969C242.457 50.3438 242.816 51 243.059 51.7656C243.301 52.5234 243.422 53.3672 243.422 54.2969V55.7031H233.344V53.4531H240.105V53.1953C240.105 52.7266 240.02 52.3086 239.848 51.9414C239.684 51.5664 239.434 51.2695 239.098 51.0508C238.762 50.832 238.332 50.7227 237.809 50.7227C237.363 50.7227 236.98 50.8203 236.66 51.0156C236.34 51.2109 236.078 51.4844 235.875 51.8359C235.68 52.1875 235.531 52.6016 235.43 53.0781C235.336 53.5469 235.289 54.0625 235.289 54.625V55.0938C235.289 55.6016 235.359 56.0703 235.5 56.5C235.648 56.9297 235.855 57.3008 236.121 57.6133C236.395 57.9258 236.723 58.168 237.105 58.3398C237.496 58.5117 237.938 58.5977 238.43 58.5977C239.039 58.5977 239.605 58.4805 240.129 58.2461C240.66 58.0039 241.117 57.6406 241.5 57.1562L243.141 58.9375C242.875 59.3203 242.512 59.6875 242.051 60.0391C241.598 60.3906 241.051 60.6797 240.41 60.9062C239.77 61.125 239.039 61.2344 238.219 61.2344ZM250.582 58.5977C250.996 58.5977 251.363 58.5195 251.684 58.3633C252.004 58.1992 252.254 57.9727 252.434 57.6836C252.621 57.3867 252.719 57.0391 252.727 56.6406H255.902C255.895 57.5312 255.656 58.3242 255.188 59.0195C254.719 59.707 254.09 60.25 253.301 60.6484C252.512 61.0391 251.629 61.2344 250.652 61.2344C249.668 61.2344 248.809 61.0703 248.074 60.7422C247.348 60.4141 246.742 59.9609 246.258 59.3828C245.773 58.7969 245.41 58.1172 245.168 57.3438C244.926 56.5625 244.805 55.7266 244.805 54.8359V54.4961C244.805 53.5977 244.926 52.7617 245.168 51.9883C245.41 51.207 245.773 50.5273 246.258 49.9492C246.742 49.3633 247.348 48.9062 248.074 48.5781C248.801 48.25 249.652 48.0859 250.629 48.0859C251.668 48.0859 252.578 48.2852 253.359 48.6836C254.148 49.082 254.766 49.6523 255.211 50.3945C255.664 51.1289 255.895 52 255.902 53.0078H252.727C252.719 52.5859 252.629 52.2031 252.457 51.8594C252.293 51.5156 252.051 51.2422 251.73 51.0391C251.418 50.8281 251.031 50.7227 250.57 50.7227C250.078 50.7227 249.676 50.8281 249.363 51.0391C249.051 51.2422 248.809 51.5234 248.637 51.8828C248.465 52.2344 248.344 52.6367 248.273 53.0898C248.211 53.5352 248.18 54.0039 248.18 54.4961V54.8359C248.18 55.3281 248.211 55.8008 248.273 56.2539C248.336 56.707 248.453 57.1094 248.625 57.4609C248.805 57.8125 249.051 58.0898 249.363 58.293C249.676 58.4961 250.082 58.5977 250.582 58.5977ZM264.07 48.3203V50.7109H256.688V48.3203H264.07ZM258.516 45.1914H261.891V57.1797C261.891 57.5469 261.938 57.8281 262.031 58.0234C262.133 58.2188 262.281 58.3555 262.477 58.4336C262.672 58.5039 262.918 58.5391 263.215 58.5391C263.426 58.5391 263.613 58.5312 263.777 58.5156C263.949 58.4922 264.094 58.4688 264.211 58.4453L264.223 60.9297C263.934 61.0234 263.621 61.0977 263.285 61.1523C262.949 61.207 262.578 61.2344 262.172 61.2344C261.43 61.2344 260.781 61.1133 260.227 60.8711C259.68 60.6211 259.258 60.2227 258.961 59.6758C258.664 59.1289 258.516 58.4102 258.516 57.5195V45.1914Z" fill="#888888"/>
<path d="M106.688 119H99.1172L99.1641 112.672H106.688C108.25 112.672 109.57 112.297 110.648 111.547C111.742 110.797 112.57 109.68 113.133 108.195C113.711 106.695 114 104.852 114 102.664V101.188C114 99.5469 113.836 98.1094 113.508 96.875C113.195 95.625 112.727 94.5859 112.102 93.7578C111.477 92.9141 110.695 92.2812 109.758 91.8594C108.836 91.4375 107.773 91.2266 106.57 91.2266H98.9766V84.875H106.57C108.883 84.875 111 85.2734 112.922 86.0703C114.859 86.8516 116.531 87.9766 117.938 89.4453C119.359 90.8984 120.453 92.625 121.219 94.625C122 96.6094 122.391 98.8125 122.391 101.234V102.664C122.391 105.07 122 107.273 121.219 109.273C120.453 111.273 119.367 113 117.961 114.453C116.555 115.906 114.891 117.031 112.969 117.828C111.062 118.609 108.969 119 106.688 119ZM103.828 84.875V119H95.6016V84.875H103.828ZM138.586 119.469C136.523 119.469 134.68 119.148 133.055 118.508C131.43 117.852 130.055 116.953 128.93 115.812C127.82 114.672 126.969 113.359 126.375 111.875C125.797 110.391 125.508 108.82 125.508 107.164V106.273C125.508 104.414 125.766 102.695 126.281 101.117C126.797 99.5234 127.562 98.1328 128.578 96.9453C129.594 95.7578 130.867 94.8359 132.398 94.1797C133.93 93.5078 135.711 93.1719 137.742 93.1719C139.539 93.1719 141.148 93.4609 142.57 94.0391C143.992 94.6172 145.195 95.4453 146.18 96.5234C147.18 97.6016 147.938 98.9062 148.453 100.438C148.984 101.969 149.25 103.688 149.25 105.594V108.805H128.531V103.859H141.539V103.25C141.555 102.406 141.406 101.688 141.094 101.094C140.797 100.5 140.359 100.047 139.781 99.7344C139.203 99.4219 138.5 99.2656 137.672 99.2656C136.812 99.2656 136.102 99.4531 135.539 99.8281C134.992 100.203 134.562 100.719 134.25 101.375C133.953 102.016 133.742 102.758 133.617 103.602C133.492 104.445 133.43 105.336 133.43 106.273V107.164C133.43 108.102 133.555 108.953 133.805 109.719C134.07 110.484 134.445 111.141 134.93 111.688C135.43 112.219 136.023 112.633 136.711 112.93C137.414 113.227 138.211 113.375 139.102 113.375C140.18 113.375 141.242 113.172 142.289 112.766C143.336 112.359 144.234 111.688 144.984 110.75L148.57 115.016C148.055 115.75 147.32 116.461 146.367 117.148C145.43 117.836 144.305 118.398 142.992 118.836C141.68 119.258 140.211 119.469 138.586 119.469ZM160.43 99.0078V119H152.531V93.6406H159.938L160.43 99.0078ZM159.469 105.453L157.664 105.5C157.664 103.719 157.875 102.078 158.297 100.578C158.719 99.0781 159.344 97.7734 160.172 96.6641C161 95.5547 162.016 94.6953 163.219 94.0859C164.438 93.4766 165.844 93.1719 167.438 93.1719C168.547 93.1719 169.555 93.3438 170.461 93.6875C171.367 94.0156 172.148 94.5391 172.805 95.2578C173.461 95.9609 173.961 96.8828 174.305 98.0234C174.664 99.1484 174.844 100.5 174.844 102.078V119H166.945V103.086C166.945 102.008 166.82 101.195 166.57 100.648C166.336 100.102 165.992 99.7344 165.539 99.5469C165.086 99.3594 164.531 99.2656 163.875 99.2656C163.188 99.2656 162.57 99.4219 162.023 99.7344C161.477 100.047 161.008 100.484 160.617 101.047C160.242 101.594 159.953 102.242 159.75 102.992C159.562 103.742 159.469 104.562 159.469 105.453ZM173.953 105.453L171.75 105.5C171.75 103.719 171.945 102.078 172.336 100.578C172.742 99.0781 173.344 97.7734 174.141 96.6641C174.953 95.5547 175.961 94.6953 177.164 94.0859C178.367 93.4766 179.766 93.1719 181.359 93.1719C182.516 93.1719 183.578 93.3438 184.547 93.6875C185.516 94.0312 186.352 94.5859 187.055 95.3516C187.758 96.1172 188.305 97.1328 188.695 98.3984C189.086 99.6484 189.281 101.195 189.281 103.039V119H181.359V103.039C181.359 101.992 181.234 101.203 180.984 100.672C180.75 100.125 180.406 99.7578 179.953 99.5703C179.5 99.3672 178.961 99.2656 178.336 99.2656C177.586 99.2656 176.938 99.4219 176.391 99.7344C175.844 100.047 175.383 100.484 175.008 101.047C174.648 101.594 174.383 102.242 174.211 102.992C174.039 103.742 173.953 104.562 173.953 105.453ZM192.82 106.578V106.086C192.82 104.227 193.086 102.516 193.617 100.953C194.148 99.375 194.93 98.0078 195.961 96.8516C196.992 95.6953 198.266 94.7969 199.781 94.1562C201.297 93.5 203.047 93.1719 205.031 93.1719C207.031 93.1719 208.789 93.5 210.305 94.1562C211.836 94.7969 213.117 95.6953 214.148 96.8516C215.18 98.0078 215.961 99.375 216.492 100.953C217.023 102.516 217.289 104.227 217.289 106.086V106.578C217.289 108.422 217.023 110.133 216.492 111.711C215.961 113.273 215.18 114.641 214.148 115.812C213.117 116.969 211.844 117.867 210.328 118.508C208.812 119.148 207.062 119.469 205.078 119.469C203.094 119.469 201.336 119.148 199.805 118.508C198.273 117.867 196.992 116.969 195.961 115.812C194.93 114.641 194.148 113.273 193.617 111.711C193.086 110.133 192.82 108.422 192.82 106.578ZM200.719 106.086V106.578C200.719 107.531 200.789 108.422 200.93 109.25C201.07 110.078 201.305 110.805 201.633 111.43C201.961 112.039 202.406 112.516 202.969 112.859C203.531 113.203 204.234 113.375 205.078 113.375C205.906 113.375 206.594 113.203 207.141 112.859C207.703 112.516 208.148 112.039 208.477 111.43C208.805 110.805 209.039 110.078 209.18 109.25C209.32 108.422 209.391 107.531 209.391 106.578V106.086C209.391 105.164 209.32 104.297 209.18 103.484C209.039 102.656 208.805 101.93 208.477 101.305C208.148 100.664 207.703 100.164 207.141 99.8047C206.578 99.4453 205.875 99.2656 205.031 99.2656C204.203 99.2656 203.508 99.4453 202.945 99.8047C202.398 100.164 201.961 100.664 201.633 101.305C201.305 101.93 201.07 102.656 200.93 103.484C200.789 104.297 200.719 105.164 200.719 106.086Z" fill="black"/>
<path d="M1134 0H1348C1356.28 0 1363 6.71573 1363 15V148C1363 156.284 1356.28 163 1348 163H1134V0Z" fill="#DE374B"/>
<path d="M1281 46.5H1216L1213.5 49V114L1216 116.5H1281L1283.5 114V49L1281 46.5ZM1278.5 111.5H1233.5V101.5H1245C1246.5 104.5 1250 106.5 1253.5 106.5C1259 106.5 1263.5 102 1263.5 96.5C1263.5 91 1259 86.5 1253.5 86.5C1248 86.5 1243.5 91 1243.5 96.5H1228.5V111.5H1218.5V51.5H1228.5V63C1225.5 64.5 1223.5 68 1223.5 71.5C1223.5 77 1228 81.5 1233.5 81.5C1239 81.5 1243.5 77 1243.5 71.5H1253.5C1253.5 77 1258 81.5 1263.5 81.5C1269 81.5 1273.5 77 1273.5 71.5C1273.5 66 1269 61.5 1263.5 61.5C1260 61.5 1256.5 63.5 1255 66.5H1242C1240.5 63.5 1237 61.5 1233.5 61.5V51.5H1278.5V111.5ZM1248.5 96.5C1248.5 93.5 1250.5 91.5 1253.5 91.5C1256.5 91.5 1258.5 93.5 1258.5 96.5C1258.5 99.5 1256.5 101.5 1253.5 101.5C1250.5 101.5 1248.5 99.5 1248.5 96.5ZM1233.5 66.5C1236.5 66.5 1238.5 68.5 1238.5 71.5C1238.5 74.5 1236.5 76.5 1233.5 76.5C1230.5 76.5 1228.5 74.5 1228.5 71.5C1228.5 68.5 1230.5 66.5 1233.5 66.5ZM1263.5 66.5C1266.5 66.5 1268.5 68.5 1268.5 71.5C1268.5 74.5 1266.5 76.5 1263.5 76.5C1260.5 76.5 1258.5 74.5 1258.5 71.5C1258.5 68.5 1260.5 66.5 1263.5 66.5Z" fill="white"/>
</svg>
